<svg width="52" height="40" viewBox="0 0 52 40" fill="none" xmlns="http://www.w3.org/2000/svg">
<path fill-rule="evenodd" clip-rule="evenodd" d="M11.0274 32.6369C10.1035 32.4618 10.0155 30.2738 10.0155 28.961C10.0155 28.2171 9.83945 27.9983 10.6754 27.867C10.9394 27.8233 11.2034 27.867 11.2034 27.7795C11.2914 26.6417 11.3794 24.4975 11.9074 22.0032C12.3914 19.7714 14.4154 17.5834 15.2954 16.1393C15.7794 15.3516 15.2074 14.9578 15.5594 14.9578C19.1674 14.6514 24.5793 14.9578 28.4513 14.8702C30.0793 14.8265 31.6633 15.0453 32.8073 15.4829C33.5113 15.7454 33.9073 15.8767 34.6553 16.3143C37.8672 18.3273 41.4312 21.0842 43.0152 22.1782C43.8072 22.7033 45.6552 24.585 46.0512 25.3727C46.6672 26.6855 46.1832 28.0421 46.1832 28.1296C46.6232 28.1733 46.7552 28.5672 46.7552 29.1361C46.7552 30.0113 46.8432 30.6677 46.5792 31.5429C46.4032 32.1993 47.4592 32.5494 46.7552 32.5931L45.4792 32.6369C44.8632 32.5056 44.6872 32.5494 44.7312 31.7179C44.7312 31.4554 44.7752 31.149 44.7752 30.8427C44.7752 27.9108 42.3552 25.504 39.4072 25.504C36.4592 25.504 34.0393 27.9545 34.0393 30.8865C34.0393 31.2803 34.0393 31.7179 34.0833 32.068C34.1713 33.3808 34.5673 33.2495 33.3353 33.2933L23.7873 33.2495C22.8633 33.1182 22.5994 33.2495 22.7314 32.0242C22.7754 31.6304 22.7754 31.2366 22.7754 30.8427C22.7754 27.9108 20.3554 25.504 17.4074 25.504C14.4594 25.504 12.0394 27.9108 12.0394 30.8427C12.0394 31.1053 12.0394 31.3678 12.0394 31.6304C12.0834 32.6806 12.3034 32.8557 11.0274 32.6369ZM34.9633 22.2657C34.9633 22.2657 35.6477 21.5454 37.1192 20.6466C35.5352 19.2025 34.2153 17.2771 32.1033 16.5331C30.3873 15.9642 24.2713 16.1393 22.4234 16.0955C22.1154 16.0955 21.9394 16.4018 21.8074 16.6644C21.1474 18.021 20.5314 19.9902 20.6634 21.2592C20.7074 21.8719 21.0154 21.9594 21.6314 21.9594C24.0073 21.9594 34.9633 22.2657 34.9633 22.2657ZM18.6394 16.0518C19.0354 16.0955 19.6954 16.008 19.9154 16.0518C20.3994 16.1393 20.1794 16.3581 20.0034 16.927C19.4314 18.7211 19.0354 20.384 18.5074 21.1279C17.9794 21.7844 17.8474 21.6093 16.3514 21.6968C16.0874 21.6968 14.8114 21.6968 14.4154 21.6531C13.6234 21.5656 13.5354 21.4343 13.7994 20.6028C14.4154 18.9399 16.5714 16.0518 18.6394 16.0518Z" fill="#F6F6F6"/>
<path d="M12.7712 31.1135C12.7712 28.5592 14.8456 26.5 17.4072 26.5C19.9687 26.5 22.0431 28.5592 22.0431 31.1135C22.0431 33.6677 19.9687 35.7269 17.4072 35.7269C14.8456 35.7269 12.7712 33.6677 12.7712 31.1135ZM34.771 31.1135C34.771 28.5592 36.8455 26.5 39.407 26.5C41.9685 26.5 44.043 28.5592 44.043 31.1135C44.043 33.6677 41.9685 35.7269 39.407 35.7269C36.8455 35.7269 34.771 33.6677 34.771 31.1135Z" stroke="#878787"/>
<path d="M33.335 33.5203L23.7871 33.4765M11.027 32.6369C10.103 32.4618 10.015 30.2738 10.015 28.961C10.015 28.2171 9.83896 27.9983 10.675 27.867C10.939 27.8233 11.203 27.867 11.203 27.7795C11.2909 26.6417 11.3789 24.4975 11.9069 22.0032C12.3909 19.7714 14.4149 17.5834 15.2949 16.1393C15.7789 15.3516 15.2069 14.9578 15.5589 14.9578C19.1669 14.6514 24.5788 14.9578 28.4508 14.8702C30.0788 14.8265 31.6628 15.0453 32.8068 15.4829C33.5108 15.7454 33.9068 15.8767 34.6548 16.3143C37.8667 18.3273 41.4307 21.0842 43.0147 22.1782C43.8067 22.7033 45.6547 24.585 46.0507 25.3727C46.6667 26.6855 46.1827 28.0421 46.1827 28.1296C46.6227 28.1733 46.7547 28.5672 46.7547 29.1361C46.7547 30.0113 46.8427 30.6677 46.5787 31.5429" stroke="#878787"/>
<mask id="path-4-outside-1" maskUnits="userSpaceOnUse" x="1" y="9" width="18" height="14" fill="black">
<rect fill="white" x="1" y="9" width="18" height="14"/>
<path d="M2 12C2 10.8954 2.89543 10 4 10H16C17.1046 10 18 10.8954 18 12V20C18 21.1046 17.1046 22 16 22H4C2.89543 22 2 21.1046 2 20V12Z"/>
</mask>
<path d="M2 12C2 10.8954 2.89543 10 4 10H16C17.1046 10 18 10.8954 18 12V20C18 21.1046 17.1046 22 16 22H4C2.89543 22 2 21.1046 2 20V12Z" fill="#F6F6F6"/>
<path d="M3 12C3 11.4477 3.44772 11 4 11V9C2.34315 9 1 10.3431 1 12H3ZM4 11H16V9H4V11ZM16 11C16.5523 11 17 11.4477 17 12H19C19 10.3431 17.6569 9 16 9V11ZM17 12V20H19V12H17ZM17 20C17 20.5523 16.5523 21 16 21V23C17.6569 23 19 21.6569 19 20H17ZM16 21H4V23H16V21ZM4 21C3.44772 21 3 20.5523 3 20H1C1 21.6569 2.34315 23 4 23V21ZM3 20V12H1V20H3Z" fill="#878787" mask="url(#path-4-outside-1)"/>
<circle cx="10" cy="16" r="3.5" fill="white" stroke="#878787"/>
</svg>
