<svg width="62" height="40" viewBox="0 0 62 40" fill="none" xmlns="http://www.w3.org/2000/svg">
<path d="M26.3784 31.0271C26.3784 29.0273 24.7294 27.3784 22.7297 27.3784C20.73 27.3784 19.0811 28.9922 19.0811 31.0271C19.0811 33.0268 20.73 34.6757 22.7297 34.6757C24.7294 34.6757 26.3784 33.0268 26.3784 31.0271Z" stroke="#878787" stroke-miterlimit="10"/>
<path d="M51.9189 31.0271C51.9189 29.0273 50.27 27.3784 48.2702 27.3784C46.2705 27.3784 44.6216 28.9922 44.6216 31.0271C44.6216 33.0268 46.2705 34.6757 48.2702 34.6757C50.27 34.6757 51.9189 33.0268 51.9189 31.0271Z" stroke="#878787" stroke-miterlimit="10"/>
<path fill-rule="evenodd" clip-rule="evenodd" d="M20.4578 17.6517C20.8674 17.8905 21.1509 18.226 21.2656 18.6794C20.2813 18.1491 18.11 19.4016 18.0002 22.9999C17.956 24.4469 18.0741 26.1145 18.2032 27.7594C19.1111 26.2418 20.8073 25.2209 22.7499 25.2209C25.6426 25.2209 27.9879 27.4852 27.9992 30.2816C27.9992 30.2839 27.9994 30.286 27.9995 30.288C27.9997 30.2898 27.9999 30.2915 27.9999 30.2932C28.0006 30.696 28.3336 31.0269 28.7498 31.0269H42.2499C42.6946 31.0269 43.0539 30.7418 42.9999 30.3012C42.9999 27.4954 45.3504 25.2209 48.2499 25.2209C51.1427 25.2209 53.4879 27.4853 53.4992 30.2817C53.4992 30.2861 53.5 30.2896 53.5 30.2933C53.5007 30.6961 53.8337 31.027 54.25 31.027H57.2499C57.6639 31.027 57.9999 30.7019 57.9999 30.3013V27.3983C57.9999 26.9977 57.6639 26.6726 57.2499 26.6726L57.1629 24.8705C57.1074 23.7253 56.5156 22.649 55.5181 22.0306C53.5922 20.8375 50.3176 20.1886 47.1099 20.1437C42.8003 15.0967 36.0878 13.1452 27.147 14.3412L27.12 14.3456C23.9608 14.8812 21.9303 16.1258 20.4578 17.6517ZM34.3748 20.1408C34.1677 20.1408 33.9998 19.9781 33.9998 19.7779V15.9111C33.9998 15.6977 34.1933 15.5264 34.413 15.5453C38.4916 15.8943 41.8013 17.2072 44.4039 19.5028C44.6595 19.7285 44.502 20.1408 44.1556 20.1408H34.3748ZM25.3643 20.1407C25.1588 20.1407 24.9915 19.9803 24.9892 19.7814L24.9593 16.6781C24.9578 16.5243 25.0531 16.3842 25.2023 16.3312C25.8518 16.1012 26.5657 15.9139 27.3668 15.7775C29.049 15.5524 30.6316 15.4472 32.1271 15.4487C32.334 15.4487 32.4998 15.6141 32.4998 15.8151V19.7778C32.4998 19.9781 32.3318 20.1407 32.1248 20.1407H25.3643ZM23.1142 20.1407H21.0749C20.763 20.1407 20.5905 19.7952 20.7779 19.5536C21.3787 18.7784 22.0529 18.0955 22.8637 17.5222C23.1135 17.3451 23.4667 17.5077 23.4697 17.8074L23.4892 19.7742C23.4914 19.9759 23.3226 20.1407 23.1142 20.1407Z" fill="#F6F6F6"/>
<path d="M55.4663 31.027H57.25C57.664 31.027 58 30.7019 58 30.3013V27.3983C58 26.9977 57.664 26.6726 57.25 26.6726L57.163 24.8705C57.1075 23.7253 56.5157 22.649 55.5182 22.0306C53.5923 20.8375 50.3177 20.1886 47.1099 20.1437C42.8004 15.0967 36.0879 13.1452 27.147 14.3412C27.1381 14.3427 27.129 14.3441 27.1201 14.3456C24.8026 14.7385 23.0925 15.5129 21.7645 16.5M41.0338 31.0269H30.6351" stroke="#878787"/>
<path d="M22.5742 12.7659H21.5742V13.7659V16.1488V17.1488H22.5742H23.4985C24.5982 17.1488 25.3615 16.2104 25.3615 15.2174V14.6973C25.3615 13.7043 24.5982 12.7659 23.4985 12.7659H22.5742Z" fill="#878787" stroke="white" stroke-width="2"/>
<path d="M19.6171 17.7447H20.6171V16.7447V12.5745V11.5745H19.6171H11.4712C10.4712 11.5745 9.65967 12.385 9.65967 13.3857V15.9335C9.65967 16.9342 10.4712 17.7447 11.4712 17.7447H19.6171Z" fill="#878787" stroke="white" stroke-width="2"/>
<path d="M21.04 12.5745C19.6486 12.5745 19.816 12.5745 19 12.5745V16.7447C20.3345 16.7447 20.1955 16.7447 21.04 16.7447C21.2291 16.7447 21.383 16.5711 21.383 16.3569C21.383 15.962 21.383 13.3047 21.383 12.9622C21.383 12.7481 21.2291 12.5745 21.04 12.5745Z" fill="#878787"/>
<path d="M13.0615 22.5H13.9385C14.5248 22.5 15 22.1643 15 21.75C15 21.3357 14.5248 21 13.9385 21H13.0615C12.4752 21 12 21.3357 12 21.75C12 22.1643 12.4753 22.5 13.0615 22.5Z" fill="#878787"/>
<path d="M13.9385 29.5C14.5248 29.5 15 29.1643 15 28.75C15 28.3357 14.5248 28 13.9385 28H13.0615C12.4752 28 12 28.3357 12 28.75C12 29.1643 12.4752 29.5 13.0615 29.5H13.9385Z" fill="#878787"/>
<path d="M13.9385 35H13.0615C12.4752 35 12 35.3357 12 35.75C12 36.1643 12.4752 36.5 13.0615 36.5H13.9385C14.5248 36.5 15 36.1643 15 35.75C15 35.3357 14.5247 35 13.9385 35Z" fill="#878787"/>
<path d="M5.48398 15.2185V17H4.54248V11.939H6.19098C6.52931 11.939 6.82215 11.9786 7.06948 12.058C7.31681 12.1373 7.52098 12.2481 7.68198 12.3905C7.84298 12.5328 7.96198 12.7031 8.03898 12.9015C8.11598 13.0998 8.15448 13.3168 8.15448 13.5525C8.15448 13.7975 8.11365 14.0226 8.03198 14.228C7.95031 14.431 7.82781 14.606 7.66448 14.753C7.50115 14.9 7.29698 15.0143 7.05198 15.096C6.80698 15.1776 6.51998 15.2185 6.19098 15.2185H5.48398ZM5.48398 14.4835H6.19098C6.36365 14.4835 6.51415 14.4625 6.64248 14.4205C6.77081 14.3761 6.87698 14.3143 6.96098 14.235C7.04498 14.1533 7.10798 14.0553 7.14998 13.941C7.19198 13.8243 7.21298 13.6948 7.21298 13.5525C7.21298 13.4171 7.19198 13.2946 7.14998 13.185C7.10798 13.0753 7.04498 12.982 6.96098 12.905C6.87698 12.828 6.77081 12.7696 6.64248 12.73C6.51415 12.688 6.36365 12.667 6.19098 12.667H5.48398V14.4835Z" fill="#878787"/>
<path d="M5.3547 21.9069V23.9999H4.6792V18.9844H6.0967C6.41403 18.9844 6.6882 19.017 6.9192 19.0824C7.1502 19.1454 7.34037 19.2375 7.4897 19.3589C7.64137 19.4802 7.75337 19.6272 7.8257 19.7999C7.89803 19.9702 7.9342 20.1615 7.9342 20.3739C7.9342 20.5512 7.9062 20.7169 7.8502 20.8709C7.7942 21.0249 7.71253 21.1637 7.6052 21.2874C7.5002 21.4087 7.3707 21.5125 7.2167 21.5989C7.06503 21.6852 6.89237 21.7505 6.6987 21.7949C6.7827 21.8439 6.85737 21.915 6.9227 22.0084L8.3857 23.9999H7.7837C7.66003 23.9999 7.56903 23.952 7.5107 23.8564L6.2087 22.0644C6.16903 22.0084 6.12587 21.9687 6.0792 21.9454C6.03253 21.9197 5.96253 21.9069 5.8692 21.9069H5.3547ZM5.3547 21.4134H6.0652C6.26353 21.4134 6.43737 21.39 6.5867 21.3434C6.73837 21.2944 6.86437 21.2267 6.9647 21.1404C7.06737 21.0517 7.14437 20.9467 7.1957 20.8254C7.24703 20.704 7.2727 20.5699 7.2727 20.4229C7.2727 20.1242 7.17353 19.899 6.9752 19.7474C6.7792 19.5957 6.48637 19.5199 6.0967 19.5199H5.3547V21.4134Z" fill="#878787"/>
<path d="M4.95889 25.9844C5.01955 25.9844 5.06389 25.9925 5.09189 26.0089C5.12222 26.0229 5.15605 26.0532 5.19339 26.0999L8.09839 29.8799C8.09139 29.8192 8.08672 29.7609 8.08439 29.7049C8.08205 29.6465 8.08089 29.5905 8.08089 29.5369V25.9844H8.67589V30.9999H8.33289C8.27922 30.9999 8.23372 30.9905 8.19639 30.9719C8.16139 30.9532 8.12639 30.9217 8.09139 30.8774L5.18989 27.1009C5.19455 27.1592 5.19805 27.2164 5.20039 27.2724C5.20272 27.3284 5.20389 27.3797 5.20389 27.4264V30.9999H4.60889V25.9844H4.95889Z" fill="#878787"/>
<path d="M8.95589 35.4939C8.95589 35.8695 8.89639 36.2114 8.77739 36.5194C8.65839 36.8274 8.49039 37.091 8.27339 37.3104C8.05639 37.5297 7.79622 37.7 7.49289 37.8214C7.18955 37.9404 6.85355 37.9999 6.48489 37.9999H4.60889V32.9844H6.48489C6.85355 32.9844 7.18955 33.045 7.49289 33.1664C7.79622 33.2854 8.05639 33.4557 8.27339 33.6774C8.49039 33.8967 8.65839 34.1604 8.77739 34.4684C8.89639 34.7764 8.95589 35.1182 8.95589 35.4939ZM8.25939 35.4939C8.25939 35.1859 8.21739 34.9105 8.13339 34.6679C8.04939 34.4252 7.93039 34.2199 7.77639 34.0519C7.62239 33.8839 7.43572 33.7555 7.21639 33.6669C6.99705 33.5782 6.75322 33.5339 6.48489 33.5339H5.29139V37.4504H6.48489C6.75322 37.4504 6.99705 37.406 7.21639 37.3174C7.43572 37.2287 7.62239 37.1015 7.77639 36.9359C7.93039 36.7679 8.04939 36.5625 8.13339 36.3199C8.21739 36.0772 8.25939 35.8019 8.25939 35.4939Z" fill="#878787"/>
</svg>
