<svg width="41" height="40" viewBox="0 0 41 40" fill="none" xmlns="http://www.w3.org/2000/svg">
<path d="M39.1743 33.3553H22.818C22.3661 33.3553 22 33.7214 22 34.1737C22 34.6252 22.3661 34.9914 22.818 34.9914H39.1739C39.6258 34.9914 39.9919 34.6252 39.9919 34.1737C39.9916 33.7214 39.6254 33.3553 39.1743 33.3553Z" fill="#F6F6F6"/>
<path d="M23.8402 32.2287C23.3883 32.2287 23.0222 32.5948 23.0222 33.0467C23.0222 33.4986 23.3883 33.8651 23.8402 33.8651H38.1518C38.6037 33.8651 38.9698 33.4986 38.9698 33.0467C38.9698 32.5948 38.6037 32.2287 38.1518 32.2287H37.9477V23.8097H38.1518C38.3781 23.8097 38.5604 23.6266 38.5604 23.4011C38.5604 23.1755 38.3773 22.9924 38.1518 22.9924H23.8402C23.6142 22.9924 23.4316 23.1755 23.4316 23.4011C23.4316 23.6266 23.6146 23.8097 23.8402 23.8097H24.0447V32.2283L23.8402 32.2287Z" fill="#F6F6F6"/>
<path d="M22.818 23.3154H39.1739C39.1766 23.3154 39.1797 23.3154 39.182 23.3154C39.6343 23.3154 40 22.9493 40 22.4974C40 22.1382 39.7687 21.8337 39.4474 21.7234L31.3322 18.0718C31.1189 17.9761 30.875 17.9761 30.6613 18.0718L22.4826 21.7518C22.1306 21.9103 21.9372 22.2925 22.0184 22.6694C22.0992 23.0462 22.4324 23.3154 22.818 23.3154Z" fill="#F6F6F6"/>
<path d="M39.1743 32.8164H22.818C22.3661 32.8164 22 32.5269 22 33.4046C22 34.2809 22.3661 34.9914 22.818 34.9914H39.1739C39.6258 34.9914 39.9919 34.2809 39.9919 33.4046C39.9916 32.5269 39.6254 32.8164 39.1743 32.8164Z" fill="#F6F6F6"/>
<path d="M39.2422 21.1794L39.2632 21.1889L39.285 21.1963C39.411 21.2396 39.5 21.3587 39.5 21.4974C39.5 21.6733 39.358 21.8154 39.182 21.8154H39.1819H39.1819H39.1819H39.1819H39.1818H39.1818H39.1818H39.1818H39.1817H39.1817H39.1817H39.1817H39.1816H39.1816H39.1816H39.1816H39.1815H39.1815H39.1815H39.1815H39.1815H39.1814H39.1814H39.1814H39.1814H39.1813H39.1813H39.1813H39.1813H39.1812H39.1812H39.1812H39.1812H39.1811H39.1811H39.1811H39.1811H39.181H39.181H39.181H39.181H39.1809H39.1809H39.1809H39.1809H39.1808H39.1808H39.1808H39.1808H39.1808H39.1807H39.1807H39.1807H39.1807H39.1807H39.1807H39.1806H39.1806H39.1806H39.1806H39.1806H39.1805H39.1805H39.1805H39.1805H39.1805H39.1805H39.1804H39.1804H39.1804H39.1804H39.1804H39.1804H39.1803H39.1803H39.1803H39.1803H39.1803H39.1803H39.1802H39.1802H39.1802H39.1802H39.1802H39.1802H39.1801H39.1801H39.1801H39.1801H39.1801H39.1801H39.18H39.18H39.18H39.18H39.18H39.18H39.18H39.1799H39.1799H39.1799H39.1799H39.1799H39.1799H39.1798H39.1798H39.1798H39.1798H39.1798H39.1798H39.1798H39.1797H39.1797H39.1797H39.1797H39.1797H39.1797H39.1796H39.1796H39.1796H39.1796H39.1796H39.1796H39.1796H39.1795H39.1795H39.1795H39.1795H39.1795H39.1795H39.1794H39.1794H39.1794H39.1794H39.1794H39.1794H39.1793H39.1793H39.1793H39.1793H39.1793H39.1793H39.1793H39.1792H39.1792H39.1792H39.1792H39.1792H39.1792H39.1791H39.1791H39.1791H39.1791H39.1791H39.1791H39.1791H39.179H39.179H39.179H39.179H39.179H39.179H39.1789H39.1789H39.1789H39.1789H39.1789H39.1789H39.1788H39.1788H39.1788H39.1788H39.1788H39.1788H39.1787H39.1787H39.1787H39.1787H39.1787H39.1787H39.1786H39.1786H39.1786H39.1786H39.1786H39.1786H39.1786H39.1785H39.1785H39.1785H39.1785H39.1785H39.1785H39.1784H39.1784H39.1784H39.1784H39.1784H39.1784H39.1783H39.1783H39.1783H39.1783H39.1783H39.1783H39.1782H39.1782H39.1782H39.1782H39.1782H39.1782H39.1781H39.1781H39.1781H39.1781H39.1781H39.1781H39.1781H39.178H39.178H39.178H39.178H39.178H39.178H39.1779H39.1779H39.1779H39.1779H39.1779H39.1779H39.1778H39.1778H39.1778H39.1778H39.1778H39.1778H39.1777H39.1777H39.1777H39.1777H39.1777H39.1777H39.1776H39.1776H39.1776H39.1776H39.1776H39.1776H39.1775H39.1775H39.1775H39.1775H39.1775H39.1775H39.1774H39.1774H39.1774H39.1774H39.1774H39.1774H39.1773H39.1773H39.1773H39.1773H39.1773H39.1773H39.1772H39.1772H39.1772H39.1772H39.1772H39.1772H39.1772H39.1771H39.1771H39.1771H39.1771H39.1771H39.1771H39.177H39.177H39.177H39.177H39.177H39.177H39.1769H39.1769H39.1769H39.1769H39.1769H39.1769H39.1768H39.1768H39.1768H39.1768H39.1768H39.1768H39.1767H39.1767H39.1767H39.1767H39.1767H39.1767H39.1766H39.1766H39.1766H39.1766H39.1766H39.1766H39.1765H39.1765H39.1765H39.1765H39.1765H39.1765H39.1764H39.1764H39.1764H39.1764H39.1764H39.1764H39.1763H39.1763H39.1763H39.1763H39.1763H39.1763H39.1762H39.1762H39.1762H39.1762H39.1762H39.1762H39.1761H39.1761H39.1761H39.1761H39.1761H39.1761H39.176H39.176H39.176H39.176H39.176H39.176H39.176H39.1759H39.1759H39.1759H39.1759H39.1759H39.1759H39.1758H39.1758H39.1758H39.1758H39.1758H39.1758H39.1757H39.1757H39.1757H39.1757H39.1757H39.1757H39.1756H39.1756H39.1756H39.1756H39.1756H39.1756H39.1755H39.1755H39.1755H39.1755H39.1755H39.1755H39.1754H39.1754H39.1754H39.1754H39.1754H39.1754H39.1753H39.1753H39.1753H39.1753H39.1753H39.1753H39.1752H39.1752H39.1752H39.1752H39.1752H39.1752H39.1751H39.1751H39.1751H39.1751H39.1751H39.1751H39.1751H39.175H39.175H39.175H39.175H39.175H39.175H39.1749H39.1749H39.1749H39.1749H39.1749H39.1749H39.1748H39.1748H39.1748H39.1748H39.1748H39.1748H39.1747H39.1747H39.1747H39.1747H39.1747H39.1747H39.1747H39.1746H39.1746H39.1746H39.1746H39.1746H39.1746H39.1745H39.1745H39.1745H39.1745H39.1745H39.1745H39.1744H39.1744H39.1744H39.1744H39.1744H39.1744H39.1743H39.1743H39.1743H39.1743H39.1743H39.1743H39.1743H39.1742H39.1742H39.1742H39.1742H39.1742H39.1742H39.1741H39.1741H39.1741H39.1741H39.1741H39.1741H39.174H39.174H39.174H39.174H39.174H39.174H39.174H39.1739H22.818C22.668 21.8154 22.5386 21.7107 22.5073 21.5645L22.5072 21.5641C22.4758 21.4183 22.5504 21.2696 22.6879 21.2076L30.8657 17.5281C30.8658 17.5281 30.8659 17.528 30.8659 17.528C30.9495 17.4906 31.0444 17.4908 31.1272 17.5279C31.1273 17.5279 31.1274 17.5279 31.1275 17.528L39.2422 21.1794ZM22.818 33.8553H39.1743C39.3487 33.8553 39.4917 33.9971 39.4919 34.174C39.4918 34.3491 39.3497 34.4914 39.1739 34.4914H22.818C22.6421 34.4914 22.5 34.349 22.5 34.1737C22.5 33.9974 22.6424 33.8553 22.818 33.8553Z" fill="#F6F6F6" stroke="#878787"/>
<path d="M28 22V33" stroke="#878787" stroke-linecap="round" stroke-linejoin="round"/>
<path d="M33 22V33" stroke="#878787" stroke-linecap="round" stroke-linejoin="round"/>
<path d="M38 22V33" stroke="#878787" stroke-linecap="round" stroke-linejoin="round"/>
<path d="M3 36.5C2.17157 36.5 1.5 35.8284 1.5 35L1.5 10C1.5 9.17157 2.17157 8.5 3 8.5L19.1715 8.5C19.6721 8.5 20.1396 8.74964 20.418 9.16555L24.2465 14.8843C24.4118 15.1312 24.5 15.4216 24.5 15.7188L24.5 35C24.5 35.8284 23.8284 36.5 23 36.5L3 36.5Z" fill="#F6F6F6" stroke="#878787"/>
<circle cx="8.5" cy="17.5" r="1.5" fill="#878787"/>
<rect x="11" y="17" width="8" height="1" rx="0.5" fill="#878787"/>
<circle cx="8.5" cy="22.5" r="1.5" fill="#878787"/>
<rect x="11" y="22" width="8" height="1" rx="0.5" fill="#878787"/>
<circle cx="8.5" cy="27.5" r="1.5" fill="#878787"/>
<rect x="11" y="27" width="8" height="1" rx="0.5" fill="#878787"/>
</svg>
