<svg width="54" height="40" viewBox="0 0 54 40" fill="none" xmlns="http://www.w3.org/2000/svg">
<path fill-rule="evenodd" clip-rule="evenodd" d="M4.03947 36.8843C3.46132 36.7687 3.03734 36.653 2.84462 36.4989C2.26647 35.9593 2.42065 34.2633 2.45919 33.3768C2.45919 33.1456 2.99879 33.1456 2.99879 32.9529C3.07588 31.6038 3.65404 29.1371 3.80821 27.7495C3.84676 27.2484 4.07802 26.5932 4.96452 26.0536C6.0052 25.3983 8.97305 23.6639 10.0908 23.2013C10.8231 22.893 10.669 22.8159 11.4398 22.7003C15.4098 22.1221 24.0821 21.4669 27.975 22.7003C31.1741 23.7024 33.9493 25.2056 36.8401 26.9786C41.9663 27.8651 46.129 28.5974 48.5958 29.2912C49.7907 29.5996 50.2918 30.1777 50.6772 30.9101C51.0626 31.6809 51.2553 32.1434 51.4481 32.606C51.872 32.6445 51.9877 33.0685 51.9877 33.6081C51.9877 34.4561 52.0648 35.0728 51.8335 35.9593C51.6408 36.576 51.1012 36.9614 50.4074 36.9614L49.174 36.9999C48.5573 36.8843 48.4031 36.9228 48.4417 36.1134C48.4417 35.8436 48.4802 35.5353 48.4802 35.2655C48.4802 32.3747 46.1676 30.0621 43.2768 30.0621C40.3861 30.0621 38.0734 32.3747 38.0734 35.2655C38.0734 35.6509 38.0734 36.0749 38.112 36.4218C38.1891 37.6937 38.6131 37.5781 37.3797 37.6166L16.4505 37.5781C15.564 37.4625 15.3327 37.5781 15.4484 36.3447C15.4869 35.9593 15.4869 35.6124 15.4869 35.1884C15.4869 32.2976 13.1743 29.985 10.2835 29.985C7.39276 29.985 5.08015 32.2976 5.08015 35.1884C5.08015 35.4582 5.08015 35.6895 5.08015 35.9593C5.08015 36.8843 5.31141 37.1156 4.03947 36.8843ZM20.7288 27.364C20.4205 24.7431 20.3819 23.9722 20.1121 23.3555C20.0736 23.2399 19.8423 23.0472 19.6496 23.0472C17.761 23.1243 15.6411 23.1243 13.8295 23.5482C13.1743 23.741 11.8638 25.2442 11.5169 25.7067C11.4013 25.8994 10.4377 26.9786 10.5919 27.2099C10.7075 27.364 10.8231 27.4797 11.0929 27.4797C13.9452 27.5568 17.1057 27.8651 19.958 27.9037C20.7674 27.9037 20.8059 28.0964 20.7288 27.364ZM31.521 28.2891C31.4825 28.1735 33.3326 26.5161 33.6024 26.6703C32.0606 25.5525 29.5553 24.3191 27.5125 23.6253C25.8551 23.0472 23.5811 23.0472 21.8081 23.0086C21.4997 23.0086 21.4997 23.1243 21.5382 23.3941C21.6539 24.2035 21.9622 26.015 22.1549 27.2099C22.232 27.788 22.3862 27.9422 22.9644 27.9422C25.3155 27.9422 31.5596 28.4047 31.521 28.2891Z" fill="#F6F6F6"/>
<path d="M4.03948 36.8843C3.46133 36.7687 3.03735 36.653 2.84463 36.4989C2.26647 35.9593 2.42065 34.2633 2.4592 33.3768C2.4592 33.1456 2.9988 33.1456 2.9988 32.9529C3.07589 31.6038 3.65404 29.1371 3.80822 27.7495C3.84676 27.2484 4.07802 26.5932 4.96452 26.0536C6.0052 25.3983 8.97305 23.6639 10.0908 23.2013C10.8231 22.893 10.669 22.8159 11.4398 22.7003C15.4098 22.1221 24.0821 21.4669 27.975 22.7003C31.1742 23.7024 33.9493 25.2056 36.8401 26.9786C41.9663 27.8651 46.129 28.5974 48.5958 29.2912C49.7907 29.5996 50.2918 30.1777 50.6772 30.9101C51.0626 31.6809 51.2553 32.1434 51.4481 32.606C51.872 32.6445 51.9877 33.0685 51.9877 33.6081C51.9877 34.4561 52.0648 35.0728 51.8335 35.9593C51.6408 36.576 51.1012 36.9614 50.4074 36.9614L49.174 36.9999M37.3797 37.6166L16.4505 37.5781" stroke="#878787" stroke-miterlimit="10"/>
<path d="M9.95964 31.7396C8.0388 31.7396 6.4511 33.3273 6.4511 35.2482C6.4511 37.169 8.0388 38.7567 9.95964 38.7567C11.8805 38.7567 13.4682 37.169 13.4682 35.2482C13.4682 33.3242 11.9159 31.7396 9.95964 31.7396ZM42.9915 31.7396C41.0706 31.7396 39.4829 33.3273 39.4829 35.2482C39.4829 37.169 41.0706 38.7567 42.9915 38.7567C44.9123 38.7567 46.5 37.169 46.5 35.2482C46.5 33.3273 44.9123 31.7396 42.9915 31.7396Z" fill="white" stroke="#878787" stroke-miterlimit="10"/>
</svg>
