<svg width="50" height="40" viewBox="0 0 50 40" fill="none" xmlns="http://www.w3.org/2000/svg">
<path d="M4.74971 26.6725V22.3179C4.74971 22.0059 4.95599 21.7279 5.26273 21.6292L9.49425 20.2641C11.088 17.6521 13.2788 15.1664 18.1201 14.3456C18.129 14.3441 18.1381 14.3427 18.147 14.3412C27.0879 13.1452 33.8004 15.0967 38.1099 20.1437C41.3177 20.1886 44.5923 20.8375 46.5182 22.0306C47.5157 22.649 48.1075 23.7253 48.163 24.8705L48.25 26.6726C48.664 26.6726 49 26.9977 49 27.3983V30.3013C49 30.7019 48.664 31.027 48.25 31.027H45.25C44.8338 31.027 44.5008 30.6961 44.5001 30.2933C44.5001 30.2896 44.4993 30.2861 44.4993 30.2817C44.488 27.4853 42.1427 25.2209 39.25 25.2209C36.3504 25.2209 34 27.4954 34 30.3012C34.0539 30.7418 33.6947 31.0269 33.25 31.0269H19.7499C19.3337 31.0269 19.0006 30.696 18.9999 30.2932C18.9999 30.2896 18.9992 30.286 18.9992 30.2816C18.988 27.4852 16.6427 25.2209 13.7499 25.2209C10.8504 25.2209 8.49994 27.4953 8.49994 30.3011C8.55391 30.7417 8.19469 31.0269 7.74997 31.0269H4.74998C4.33601 31.0269 4 30.7017 4 30.3011V27.3981C3.99974 26.9976 4.33574 26.6725 4.74971 26.6725ZM24.9998 19.7779C24.9998 19.9781 25.1678 20.1408 25.3749 20.1408H35.1557C35.5021 20.1408 35.6596 19.7285 35.4039 19.5028C32.8014 17.2072 29.4917 15.8943 25.4131 15.5453C25.1934 15.5264 24.9998 15.6977 24.9998 15.9111V19.7779ZM15.9893 19.7814C15.9916 19.9803 16.1589 20.1407 16.3643 20.1407H23.1248C23.3318 20.1407 23.4999 19.9781 23.4999 19.7778V15.8151C23.4999 15.6141 23.3341 15.4487 23.1271 15.4487C21.6317 15.4472 20.0491 15.5524 18.3669 15.7775C17.5658 15.9139 16.8519 16.1012 16.2024 16.3312C16.0531 16.3842 15.9579 16.5243 15.9593 16.6781L15.9893 19.7814ZM12.075 20.1407H14.1142C14.3227 20.1407 14.4915 19.9759 14.4893 19.7742L14.4698 17.8074C14.4668 17.5077 14.1135 17.3451 13.8638 17.5222C13.053 18.0955 12.3787 18.7784 11.778 19.5536C11.5905 19.7952 11.7631 20.1407 12.075 20.1407Z" fill="#F6F6F6"/>
<path d="M17.3784 31.0271C17.3784 29.0273 15.7294 27.3784 13.7297 27.3784C11.73 27.3784 10.0811 28.9922 10.0811 31.0271C10.0811 33.0268 11.73 34.6757 13.7297 34.6757C15.7294 34.6757 17.3784 33.0268 17.3784 31.0271Z" stroke="#878787" stroke-miterlimit="10"/>
<path d="M42.9189 31.0271C42.9189 29.0273 41.27 27.3784 39.2702 27.3784C37.2705 27.3784 35.6216 28.9922 35.6216 31.0271C35.6216 33.0268 37.2705 34.6757 39.2702 34.6757C41.27 34.6757 42.9189 33.0268 42.9189 31.0271Z" stroke="#878787" stroke-miterlimit="10"/>
<path d="M46.4663 31.027H48.25C48.664 31.027 49 30.7019 49 30.3013V27.3983C49 26.9977 48.664 26.6726 48.25 26.6726L48.163 24.8705C48.1075 23.7253 47.5157 22.649 46.5182 22.0306C44.5923 20.8375 41.3177 20.1886 38.1099 20.1437C33.8004 15.0967 27.0879 13.1452 18.147 14.3412C18.1381 14.3427 18.129 14.3441 18.1201 14.3456C13.2788 15.1664 11.088 17.6521 9.49425 20.2641L5.26273 21.6292C4.95599 21.7279 4.74971 22.0059 4.74971 22.3179V26.6725C4.33574 26.6725 3.99974 26.9976 4 27.3981V30.3011C4 30.7017 4.33601 31.0269 4.74997 31.0269H6.24997M32.0338 31.0269H21.6351" stroke="#878787"/>
<path d="M15.1463 32.9201H3.66625C2.41918 32.9201 1.40625 31.9071 1.40625 30.6601V29.8201C1.40625 28.573 2.41918 27.5601 3.66625 27.5601H15.1463C16.3933 27.5601 17.4062 28.573 17.4062 29.8201V30.6601C17.4062 31.9071 16.3933 32.9201 15.1463 32.9201Z" fill="#878787" stroke="white" stroke-width="2"/>
<path d="M15.1463 18.36H3.66625C2.41918 18.36 1.40625 17.3471 1.40625 16.1V15.26C1.40625 14.0129 2.41918 13 3.66625 13H15.1463C16.3933 13 17.4062 14.0129 17.4062 15.26V16.1C17.4062 17.3471 16.3933 18.36 15.1463 18.36Z" fill="#878787" stroke="white" stroke-width="2"/>
<path d="M8.46524 20.3643L8.46524 20.3643C8.93496 19.7353 9.87789 19.7353 10.3476 20.3643C10.7438 20.8948 11.1544 21.4986 11.4712 22.0572C11.6293 22.3358 11.7738 22.6204 11.8815 22.8902C11.9804 23.1382 12.0864 23.4652 12.0864 23.7998C12.0864 25.2785 10.8851 26.4798 9.40643 26.4798C7.9278 26.4798 6.72643 25.2785 6.72643 23.7998C6.72643 23.4653 6.83243 23.1382 6.93139 22.8902C7.03906 22.6204 7.18357 22.3359 7.3416 22.0572C7.65846 21.4986 8.06903 20.8948 8.46524 20.3643ZM8.74517 21.561C8.74527 21.5612 8.74537 21.5613 8.74548 21.5614L8.74517 21.561Z" fill="#878787" stroke="white" stroke-width="2"/>
<path d="M9.40613 20.5849C9.40235 20.5898 9.39855 20.5947 9.39472 20.5996C9.18916 20.8651 8.91986 21.2257 8.65029 21.623L9.40613 20.5849ZM9.40613 20.5849C9.40992 20.5898 9.41372 20.5947 9.41755 20.5996C9.62311 20.8651 9.89241 21.2257 10.162 21.623C10.5521 22.1981 10.8217 22.6699 10.991 23.0509C11.1641 23.4406 11.2061 23.6776 11.2061 23.8C11.2061 24.7915 10.3977 25.6 9.40613 25.6C8.41457 25.6 7.60613 24.7915 7.60613 23.8C7.60613 23.6776 7.64816 23.4406 7.82131 23.0509C7.99056 22.6699 8.26008 22.1982 8.65019 21.6231L9.40613 20.5849ZM16.2861 18.655V27.265C16.2861 27.9139 15.7601 28.44 15.1111 28.44H3.70113C3.05221 28.44 2.52613 27.9139 2.52613 27.265V18.655C2.52613 18.0061 3.05221 17.48 3.70113 17.48H15.1111C15.7601 17.48 16.2861 18.0061 16.2861 18.655Z" fill="#878787" stroke="white" stroke-width="2"/>
<path d="M15.1463 32.4201H3.66625C2.69532 32.4201 1.90625 31.631 1.90625 30.6601V29.8201C1.90625 28.8491 2.69532 28.0601 3.66625 28.0601H15.1463C16.1172 28.0601 16.9062 28.8491 16.9062 29.8201V30.6601C16.9062 31.631 16.1172 32.4201 15.1463 32.4201Z" fill="#F6F6F6" stroke="#878787"/>
<path d="M15.1463 17.86H3.66625C2.69532 17.86 1.90625 17.0709 1.90625 16.1V15.26C1.90625 14.2891 2.69532 13.5 3.66625 13.5H15.1463C16.1172 13.5 16.9062 14.2891 16.9062 15.26V16.1C16.9062 17.0709 16.1172 17.86 15.1463 17.86Z" fill="#F6F6F6" stroke="#878787"/>
<path d="M8.86585 20.6635L8.86585 20.6635C9.1356 20.3023 9.67725 20.3023 9.947 20.6635C10.3351 21.1831 10.7329 21.7689 11.0363 22.3039C11.1878 22.571 11.3207 22.8341 11.4171 23.0755C11.509 23.306 11.5864 23.5618 11.5864 23.7998C11.5864 25.0023 10.6089 25.9798 9.40643 25.9798C8.20394 25.9798 7.22643 25.0023 7.22643 23.7998C7.22643 23.5618 7.3038 23.306 7.39579 23.0755C7.49212 22.8341 7.625 22.5711 7.77652 22.3039C8.07995 21.7689 8.47774 21.1832 8.86585 20.6635Z" fill="#F6F6F6" stroke="#878787"/>
<path d="M9.45494 19.8451L9.45174 19.8412C9.44061 19.8279 9.42403 19.82 9.40613 19.82C9.38824 19.82 9.37166 19.8279 9.36053 19.8412L9.36055 19.8412L9.3573 19.8451C9.3577 19.8446 9.3556 19.8471 9.35015 19.8536L9.32929 19.8788C9.31153 19.9004 9.28642 19.9311 9.25499 19.97C9.19211 20.0479 9.10417 20.1582 8.99937 20.2935C8.78944 20.5647 8.51357 20.934 8.23651 21.3423C7.83677 21.9316 7.54992 22.4302 7.36437 22.8479C7.17689 23.2698 7.10613 23.5798 7.10613 23.8C7.10613 25.0677 8.13843 26.1 9.40613 26.1C10.6738 26.1 11.7061 25.0677 11.7061 23.8C11.7061 23.5798 11.6354 23.2698 11.4479 22.8479C11.2623 22.4302 10.9755 21.9315 10.5758 21.3423C10.2987 20.934 10.0228 20.5647 9.8129 20.2935C9.7081 20.1582 9.62016 20.0479 9.55728 19.97C9.52585 19.9311 9.50073 19.9004 9.48297 19.8788L9.46212 19.8536C9.45962 19.8506 9.45783 19.8485 9.45665 19.8471C9.45527 19.8454 9.45475 19.8448 9.45496 19.8451L9.45494 19.8451ZM15.7861 18.655V27.265C15.7861 27.6378 15.4839 27.94 15.1111 27.94H3.70113C3.32835 27.94 3.02613 27.6378 3.02613 27.265V18.655C3.02613 18.2822 3.32835 17.98 3.70113 17.98H15.1111C15.4839 17.98 15.7861 18.2822 15.7861 18.655Z" fill="#F6F6F6" stroke="#878787"/>
</svg>
