<svg width="57" height="41" viewBox="0 0 57 41" fill="none" xmlns="http://www.w3.org/2000/svg">
<path d="M1.54291 27.6812H25.0511C25.0511 27.6812 25.3816 22.3977 25.7115 22.3977H26.042C26.042 22.3977 24.7217 31.5845 26.042 37.1932C26.042 37.1932 17.7314 37.0734 17.2019 37.0482C17.3158 36.6396 17.3816 36.1564 17.3816 35.7109C17.3816 33.0691 15.2394 30.9 12.5977 30.9C9.95535 30.9 7.81321 33.0286 7.81321 35.6709C7.81321 35.8987 7.83434 36.113 7.86545 36.3331C5.24485 36.0877 3.01875 35.8318 2.53385 35.4678C2.53385 35.4678 -0.107294 34.1387 1.54291 27.6812ZM1.87283 32.9646C2.86319 32.9646 3.52244 29.032 3.52244 29.032C3.52244 28.3715 1.87283 28.3997 1.87283 28.3997C1.54291 29.8022 1.54291 32.9646 1.54291 32.9646H1.87283Z" fill="#F6F6F6"/>
<path d="M12.3417 39.7973C10.2549 39.6818 8.65697 37.8964 8.77255 35.8097C8.88812 33.7229 10.6734 32.125 12.7602 32.2406C14.8469 32.3561 16.4449 34.1415 16.3293 36.2282C16.2137 38.315 14.4284 39.9129 12.3417 39.7973Z" stroke="#878787" stroke-miterlimit="10"/>
<path d="M48.7782 39.7973C46.6914 39.6818 45.0935 37.8964 45.2091 35.8097C45.3246 33.7229 47.11 32.125 49.1967 32.2406C51.2835 32.3561 52.8814 34.1415 52.7658 36.2282C52.6503 38.315 50.8649 39.9129 48.7782 39.7973Z" stroke="#878787" stroke-miterlimit="10"/>
<path d="M27.0307 22.3924C29.3408 21.7326 33.2192 22.103 33.2192 22.103C33.4393 22.103 33.6756 22.1166 33.9101 22.1378C34.9886 22.235 35.9976 22.6757 36.9118 23.2561L42.7881 26.9867C47.4082 26.6562 53.6768 28.6616 53.6768 28.6616C56.3167 30.3112 55.9868 34.9342 55.9868 34.9342C55.9868 37.2443 54.3366 37.6605 54.3366 37.6605H53.439C53.5916 37.0734 53.6768 36.4347 53.6768 35.9152C53.6768 33.2734 51.5352 31.0015 48.8923 31.0015C46.25 31.0015 44.1078 33.338 44.1078 35.9803C44.1078 36.4999 44.1935 37.0728 44.3456 37.6599H26.3709C24.7207 24.7453 27.0307 22.3924 27.0307 22.3924ZM52.687 31.2029H54.9965C54.9965 31.2029 54.6665 29.3877 52.0266 29.2234L52.687 31.2029ZM29 27.6806L40.8086 27.9019C40.8086 27.9019 41.1385 27.2421 40.8086 26.9121C40.8086 26.9121 37.9831 24.8827 36.0224 23.738C35.0492 23.1698 33.9304 22.9974 32.8035 22.9939C31.5462 22.99 29.9291 22.9852 29.1985 22.9843C29.0881 22.9842 29 23.0737 29 23.1842C29 23.8756 29 26.2033 29 27.6806Z" fill="#F6F6F6"/>
<path d="M24.7842 27.6812H1.54293C-0.107272 34.1387 2.53387 35.4678 2.53387 35.4678C3.01878 35.8318 3.37942 35.7546 6.00002 36" stroke="#878787"/>
<path d="M53.439 37.6611H54.3366C54.3366 37.6611 55.9868 37.2449 55.9868 34.9348C55.9868 34.9348 56.3167 30.3118 53.6768 28.6622C53.6768 28.6622 47.4082 26.6568 42.7881 26.9873L36.9118 23.2567C35.9976 22.6763 34.9886 22.2356 33.9101 22.1384C33.6756 22.1172 33.4393 22.1036 33.2192 22.1036C33.2192 22.1036 29.3408 21.7332 27.0307 22.393C27.0307 22.393 26.0747 23.3668 25.832 27.5M43 37.6605H17.5" stroke="#878787"/>
</svg>
