<svg width="50" height="40" viewBox="0 0 50 40" fill="none" xmlns="http://www.w3.org/2000/svg">
<path d="M15.363 26.9995C14.5347 26.9875 13.8729 26.3063 13.8849 25.4779L14.0708 12.6701C14.0829 11.8417 14.7641 11.18 15.5925 11.192L41.4727 11.5677C42.3011 11.5797 42.9628 12.2609 42.9508 13.0893L42.7649 25.8971C42.7529 26.7255 42.0716 27.3872 41.2433 27.3752L15.363 26.9995Z" fill="#F6F6F6" stroke="#878787"/>
<rect x="22.1798" y="14.7568" width="12.6069" height="0.466922" rx="0.233461" transform="rotate(0.831592 22.1798 14.7568)" fill="#C4C4C4" stroke="#878787" stroke-width="0.466922"/>
<rect x="16.772" y="19.6146" width="2.73538" height="2.73538" transform="rotate(0.831592 16.772 19.6146)" fill="#C4C4C4" stroke="#878787"/>
<rect x="21.4404" y="19.6823" width="2.73538" height="2.73538" transform="rotate(0.831592 21.4404 19.6823)" fill="#C4C4C4" stroke="#878787"/>
<rect x="26.1094" y="19.7501" width="2.73538" height="2.73538" transform="rotate(0.831592 26.1094 19.7501)" fill="#C4C4C4" stroke="#878787"/>
<rect x="37.314" y="19.9127" width="2.73538" height="2.73538" rx="0.5" transform="rotate(0.831592 37.314 19.9127)" fill="#C4C4C4" stroke="#878787"/>
<rect x="32.6455" y="19.8451" width="2.73538" height="2.73538" transform="rotate(0.831592 32.6455 19.8451)" fill="#C4C4C4" stroke="#878787"/>
<path d="M8 30.5C7.17157 30.5 6.5 29.8284 6.5 29L6.5 15C6.5 14.1716 7.17157 13.5 8 13.5L36 13.5C36.8284 13.5 37.5 14.1716 37.5 15L37.5 29C37.5 29.8284 36.8284 30.5 36 30.5L8 30.5Z" fill="#F6F6F6" stroke="#878787"/>
<rect x="15.25" y="17.25" width="13.5" height="0.5" rx="0.25" fill="#C4C4C4" stroke="#878787" stroke-width="0.5"/>
<rect x="9.5" y="22.5" width="3" height="3" rx="0.5" fill="#C4C4C4" stroke="#878787"/>
<rect x="14.5" y="22.5" width="3" height="3" rx="0.5" fill="#C4C4C4" stroke="#878787"/>
<rect x="19.5" y="22.5" width="3" height="3" rx="0.5" fill="#C4C4C4" stroke="#878787"/>
<rect x="31.5" y="22.5" width="3" height="3" rx="0.5" fill="#C4C4C4" stroke="#878787"/>
<rect x="26.5" y="22.5" width="3" height="3" rx="0.5" fill="#C4C4C4" stroke="#878787"/>
</svg>
