<svg width="53" height="40" viewBox="0 0 53 40" fill="none" xmlns="http://www.w3.org/2000/svg">
<path fill-rule="evenodd" clip-rule="evenodd" d="M3.62834 32.8843C3.05019 32.7687 2.62621 32.653 2.43349 32.4989C1.85534 31.9593 2.00951 30.2633 2.04806 29.3768C2.04806 29.1456 2.58766 29.1456 2.58766 28.9529C2.66475 27.6038 3.2429 25.1371 3.39708 23.7495C3.43562 23.2484 3.66689 22.5932 4.55339 22.0536C5.59406 21.3983 8.56191 19.6639 9.67968 19.2013C10.412 18.893 10.2578 18.8159 11.0287 18.7003C14.9987 18.1221 23.671 17.4669 27.5639 18.7003C30.763 19.7024 33.5382 21.2056 36.4289 22.9786C41.5552 23.8651 45.7179 24.5974 48.1847 25.2912C49.3796 25.5996 49.8806 26.1777 50.2661 26.9101C50.6515 27.6809 50.8442 28.1434 51.0369 28.606C51.4609 28.6445 51.5765 29.0685 51.5765 29.6081C51.5765 30.4561 51.6536 31.0728 51.4224 31.9593C51.2296 32.576 50.69 32.9614 49.9962 32.9614L48.7629 32.9999C48.1462 32.8843 47.992 32.9228 48.0305 32.1134C48.0305 31.8436 48.0691 31.5353 48.0691 31.2655C48.0691 28.3747 45.7565 26.0621 42.8657 26.0621C39.9749 26.0621 37.6623 28.3747 37.6623 31.2655C37.6623 31.6509 37.6623 32.0749 37.7009 32.4218C37.7779 33.6937 38.2019 33.5781 36.9685 33.6166L16.0394 33.5781C15.1529 33.4625 14.9216 33.5781 15.0372 32.3447C15.0758 31.9593 15.0758 31.6124 15.0758 31.1884C15.0758 28.2976 12.7632 25.985 9.87239 25.985C6.98162 25.985 4.66901 28.2976 4.66901 31.1884C4.66901 31.4582 4.66901 31.6895 4.66901 31.9593C4.66901 32.8843 4.90028 33.1156 3.62834 32.8843ZM20.3177 23.364C20.0094 20.7431 19.9708 19.9722 19.701 19.3555C19.6625 19.2399 19.4312 19.0472 19.2385 19.0472C17.3498 19.1243 15.23 19.1243 13.4184 19.5482C12.7632 19.741 11.4527 21.2442 11.1058 21.7067C10.9902 21.8994 10.0266 22.9786 10.1807 23.2099C10.2964 23.364 10.412 23.4797 10.6818 23.4797C13.534 23.5568 16.6946 23.8651 19.5468 23.9037C20.3562 23.9037 20.3948 24.0964 20.3177 23.364ZM31.1099 24.2891C31.0714 24.1735 32.9214 22.5161 33.1912 22.6703C31.6495 21.5525 29.1442 20.3191 27.1014 19.6253C25.444 19.0472 23.1699 19.0472 21.3969 19.0086C21.0886 19.0086 21.0886 19.1243 21.1271 19.3941C21.2427 20.2035 21.5511 22.015 21.7438 23.2099C21.8209 23.788 21.9751 23.9422 22.5532 23.9422C24.9044 23.9422 31.1484 24.4047 31.1099 24.2891Z" fill="#F6F6F6"/>
<path d="M36.9688 33.6167L16.0396 33.5781" stroke="#878787" stroke-miterlimit="10"/>
<path d="M3.62835 32.8843C3.0502 32.7687 2.62621 32.653 2.43349 32.4989C1.85534 31.9593 2.00952 30.2633 2.04807 29.3768C2.04807 29.1456 2.58767 29.1456 2.58767 28.9529C2.66476 27.6038 3.24291 25.1371 3.39709 23.7495C3.43563 23.2484 3.66689 22.5932 4.55339 22.0536C5.59407 21.3983 8.56192 19.6639 9.67968 19.2013C10.412 18.893 10.2578 18.8159 11.0287 18.7003C14.9987 18.1221 23.671 17.4669 27.5639 18.7003C30.763 19.7024 33.5382 21.2056 36.4289 22.9786C41.5552 23.8651 45.7179 24.5974 48.1847 25.2912C49.3796 25.5996 49.8806 26.1777 50.2661 26.9101C50.6515 27.6809 50.8442 28.1434 51.0369 28.606C51.4609 28.6445 51.5765 29.0685 51.5765 29.6081C51.5765 30.4561 51.6536 31.0728 51.4224 31.9593C51.2296 32.576 50.69 32.9614 49.9962 32.9614L48.7629 32.9999" stroke="#878787" stroke-miterlimit="10"/>
<path d="M9.99245 27.5C8.0716 27.5 6.48391 29.0877 6.48391 31.0085C6.48391 32.9294 8.0716 34.5171 9.99245 34.5171C11.9133 34.5171 13.501 32.9294 13.501 31.0085C13.501 29.0846 11.9487 27.5 9.99245 27.5Z" fill="white" stroke="#878787" stroke-miterlimit="10"/>
<path d="M43.0242 27.5C41.1033 27.5 39.5157 29.0877 39.5157 31.0085C39.5157 32.9294 41.1033 34.5171 43.0242 34.5171C44.945 34.5171 46.5327 32.9294 46.5327 31.0085C46.5327 29.0877 44.945 27.5 43.0242 27.5Z" fill="white" stroke="#878787" stroke-miterlimit="10"/>
</svg>
