<svg width="54" height="40" viewBox="0 0 54 40" fill="none" xmlns="http://www.w3.org/2000/svg">
<path fill-rule="evenodd" clip-rule="evenodd" d="M6.22182 36.1899C5.12302 35.9817 5.01838 33.3798 5.01838 31.8186C5.01838 30.9339 4.80908 30.6737 5.80323 30.5176C6.11718 30.4656 6.43112 30.5176 6.43112 30.4135C6.53577 29.0605 6.64042 26.5106 7.2683 23.5444C7.84386 20.8904 10.2508 18.2884 11.2972 16.5711C11.8728 15.6344 11.1926 15.1661 11.6112 15.1661C15.9017 14.8018 22.3376 15.1661 26.9421 15.062C28.8781 15.0099 30.7617 15.2701 32.1222 15.7905C32.9593 16.1028 33.4303 16.2589 34.3198 16.7793C38.1394 19.1731 42.3776 22.4515 44.2613 23.7525C45.2031 24.377 47.4007 26.6147 47.8717 27.5514C48.6042 29.1126 48.0286 30.7258 48.0286 30.8299C48.5519 30.8819 48.7088 31.3502 48.7088 32.0268C48.7088 33.0675 48.8135 33.8481 48.4995 34.8889C48.2902 35.6695 49.546 36.0858 48.7088 36.1378L47.1914 36.1899C46.4589 36.0338 46.2496 36.0858 46.3019 35.0971C46.3019 34.7848 46.3543 34.4206 46.3543 34.0563C46.3543 30.5697 43.4764 27.7075 39.9707 27.7075C36.465 27.7075 33.5872 30.6217 33.5872 34.1083C33.5872 34.5767 33.5872 35.0971 33.6396 35.5134C33.7442 37.0746 34.2151 36.9184 32.75 36.9705L21.3958 36.9184C20.297 36.7623 19.983 36.9184 20.14 35.4613C20.1923 34.993 20.1923 34.5246 20.1923 34.0563C20.1923 30.5697 17.3145 27.7075 13.8088 27.7075C10.3031 27.7075 7.42527 30.5697 7.42527 34.0563C7.42527 34.3685 7.42527 34.6807 7.42527 34.993C7.4776 36.2419 7.73922 36.4501 6.22182 36.1899ZM34.686 23.8566C34.686 23.8566 35.5 23 37.2499 21.9312C35.3662 20.2139 33.7965 17.9241 31.285 17.0395C29.2443 16.363 21.9713 16.5711 19.7737 16.5191C19.4074 16.5191 19.1982 16.8834 19.0412 17.1956C18.2563 18.8088 17.5238 21.1506 17.6808 22.6597C17.7331 23.3883 18.0994 23.4923 18.8319 23.4923C21.6574 23.4923 34.686 23.8566 34.686 23.8566ZM15.2739 16.467C15.7448 16.5191 16.5296 16.415 16.7913 16.467C17.3668 16.5711 17.1052 16.8313 16.8959 17.5078C16.2157 19.6414 15.7448 21.6189 15.1169 22.5036C14.489 23.2842 14.332 23.076 12.553 23.1801C12.2391 23.1801 10.7217 23.1801 10.2508 23.1281C9.30894 23.024 9.20429 22.8679 9.51823 21.8791C10.2508 19.9016 12.8146 16.467 15.2739 16.467Z" fill="#F6F6F6"/>
<path d="M6.49624 36.1899C5.39744 35.9817 5.29279 33.3798 5.29279 31.8186C5.29279 30.9339 5.08349 30.6737 6.07765 30.5176C6.39159 30.4656 6.70553 30.5176 6.70553 30.4135C6.81018 29.0605 6.91483 26.5106 7.54272 23.5444C8.11828 20.8904 10.5252 18.2884 11.5717 16.5711C12.1472 15.6344 11.467 15.1661 11.8856 15.1661C16.1762 14.8018 22.612 15.1661 27.2165 15.062C29.1525 15.0099 31.0362 15.2701 32.3966 15.7905C33.2338 16.1028 33.7047 16.2589 34.5942 16.7793C38.4138 19.1731 42.6521 22.4515 44.5357 23.7525C45.4776 24.377 47.6752 26.6147 48.1461 27.5514C48.8786 29.1126 48.303 30.7258 48.303 30.8299C48.8263 30.8819 48.9833 31.3502 48.9833 32.0268C48.9833 33.0675 49.0879 33.8481 48.774 34.8889" stroke="#878787"/>
<path d="M8.66472 33.8917C8.66472 30.9069 11.0888 28.5 14.0832 28.5C17.0776 28.5 19.5016 30.9069 19.5016 33.8917C19.5016 36.8764 17.0776 39.2834 14.0832 39.2834C11.0888 39.2834 8.66472 36.8764 8.66472 33.8917ZM34.8267 33.8917C34.8267 30.9069 37.2507 28.5 40.2451 28.5C43.2395 28.5 45.6636 30.9069 45.6636 33.8917C45.6636 36.8764 43.2395 39.2834 40.2451 39.2834C37.2507 39.2834 34.8267 36.8764 34.8267 33.8917Z" stroke="#878787"/>
<path d="M33.0244 36.7538L21.6701 36.7018" stroke="#878787"/>
</svg>
