<svg width="54" height="40" viewBox="0 0 54 40" fill="none" xmlns="http://www.w3.org/2000/svg">
<path fill-rule="evenodd" clip-rule="evenodd" d="M45.9527 30.3282H47.0066L47.0133 26.7605C47.0133 24.653 45.3048 22.9444 43.1972 22.9444H43.1939H36.4109L30.3696 14H14.5382L7 22.5417H7.05034V30.3282H8.96003L8.96242 30.3045C9.26018 27.8833 11.324 26.0087 13.8256 26.0087H13.8333L13.8364 26.0087C16.3255 26.0384 18.3749 27.8965 18.7066 30.3282H36.1893L36.1917 30.3045C36.4895 27.8833 38.5533 26.0086 41.055 26.0086L41.0794 26.0087L41.0827 26.0087C43.5711 26.0399 45.6195 27.8972 45.9527 30.3282ZM19.9652 22.9445H7.8055L15.0382 14.7048H19.9652V22.9445ZM20.9184 22.8941V14.7048H29.9601L35.4375 22.8941H20.9184Z" fill="#F6F6F6"/>
<path d="M44.9512 31.2778C44.9512 29.2378 43.269 27.5557 41.229 27.5557C39.189 27.5557 37.5068 29.202 37.5068 31.2778C37.5068 33.3179 39.189 35 41.229 35C43.269 35 44.9512 33.3179 44.9512 31.2778Z" stroke="#878787" stroke-miterlimit="10"/>
<path d="M17.2358 31.2778C17.2358 29.2378 15.5537 27.5557 13.5137 27.5557C11.4736 27.5557 9.7915 29.202 9.7915 31.2778C9.7915 33.3179 11.4736 35 13.5137 35C15.5537 35 17.2358 33.3179 17.2358 31.2778Z" stroke="#878787" stroke-miterlimit="10"/>
<path d="M45.9527 30.3282H47.0066L47.0133 26.7605C47.0133 24.653 45.3048 22.9444 43.1972 22.9444H36.4109L30.3696 14H14.5382L7 22.5417H7.05034V30.3282M34.6555 30.3282H20.8529" stroke="#878787"/>
</svg>
