<svg width="52" height="41" viewBox="0 0 52 41" fill="none" xmlns="http://www.w3.org/2000/svg">
<path d="M38.7602 32C40.8211 32 42.5205 33.6994 42.5205 35.7603C42.5205 37.8212 40.8211 39.5206 38.7602 39.5206C36.6993 39.5206 34.9999 37.8212 34.9999 35.7603C34.9999 33.6994 36.6993 32 38.7602 32Z" stroke="#878787" stroke-miterlimit="10"/>
<path d="M11.7602 32C13.8211 32 15.5205 33.6994 15.5205 35.7603C15.5205 37.8212 13.8211 39.5206 11.7602 39.5206C9.69926 39.5206 7.99989 37.8212 7.99989 35.7603C7.99989 33.6994 9.69926 32 11.7602 32Z" stroke="#878787" stroke-miterlimit="10"/>
<path d="M1.10413 31.0402L1.59525 30.8298C1.59525 30.8298 -0.0184631 27.6023 3.91059 17.3587C3.91059 17.3587 3.91059 16.9377 6.43642 17.0079C9.0324 17.1482 39.0616 16.6571 41.4471 18.6918C41.4471 18.6918 48.9544 26.4096 49.4456 27.2515C49.9367 28.0934 49.8665 30.058 49.8665 30.058C49.8665 30.058 51.1294 30.3386 50.9891 32.4435C50.7786 34.5483 47.3407 35.1798 47.3407 35.1798L43.4116 35.3903C43.4116 35.3903 43.3415 31.3209 38.7108 31.2507C34.5713 31.1104 33.9398 35.8112 33.9398 35.8112H16.3994C16.3994 35.8112 16.3994 31.1104 11.6985 31.0402C6.99771 30.9701 6.92755 35.1096 6.92755 35.1096L1.80574 34.5483C1.66542 34.6185 0.683155 34.5483 1.10413 31.0402ZM49.5859 29.9878C49.7964 29.1459 49.5157 27.8128 49.5157 27.8128C48.1826 28.0934 48.2528 28.7249 48.2528 28.7249L48.1826 30.058H49.5859V29.9878ZM1.45493 27.3918C1.45493 27.3918 1.31461 28.1636 1.38477 29.1459H2.36703V28.5144L1.45493 27.3918ZM16.2591 20.1652C16.2591 19.5337 15.7679 19.0426 15.1365 19.0426H6.57674C5.94528 19.0426 5.31382 19.5337 5.1735 20.1652L4.40172 23.5329C4.2614 24.1644 4.68237 24.6555 5.31383 24.6555H15.1365C15.7679 24.6555 16.2591 24.1644 16.2591 23.5329V20.1652ZM46.2181 25.0765C46.2181 25.0765 41.5173 19.3232 40.0439 19.1127L34.1503 18.9724L34.2906 24.0241L40.8858 24.3047C40.8858 24.3047 42.2891 24.3749 42.71 25.3571C43.0608 26.3394 44.3238 26.1991 44.3939 26.2692H46.2181C46.2181 26.1991 46.9899 26.2692 46.2181 25.0765ZM34.6414 26.7604C34.6414 26.9007 34.7818 26.9709 34.8519 26.9709C34.9922 26.9709 35.0624 26.8305 35.0624 26.7604C35.0624 26.62 34.9221 26.5499 34.8519 26.5499C34.7818 26.4797 34.6414 26.62 34.6414 26.7604ZM34.1503 30.2685H46.4988C46.7093 30.2685 46.8496 30.1281 46.8496 29.9176C46.8496 29.7072 46.7093 29.5668 46.4988 29.5668H34.1503V30.2685ZM33.8697 33.3556H34.01V32.654H33.8697V33.3556ZM34.1503 27.8128V26.5499C34.1503 26.3394 34.01 26.1991 33.7995 26.1991H33.5188V28.0934H33.7995C34.01 28.0934 34.1503 27.9531 34.1503 27.8128ZM33.5188 33.3556H33.6592V32.654H33.5188V33.3556ZM33.2382 33.3556H33.3785V32.654H33.2382V33.3556ZM32.8874 33.3556H33.0277V32.654H32.8874V33.3556ZM32.5366 33.3556H32.6769V32.654H32.5366V33.3556ZM32.1858 33.3556H32.3261V32.654H32.1858V33.3556ZM31.9051 33.3556H32.0454V32.654H31.9051V33.3556ZM31.6946 30.4088C31.6946 30.6894 31.9051 30.8999 32.1858 30.8999H33.0979C33.3785 30.8999 33.589 30.6894 33.589 30.4088V29.637C33.589 29.3564 33.3785 29.1459 33.0979 29.1459H32.1858C31.9051 29.1459 31.6946 29.3564 31.6946 29.637V30.4088ZM31.1333 20.1652C31.1333 19.5337 30.6422 19.0426 30.0108 19.0426H18.7849C18.1534 19.0426 17.6623 19.5337 17.6623 20.1652V23.4628C17.6623 24.0942 18.1534 24.5854 18.7849 24.5854H30.0108C30.6422 24.5854 31.1333 24.0942 31.1333 23.4628V20.1652ZM3.3493 30.2685H31.1333V29.4967H3.3493C3.13881 29.4967 2.99849 29.637 2.99849 29.8475C2.92833 30.058 3.13881 30.2685 3.3493 30.2685ZM1.8759 30.8999H2.4372V29.2862H1.45493C1.52509 29.8475 1.59526 30.4088 1.8759 30.8999Z" fill="#F6F6F6"/>
<path d="M44.4116 35.3903L47.3407 35.1798C47.3407 35.1798 50.7786 34.5483 50.9891 32.4435C51.1294 30.3386 49.8665 30.058 49.8665 30.058C49.8665 30.058 49.9367 28.0934 49.4456 27.2515C48.9544 26.4096 41.4471 18.6918 41.4471 18.6918C39.0616 16.6571 9.0324 17.1482 6.43642 17.0079C3.91059 16.9377 3.91059 17.3587 3.91059 17.3587C-0.0184622 27.6023 1.59525 30.8298 1.59525 30.8298L1.10413 31.0402C0.683156 34.5483 1.66542 34.6185 1.80574 34.5483L5.92755 35.1096M32.9398 35.8112H17.3994M1.45493 27.3918C1.45493 27.3918 1.31461 28.1636 1.38477 29.1459M1.8759 30.8999C1.59526 30.4088 1.52509 29.8475 1.45493 29.2862" stroke="#878787"/>
</svg>
