<svg width="54" height="41" viewBox="0 0 54 41" fill="none" xmlns="http://www.w3.org/2000/svg">
<path fill-rule="evenodd" clip-rule="evenodd" d="M2.09046 28.0731C1.93969 27.4599 2.03016 26.4788 2 25.8349C1.96984 25.0377 2.30154 25.3137 2.60308 25.0991C2.66338 23.9953 2.60307 22.125 2.72369 20.9906C2.87446 19.6722 3.23631 19.4882 4.68369 19.4882L21.8714 19.5189C22.2935 19.5189 22.4745 19.4575 22.5649 19.3656C22.8665 19.1509 23.0474 16.6368 23.3791 15.1651C23.5902 14.3986 23.5902 14 24.4345 14H32.1237C33.2695 14 34.4154 14.5519 35.3803 15.3491L39.7828 18.967C43.0695 19.2736 46.5071 19.8255 49.1606 20.5307C50.0049 20.7453 50.3366 21.1439 50.3366 22.0943L50.3065 25.2524C50.4271 25.2524 50.5778 25.283 50.6985 25.3443C50.9698 25.4363 50.9698 25.5283 51 25.7736C51 25.9882 51 26.2335 51 26.3561C51 26.8467 50.9397 28.2877 50.5778 28.5637C50.3969 28.6863 50.1255 28.809 49.8542 28.809L49.0702 28.8396H47.9846C46.5674 26.5401 44.0646 24.9764 41.2 24.9764C38.3052 24.9764 35.7723 26.5401 34.3852 28.8703H30.1034V29.2075L33.6314 30.4646L33.3298 31.3231L29.6511 30.0047H25.52L20.4843 31.8137L20.1828 30.9552L25.2486 29.1462V28.8703H19.3083C17.9212 26.5094 15.3582 24.9151 12.4332 24.9151C9.50831 24.9151 6.94523 26.5094 5.55816 28.9009H5.16615C4.47261 28.9316 2.30154 28.809 2.09046 28.0731ZM35.9532 19.6108C36.1184 19.6108 37.3615 18.5755 37.4308 18.5377C37.5 18.5 34.7772 16.1156 34.7772 16.1156C34.4154 15.7783 34.144 15.625 33.6917 15.4104C33.0283 15.1038 32.4855 14.9198 31.8825 14.9198H28.0529C27.7815 14.9198 27.7815 15.0118 27.8117 15.2264C27.9323 15.9929 28.1434 18.0472 28.3243 19.0283C28.4148 19.4882 28.5052 19.6108 28.9877 19.6108H35.9532ZM27.1182 19.059C26.9071 17.1887 26.7865 15.809 26.696 15.2877C26.6658 15.0425 26.6357 14.9198 26.3643 14.9198H25.1883C25.0978 14.9198 25.0375 15.1344 25.0375 15.4717L24.8566 18.875C24.8265 19.7028 24.8868 19.6108 25.3089 19.6108H26.5452C27.1785 19.6108 27.2086 19.6415 27.1182 19.059Z" fill="#F6F6F6"/>
<path d="M33.9151 32.8986C33.9151 28.8299 37.1451 25.5 41.1998 25.5C45.2242 25.5 48.4844 28.8299 48.4844 32.9292C48.4844 36.9978 45.2239 40.329 41.1978 40.2972C37.1771 40.2961 33.9151 37.0002 33.9151 32.8986ZM5.11822 32.8986C5.11822 28.8299 8.34821 25.5 12.4028 25.5C16.4532 25.5 19.7187 28.8261 19.6875 32.9006C19.6864 36.9684 16.4568 40.2972 12.4028 40.2972C8.38123 40.2972 5.11822 37.0008 5.11822 32.8986Z" stroke="#878787"/>
<path d="M32.1875 30.7415L29.651 29.8325H25.5199L21.3574 31.3278" stroke="#878787"/>
<path d="M49.8541 28.809C50.1255 28.809 50.3969 28.6863 50.5778 28.5637C50.9397 28.2877 51 26.8467 51 26.3561V25.7736C50.9698 25.5283 50.9698 25.4363 50.6984 25.3443C50.5778 25.283 50.427 25.2524 50.3064 25.2524L50.3366 22.0943C50.3366 21.1439 50.0049 20.7453 49.1606 20.5307C46.507 19.8255 43.0695 19.2736 39.7827 18.967L35.3803 15.3491C34.4153 14.5519 33.2695 14 32.1237 14H24.4344C23.5901 14 23.5901 14.3986 23.379 15.1651C23.0473 16.6368 22.8664 19.1509 22.5649 19.3656C22.4744 19.4575 22.2935 19.5189 21.8713 19.5189L4.68365 19.4882C3.23627 19.4882 2.87442 19.6722 2.72365 20.9906C2.60303 22.125 2.66334 23.9953 2.60304 25.0991C2.3015 25.3137 1.96981 25.0377 1.99996 25.8349C2.03012 26.4788 1.93965 27.4599 2.09042 28.0731C2.23194 28.5665 3.25455 28.7842 4.12216 28.8649" stroke="#878787"/>
</svg>
