<svg width="41" height="40" viewBox="0 0 41 40" fill="none" xmlns="http://www.w3.org/2000/svg">
<path d="M34.7436 29.5035V33.0396H22.2583V29.5035C22.2583 26.0605 25.0594 23.2588 28.501 23.2588C31.9425 23.2588 34.7436 26.0605 34.7436 29.5035Z" fill="#F6F6F6" stroke="#878787"/>
<path d="M20.4469 28.7614C20.4469 28.3641 20.1248 28.0417 19.7273 28.0417H17.7197C17.3222 28.0417 17 28.364 17 28.7614C17 29.1588 17.3222 29.481 17.7197 29.481H19.7273C20.1248 29.481 20.4469 29.1588 20.4469 28.7614Z" fill="#878787"/>
<path d="M21.9681 23.2453C22.1085 23.3858 22.2927 23.4561 22.4769 23.4561C22.661 23.4561 22.8452 23.3858 22.9857 23.2454C23.2668 22.9644 23.2668 22.5087 22.9857 22.2277L21.9819 21.2237C21.7011 20.9427 21.2454 20.9427 20.9642 21.2236C20.6832 21.5047 20.6832 21.9603 20.9642 22.2413L21.9681 23.2453Z" fill="#878787"/>
<path d="M34.5234 23.4562C34.7075 23.4562 34.8918 23.3859 35.0322 23.2454L36.036 22.2413C36.3171 21.9603 36.3171 21.5047 36.036 21.2237C35.755 20.9426 35.2993 20.9427 35.0183 21.2238L34.0145 22.2278C33.7334 22.5088 33.7334 22.9645 34.0145 23.2454C34.1551 23.3859 34.3392 23.4562 34.5234 23.4562Z" fill="#878787"/>
<path d="M39.2801 28.0417H37.2724C36.875 28.0417 36.5527 28.364 36.5527 28.7614C36.5527 29.1588 36.8749 29.481 37.2724 29.481H39.2801C39.6776 29.481 39.9998 29.1589 39.9998 28.7614C39.9998 28.364 39.6776 28.0417 39.2801 28.0417Z" fill="#878787"/>
<path d="M28.4999 21.4476C28.8972 21.4476 29.2195 21.1255 29.2195 20.728V18.7197C29.2195 18.3222 28.8973 18 28.4999 18C28.1025 18 27.7803 18.3222 27.7803 18.7197V20.7281C27.7803 21.1255 28.1025 21.4476 28.4999 21.4476Z" fill="#878787"/>
<path d="M38.0799 33.5588C38.0799 33.836 37.8552 34.0607 37.578 34.0607H19.5097C19.2325 34.0607 19.0078 33.836 19.0078 33.5588C19.0078 33.2816 19.2325 33.0569 19.5097 33.0569H37.578C37.8552 33.0569 38.0799 33.2816 38.0799 33.5588Z" fill="#878787"/>
<path d="M3 36.5C2.17157 36.5 1.5 35.8284 1.5 35L1.5 10C1.5 9.17157 2.17157 8.5 3 8.5L19.1715 8.5C19.6721 8.5 20.1396 8.74964 20.418 9.16555L24.2465 14.8843C24.4118 15.1312 24.5 15.4216 24.5 15.7188L24.5 35C24.5 35.8284 23.8284 36.5 23 36.5L3 36.5Z" fill="#F6F6F6" stroke="#878787"/>
<circle cx="8.5" cy="17.5" r="1.5" fill="#878787"/>
<rect x="11" y="17" width="8" height="1" rx="0.5" fill="#878787"/>
<circle cx="8.5" cy="22.5" r="1.5" fill="#878787"/>
<rect x="11" y="22" width="8" height="1" rx="0.5" fill="#878787"/>
<circle cx="8.5" cy="27.5" r="1.5" fill="#878787"/>
<rect x="11" y="27" width="8" height="1" rx="0.5" fill="#878787"/>
</svg>
