<svg width="54" height="40" viewBox="0 0 54 40" fill="none" xmlns="http://www.w3.org/2000/svg">
<path fill-rule="evenodd" clip-rule="evenodd" d="M5.53024 36.3033C4.83829 36.23 4.07351 36.1934 3.4544 36.0835C2.90812 36.0103 2.50752 35.8638 2.32543 35.7173C1.77916 35.2046 1.81557 33.5933 1.85199 32.751C1.85199 32.5312 2.36185 32.5312 2.36185 32.3481C2.43468 31.0664 2.50752 29.9677 2.65319 28.6493C2.72603 28.1 3.16305 27.6605 3.855 27.4408C6.00368 26.7816 9.17207 26.3422 10.1918 26.0492C10.9566 25.8295 11.2843 25.5731 11.6485 25.3168C13.1052 24.4012 14.8897 23.4124 15.9095 22.973C16.8563 22.5335 17.5847 22.0208 18.8593 22.0208C22.2462 22.0208 26.143 21.8011 29.3114 22.7899C32.3341 23.742 35.1019 25.4999 37.9425 26.8549C41.4023 27.2211 45.2626 27.9169 48.7952 28.7958C49.9242 29.0888 50.434 29.6015 50.7618 30.2973C51.126 31.0297 51.3081 31.7256 51.4901 32.165C51.7815 32.2016 51.7815 32.2749 51.8543 32.4214C52 32.5679 52 33.1904 52 33.4102C52 33.7764 51.9636 34.2891 51.9272 34.6187C51.8543 35.3145 51.7451 35.7173 51.3809 36.0103C51.1624 36.1568 50.8346 36.2666 50.5433 36.3033L49.5964 36.3399C48.5403 36.1934 48.6131 36.3765 48.6859 35.2046C48.6859 35.0215 48.6859 34.8384 48.6859 34.6919C48.6859 31.9453 46.5008 29.748 43.7695 29.748C41.0381 29.748 38.853 31.9453 38.853 34.6919C38.853 35.168 38.8894 35.6075 38.9622 36.0103C39.1808 37.0723 39.29 36.8526 38.1975 36.9258L17.1841 36.8892C16.128 36.7427 16.2372 36.9258 16.3465 35.6807C16.3829 35.3511 16.3829 34.9849 16.3829 34.6187C16.3829 31.872 14.1978 29.6747 11.4664 29.6747C8.73505 29.6747 6.54995 31.872 6.54995 34.6187C6.54995 34.875 6.54995 35.1314 6.54995 35.3511C6.58637 36.4864 6.40428 36.4131 5.53024 36.3033ZM21.445 27.1112C21.1901 24.9505 21.0444 24.1082 20.9716 23.5223C20.9352 23.2659 20.8623 23.1195 20.5346 23.1195H19.7698C19.2235 23.1195 16.6378 24.8407 15.5817 25.9393C14.9626 26.5619 14.7441 27.4408 16.0551 27.5141L20.7167 27.7338C21.4815 27.7338 21.5179 27.807 21.445 27.1112ZM32.6983 28.1366C32.7879 28.1366 34.41 26.6351 34.41 26.6351C34.41 26.6351 30.841 24.4012 28.9108 23.742C28.2188 23.5223 26.3979 23.2293 25.1233 23.1927L22.5012 23.0828C22.2098 23.0828 22.2098 23.1927 22.2462 23.449C22.3919 24.328 22.6104 25.9393 22.8289 27.0746C22.9382 27.6239 23.0474 27.7338 23.5937 27.7704L32.6983 28.1366Z" fill="#F6F6F6"/>
<path d="M5.53024 36.3033C4.8383 36.23 4.07351 36.1934 3.4544 36.0835C2.90812 36.0103 2.50752 35.8638 2.32543 35.7173C1.77916 35.2046 1.81558 33.5933 1.85199 32.751C1.85199 32.5312 2.36185 32.5312 2.36185 32.3481C2.43468 31.0664 2.50752 29.9677 2.65319 28.6493C2.72603 28.1 3.16305 27.6605 3.855 27.4408C6.00368 26.7816 9.17207 26.3422 10.1918 26.0492C10.9566 25.8295 11.2843 25.5731 11.6485 25.3168C13.1052 24.4012 14.8897 23.4124 15.9095 22.973C16.8563 22.5335 17.5847 22.0208 18.8593 22.0208C22.2462 22.0208 26.143 21.8011 29.3114 22.7899C32.3341 23.742 35.1019 25.4999 37.9425 26.8549C41.4023 27.2211 45.2626 27.9169 48.7952 28.7958C49.9242 29.0888 50.434 29.6015 50.7618 30.2973C51.126 31.0297 51.3081 31.7256 51.4901 32.165C51.7815 32.2016 51.7815 32.2749 51.8543 32.4214C52 32.5679 52 33.1904 52 33.4102C52 33.7764 51.9636 34.2891 51.9272 34.6187C51.8543 35.3145 51.7451 35.7173 51.3809 36.0103C51.1624 36.1568 50.8346 36.2666 50.5433 36.3033L49.5964 36.3399M38.1975 36.9258L17.1841 36.8892M11.5028 30.8833C9.427 30.8833 7.71534 32.6045 7.71534 34.6919C7.71534 36.7794 9.427 38.5006 11.5028 38.5006C13.5787 38.5006 15.2903 36.7794 15.2903 34.6919C15.2903 32.5679 13.5787 30.8833 11.5028 30.8833ZM43.8059 30.8833C41.73 30.8833 40.0184 32.6045 40.0184 34.6919C40.0184 36.7794 41.73 38.5006 43.8059 38.5006C45.8817 38.5006 47.5934 36.7794 47.5934 34.6919C47.5934 32.5679 45.8817 30.8833 43.8059 30.8833Z" stroke="#878787"/>
</svg>
