<svg width="28" height="40" viewBox="0 0 28 40" fill="none" xmlns="http://www.w3.org/2000/svg">
<path d="M7.10058 8.5C5.71987 8.5 4.60059 9.61929 4.60059 11V33C4.60059 34.3807 5.71987 35.5 7.10059 35.5H23.8985C25.2792 35.5 26.3985 34.3807 26.3985 33V11C26.3985 9.61929 25.2792 8.5 23.8985 8.5H7.10058ZM10.2859 17.7817C10.2859 17.6055 10.3169 17.4308 10.3775 17.2653L11.2777 14.8103C11.4943 14.2195 12.0567 13.8267 12.686 13.8267H18.313C18.9423 13.8267 19.5047 14.2195 19.7214 14.8103L20.6215 17.2653C20.6822 17.4308 20.7132 17.6055 20.7132 17.7817V22.6799C20.7132 22.873 20.5567 23.0295 20.3636 23.0295C20.1709 23.0295 20.014 22.8728 20.014 22.6794C20.014 21.9338 19.4097 21.3282 18.6634 21.3282H12.3357C11.5894 21.3282 10.9851 21.9338 10.9851 22.6794C10.9851 22.8728 10.8282 23.0295 10.6355 23.0295C10.4424 23.0295 10.2859 22.873 10.2859 22.6799V17.7817ZM18.7139 28.4815C18.7139 28.6746 18.5574 28.8311 18.3643 28.8311H12.6348C12.4417 28.8311 12.2852 28.6746 12.2852 28.4815C12.2852 28.2884 12.4417 28.1319 12.6348 28.1319H18.3643C18.5574 28.1319 18.7139 28.2884 18.7139 28.4815Z" fill="#F6F6F6" stroke="#878787"/>
<path d="M5.40116 9H4C2.89543 9 2 9.89543 2 11V22V33C2 34.1046 2.89543 35 4 35H5.40116" stroke="#878787"/>
</svg>
