<svg width="54" height="41" viewBox="0 0 54 41" fill="none" xmlns="http://www.w3.org/2000/svg">
<path fill-rule="evenodd" clip-rule="evenodd" d="M6.65685 38.1666C5.79832 38.0951 4.72516 38.0236 3.93817 37.8447C3.40159 37.7374 3.00809 37.5943 2.82923 37.4154C2.29265 36.8431 2.32843 35.0902 2.3642 34.1602C2.3642 33.9455 2.86501 33.9455 2.86501 33.6951C2.93655 32.3 3.04387 30.8691 3.40159 29.474C3.65199 28.4009 4.18858 27.6854 4.61784 26.8269C4.97556 26.0757 5.8341 23.6789 7.08612 22.3196C7.26498 22.105 7.30075 21.8188 7.26498 21.6042C7.22921 20.996 7.33652 21.0676 7.90888 21.0318C8.55278 20.9603 9.62594 21.0318 11.0926 21.0318L28.1559 21.1391C28.9429 21.1391 29.7299 21.2107 30.4095 21.2822C34.2372 21.5684 38.816 24.7879 42.0712 26.7553C43.8956 27.3992 46.6859 28.4366 49.1184 29.3309C50.0842 29.6887 50.4062 30.1537 50.6923 30.7976C50.8712 31.1911 51.0143 31.7277 51.1931 32.4073C51.3005 32.8366 51.4435 33.2659 51.5509 33.5163C51.837 33.552 51.837 33.4805 51.9086 33.6594C52.0159 33.8382 51.9444 34.0886 51.9801 34.4106C52.0159 35.0902 52.0159 36.0203 51.8728 36.6642C51.7297 37.2723 51.5866 37.5585 51.3362 37.7732C51.1216 37.952 50.907 38.0593 50.6208 38.0951L49.4403 38.1309C48.6533 38.0593 48.6175 38.2024 48.7606 37.2366C48.7964 37.0219 48.7964 36.8073 48.7964 36.5569C48.7964 33.874 46.6501 31.7277 43.9672 31.7277C41.2843 31.7277 39.1379 33.874 39.1379 36.5569C39.1379 37.0219 39.2095 37.487 39.3168 37.9162C39.603 38.8463 39.4599 38.7032 38.7087 38.7748L17.46 38.739C16.673 38.6675 16.3511 38.8463 16.6373 37.8089C16.7446 37.4154 16.8161 36.9862 16.8161 36.5569C16.8161 33.874 14.6698 31.7277 11.9869 31.7277C9.30399 31.7277 7.15767 33.874 7.15767 36.5569C7.15767 36.8431 7.19344 37.1293 7.22921 37.4154C7.33652 37.9162 7.19344 38.2024 6.65685 38.1666ZM26.4031 27.2561C26.1169 24.5375 26.0453 23.3212 25.7949 22.6415C25.7592 22.5342 25.5445 22.4269 25.4014 22.4269L18.8194 22.3911C18.3901 22.3911 18.1397 22.3911 18.1397 22.9635L18.0324 26.8269C18.0324 27.3277 17.9608 27.5423 18.4974 27.5781C21.1446 27.6854 23.0763 27.757 25.7234 27.7927C26.4388 27.7927 26.4746 27.9716 26.4031 27.2561ZM37.1347 28.1504C37.1347 28.1504 38.6371 26.6838 38.816 26.5049C36.5266 24.609 32.6274 22.4627 29.7299 22.4627H27.4047C27.1185 22.4627 27.1185 22.6058 27.1543 22.8562C27.3689 23.7505 27.5478 25.861 27.6909 27.1131C27.7624 27.7212 27.9055 27.8643 28.4421 27.8643C30.6599 27.8643 37.1705 28.2935 37.1347 28.1504ZM16.7804 26.97C16.8519 25.7179 16.8877 24.4659 16.9592 23.1781C16.9592 22.9635 16.9235 22.8204 16.8877 22.6773C16.8519 22.57 16.673 22.4627 16.53 22.4627C15.0633 22.4269 15.6357 22.4627 14.169 22.4269C13.7755 22.4269 11.2357 22.9277 10.4129 23.6432C9.30399 24.609 8.19505 25.8253 7.94465 26.3261C7.73001 26.7553 7.83733 27.0415 8.37392 27.0773C11.0211 27.1846 13.4178 27.435 16.0649 27.4708C16.7804 27.5066 16.7446 27.7212 16.7804 26.97Z" fill="#F6F6F6"/>
<path d="M6.65686 38.1666C5.79833 38.0951 4.72516 38.0236 3.93817 37.8447C3.40159 37.7374 3.0081 37.5943 2.82924 37.4154C2.29266 36.8431 2.32843 35.0902 2.3642 34.1602C2.3642 33.9455 2.86501 33.9455 2.86501 33.6951C2.93655 32.3 3.04387 30.8691 3.40159 29.474C3.65199 28.4009 4.18857 27.6854 4.61784 26.8269C4.97556 26.0757 5.8341 23.6789 7.08612 22.3196C7.26498 22.105 7.30076 21.8188 7.26498 21.6042C7.22921 20.996 7.33652 21.0676 7.90888 21.0318C8.55278 20.9603 9.62595 21.0318 11.0926 21.0318L28.1559 21.1391C28.9429 21.1391 29.7299 21.2107 30.4095 21.2822C34.2372 21.5684 38.816 24.7879 42.0712 26.7553C43.8956 27.3992 46.6859 28.4366 49.1184 29.3309C50.0842 29.6887 50.4062 30.1537 50.6923 30.7976C50.8712 31.1911 51.0143 31.7277 51.1931 32.4073C51.3005 32.8366 51.4435 33.2659 51.5509 33.5163C51.837 33.552 51.837 33.4805 51.9086 33.6594C52.0159 33.8382 51.9444 34.0886 51.9801 34.4106C52.0159 35.0902 52.0159 36.0203 51.8728 36.6642C51.7297 37.2723 51.5866 37.5585 51.3362 37.7732C51.1216 37.952 50.907 38.0593 50.6208 38.0951L49.4403 38.1309M38.7087 38.7748L17.46 38.739M11.9869 32.8366C9.94789 32.8366 8.2666 34.5179 8.2666 36.5569C8.2666 38.5959 9.94789 40.2772 11.9869 40.2772C14.0259 40.2772 15.7072 38.5959 15.7072 36.5569C15.7072 34.4821 14.0259 32.8366 11.9869 32.8366ZM43.9672 32.8366C41.9282 32.8366 40.2469 34.5179 40.2469 36.5569C40.2469 38.5959 41.9282 40.2772 43.9672 40.2772C46.0062 40.2772 47.6875 38.5959 47.6875 36.5569C47.6875 34.4821 46.042 32.8366 43.9672 32.8366Z" stroke="#878787" stroke-miterlimit="10"/>
</svg>
