<svg width="54" height="40" viewBox="0 0 54 40" fill="none" xmlns="http://www.w3.org/2000/svg">
  <path fill-rule="evenodd" clip-rule="evenodd" d="M12.0724 30.4727C9.66298 30.4727 7.74194 32.4263 7.74194 34.8031C7.74194 37.2126 9.69554 39.1336 12.0724 39.1336C14.4819 39.1336 16.4029 37.18 16.4029 34.8031C16.4355 32.4263 14.4819 30.4727 12.0724 30.4727Z" stroke="#878787" stroke-miterlimit="10"/>
  <path fill-rule="evenodd" clip-rule="evenodd" d="M41.9045 30.4727C39.495 30.4727 37.574 32.4263 37.574 34.8031C37.574 37.2126 39.5276 39.1336 41.9045 39.1336C44.3139 39.1336 46.235 37.18 46.235 34.8031C46.2675 32.4263 44.3139 30.4727 41.9045 30.4727Z" stroke="#878787" stroke-miterlimit="10"/>
  <path d="M36.166 34.7339C35.833 30.8614 38.8017 28.5153 41.7269 28.6143C44.8694 28.7132 47.3747 31.3561 46.9402 34.8752C48.2001 34.7339 49.431 34.6349 50.6475 34.4512C51.9074 34.2533 51.9508 34.2251 51.9942 32.9814C52.0232 31.879 51.9363 30.7766 51.8784 29.6742C51.8639 29.2361 51.6177 29.0383 51.1688 28.8687C50.1985 28.4729 49.2862 27.9641 48.3884 27.4412C48.0698 27.2575 47.8815 26.8759 47.6498 26.5791C47.6933 26.4943 47.7367 26.3954 47.7802 26.3106C48.7504 26.4236 49.7351 26.5367 50.7054 26.6356C50.7344 26.5932 50.7633 26.5508 50.7923 26.5084C50.2565 26.1975 49.7351 25.7735 49.1559 25.6039C47.085 24.9962 44.9852 24.4733 42.8999 23.9362C42.2338 23.7808 41.5531 23.6394 40.8725 23.4981C38.961 23.1024 37.2377 22.3533 35.6737 21.1803C33.2987 19.4137 30.721 18.0145 27.7234 17.5057C24.885 17.011 22.0177 16.8697 19.1648 17.1241C15.0956 17.4916 11.0408 17.9862 6.97149 18.4385C6.73978 18.4667 6.52256 18.5515 6.30534 18.6081C6.27638 18.6929 6.24741 18.7635 6.23293 18.8483C6.69634 19.0745 7.17423 19.3147 7.71004 19.5832C5.95779 20.6856 4.42275 22 3.10494 23.7666C4.23449 23.7666 5.23372 23.7666 6.21845 23.7666C6.26189 23.8373 6.30534 23.9221 6.3343 23.9928C5.98675 24.2613 5.68264 24.6287 5.27716 24.7842C4.48068 25.081 3.64076 25.3071 2.78635 25.4485C2.38087 25.5191 2.14917 25.6039 2.0478 26.0279C1.74369 27.2151 1.4251 28.3881 1.06306 29.5612C0.90377 30.0982 1.06306 30.5222 1.3527 30.9462C2.0478 31.9355 3.04702 32.5433 4.10416 33.0662C4.8572 33.4336 5.63919 33.7163 6.52256 34.0838C6.68186 31.9921 7.5073 30.3526 9.31748 29.3351C10.4325 28.7132 11.649 28.5012 12.9378 28.7132C15.7183 29.1655 17.2388 31.1723 17.4271 34.748C23.6831 34.7339 29.9246 34.7339 36.166 34.7339ZM8.05759 22.7491C8.27481 22.5088 8.37618 22.3109 8.53548 22.212C10.2877 21.0248 12.0545 19.8518 13.8212 18.6787C13.966 18.5798 14.1832 18.5657 14.3715 18.5515C16.1672 18.3678 17.9629 18.1699 19.7586 18.0427C20.7144 17.9721 21.6701 18.0286 22.6983 18.0286C22.568 19.6398 22.4521 21.1944 22.3363 22.7491C17.5429 22.7491 12.8799 22.7491 8.05759 22.7491ZM36.1805 22.7915C32.1692 22.7915 28.3316 22.7915 24.494 22.7632C24.3492 22.7632 24.0885 22.424 24.0596 22.2261C23.9582 21.0531 23.9292 19.88 23.8713 18.707C23.8568 18.5091 23.8858 18.3113 23.9003 18.1134C28.6067 18.0569 32.5312 19.8094 36.1805 22.7915ZM12.8944 25.929C12.5034 25.929 12.1124 25.9855 11.7504 25.9007C11.5476 25.8583 11.3014 25.6181 11.258 25.4343C11.229 25.3071 11.5042 24.9679 11.649 24.9538C12.4599 24.9114 13.2854 24.9114 14.0964 24.9679C14.2412 24.9821 14.5163 25.3213 14.4873 25.4485C14.4294 25.6322 14.1832 25.8583 13.9805 25.9007C13.6329 25.9855 13.2564 25.929 12.8944 25.929ZM26.7821 25.929C26.42 25.929 26.058 25.9855 25.7105 25.9149C25.5077 25.8725 25.2181 25.6463 25.2036 25.4909C25.1891 25.3213 25.4498 24.9821 25.6091 24.9679C26.3911 24.9114 27.1876 24.9114 27.984 24.9679C28.1433 24.9821 28.3606 25.3071 28.3895 25.505C28.404 25.6322 28.1144 25.8866 27.9406 25.9149C27.5641 25.9714 27.1731 25.929 26.7821 25.929Z" fill="#F6F6F6"/>
  <path d="M46.996 35.3753C46.7215 35.406 46.4741 35.2085 46.4433 34.9341C46.4126 34.6597 46.6101 34.4123 46.8845 34.3815L46.996 35.3753ZM50.6475 34.4544L50.725 34.9483L50.7221 34.9488L50.6475 34.4544ZM51.9942 32.9846L52.4941 32.9977L52.4939 33.002L51.9942 32.9846ZM51.8784 29.6774L51.3791 29.7037C51.3782 29.6877 51.3782 29.6717 51.3789 29.6558L51.8784 29.6774ZM50.7923 26.5116L51.0432 26.0792C51.1617 26.1479 51.2468 26.2623 51.2786 26.3955C51.3104 26.5288 51.2862 26.6692 51.2115 26.7841L50.7923 26.5116ZM49.1559 25.6071L49.0154 26.087L49.0151 26.0869L49.1559 25.6071ZM42.8999 23.9394L43.0136 23.4524L43.0246 23.4552L42.8999 23.9394ZM40.8726 23.5013L40.7709 23.9909L40.7678 23.9902L40.8726 23.5013ZM40.8725 23.5013L40.9739 23.0116L40.9773 23.0124L40.8725 23.5013ZM35.6737 21.1835L35.9721 20.7823L35.9737 20.7835L35.6737 21.1835ZM27.7234 17.5089L27.6397 18.0018L27.6375 18.0014L27.7234 17.5089ZM19.1648 17.1273L19.1199 16.6293L19.1204 16.6293L19.1648 17.1273ZM6.97148 18.4416L6.91093 17.9453L6.91625 17.9447L6.97148 18.4416ZM6.30534 18.6112L5.83217 18.4496C5.88645 18.2907 6.01688 18.1697 6.17941 18.1274L6.30534 18.6112ZM6.23293 18.8515L6.01366 19.3009C5.81412 19.2035 5.70269 18.9862 5.74006 18.7673L6.23293 18.8515ZM7.54967 19.506L7.32562 19.953L7.3256 19.953L7.54967 19.506ZM7.71004 19.5864L7.93409 19.1394C8.09546 19.2203 8.20071 19.3819 8.20945 19.5622C8.21819 19.7425 8.12908 19.9135 7.97629 20.0096L7.71004 19.5864ZM3.10494 23.7698V24.2698C2.91579 24.2698 2.74283 24.1631 2.65802 23.994C2.5732 23.8249 2.59106 23.6225 2.70416 23.4708L3.10494 23.7698ZM6.21844 23.7698V23.2698C6.39215 23.2698 6.55341 23.36 6.64438 23.5079L6.21844 23.7698ZM6.3343 23.9959L6.79696 23.8063C6.88228 24.0145 6.81804 24.254 6.64 24.3916L6.3343 23.9959ZM5.27715 24.7874L5.45616 25.2543L5.45174 25.2559L5.27715 24.7874ZM2.78635 25.4516L2.7005 24.959L2.70475 24.9583L2.78635 25.4516ZM2.04779 26.0311L2.53415 26.1474L2.53215 26.1552L2.04779 26.0311ZM1.06306 29.5644L0.583675 29.4222L0.5853 29.4169L1.06306 29.5644ZM1.35269 30.9494L0.943542 31.2369L0.939823 31.2314L1.35269 30.9494ZM4.10416 33.0693L3.88488 33.5187L3.88247 33.5175L4.10416 33.0693ZM6.7146 33.6253C6.96956 33.7313 7.09027 34.024 6.98421 34.279C6.87815 34.5339 6.58549 34.6546 6.33052 34.5486L6.7146 33.6253ZM17.4282 35.2512C17.1521 35.2518 16.9277 35.0285 16.9271 34.7523C16.9265 34.4762 17.1498 34.2518 17.4259 34.2512L17.4282 35.2512ZM34.2414 34.237C34.5175 34.237 34.7414 34.4609 34.7414 34.737C34.7414 35.0132 34.5175 35.237 34.2414 35.237V34.237ZM46.8845 34.3815C48.1659 34.2377 49.3683 34.1419 50.5728 33.96L50.7221 34.9488C49.4938 35.1343 48.2343 35.2363 46.996 35.3753L46.8845 34.3815ZM50.5699 33.9604C50.8936 33.9096 51.1018 33.8749 51.251 33.834C51.3975 33.7938 51.4167 33.7649 51.4105 33.7716C51.4017 33.7811 51.4267 33.7665 51.4494 33.6295C51.473 33.4868 51.4834 33.2858 51.4946 32.9671L52.4939 33.002C52.4834 33.3052 52.4721 33.5741 52.436 33.7926C52.3989 34.017 52.3261 34.255 52.1435 34.4518C51.9636 34.6456 51.733 34.7387 51.5156 34.7983C51.3009 34.8572 51.0313 34.9002 50.725 34.9483L50.5699 33.9604ZM51.4944 32.9714C51.5227 31.8949 51.4379 30.8239 51.3791 29.7037L52.3777 29.6512C52.4347 30.7357 52.5237 31.8694 52.4941 32.9977L51.4944 32.9714ZM50.5413 26.9441C50.2764 26.7904 49.9554 26.572 49.7282 26.4321C49.4701 26.2732 49.2402 26.1528 49.0154 26.087L49.2964 25.1272C49.6508 25.231 49.9713 25.4074 50.2525 25.5806C50.5648 25.7729 50.7723 25.9219 51.0432 26.0792L50.5413 26.9441ZM49.0151 26.0869C46.9546 25.4822 44.8661 24.9621 42.7752 24.4236L43.0246 23.4552C45.1044 23.9908 47.2155 24.5166 49.2967 25.1273L49.0151 26.0869ZM42.7863 24.4263C42.1271 24.2725 41.4526 24.1324 40.7709 23.9909L40.9742 23.0117C41.6538 23.1528 42.3404 23.2954 43.0135 23.4525L42.7863 24.4263ZM40.7678 23.9902L40.7677 23.9902L40.9773 23.0124L40.9774 23.0124L40.7678 23.9902ZM40.7711 23.9909C38.7922 23.5812 37.0001 22.8033 35.3737 21.5835L35.9737 20.7835C37.4752 21.9097 39.1297 22.6299 40.9739 23.0117L40.7711 23.9909ZM35.3753 21.5846C33.0364 19.8449 30.5318 18.4927 27.6397 18.0018L27.807 17.0159C30.9102 17.5426 33.561 18.9888 35.9721 20.7823L35.3753 21.5846ZM27.6375 18.0014C24.8395 17.5138 22.016 17.375 19.2093 17.6253L19.1204 16.6293C22.0193 16.3707 24.9305 16.5146 27.8092 17.0163L27.6375 18.0014ZM19.2098 17.6252C15.1474 17.9921 11.1031 18.4855 7.02671 18.9386L6.91625 17.9447C10.9784 17.4932 15.0437 16.9974 19.1199 16.6293L19.2098 17.6252ZM7.03203 18.938C6.95539 18.9473 6.8729 18.9671 6.77135 18.9963C6.68584 19.0209 6.5453 19.0654 6.43127 19.0951L6.17941 18.1274C6.28259 18.1005 6.35927 18.0743 6.49461 18.0354C6.6139 18.001 6.75587 17.9642 6.91093 17.9453L7.03203 18.938ZM6.7785 18.7728C6.73802 18.8914 6.73142 18.9027 6.7258 18.9357L5.74006 18.7673C5.7634 18.6307 5.81473 18.5007 5.83217 18.4496L6.7785 18.7728ZM6.4522 18.4022C6.87173 18.6069 7.30259 18.8229 7.77375 19.0591L7.3256 19.953C6.85341 19.7163 6.42749 19.5028 6.01366 19.3009L6.4522 18.4022ZM7.77373 19.0591L7.93409 19.1394L7.48598 20.0334L7.32562 19.953L7.77373 19.0591ZM7.97629 20.0096C6.2669 21.085 4.7807 22.3595 3.50572 24.0688L2.70416 23.4708C4.06479 21.6468 5.64867 20.2926 7.44379 19.1632L7.97629 20.0096ZM3.10494 23.2698H6.21844V24.2698H3.10494V23.2698ZM6.64438 23.5079C6.70078 23.5997 6.75689 23.7086 6.79696 23.8063L5.87165 24.1855C5.8538 24.142 5.823 24.0813 5.79251 24.0317L6.64438 23.5079ZM6.64 24.3916C6.47294 24.5207 6.36254 24.6352 6.15157 24.8148C5.96862 24.9705 5.73932 25.1457 5.45615 25.2542L5.09816 24.3205C5.22047 24.2736 5.34596 24.1873 5.50333 24.0533C5.63268 23.9432 5.84811 23.7397 6.02861 23.6003L6.64 24.3916ZM5.45174 25.2559C4.62571 25.5637 3.75467 25.7983 2.86795 25.9449L2.70475 24.9583C3.52684 24.8224 4.33564 24.6046 5.10257 24.3189L5.45174 25.2559ZM2.8722 25.9442C2.77656 25.9609 2.71034 25.9753 2.66008 25.9906C2.6115 26.0054 2.59182 26.0171 2.58549 26.0214C2.58252 26.0235 2.5802 26.0248 2.57463 26.0339C2.56697 26.0463 2.55055 26.0785 2.53409 26.1474L1.5615 25.9148C1.63211 25.6195 1.76919 25.3684 2.02058 25.1963C2.2411 25.0453 2.50043 24.9939 2.7005 24.9591L2.8722 25.9442ZM2.53215 26.1552C2.22693 27.3467 1.90612 28.5282 1.54083 29.7118L0.5853 29.4169C0.94408 28.2544 1.26044 27.0898 1.56343 25.907L2.53215 26.1552ZM1.54242 29.7065C1.4426 30.0431 1.52091 30.3092 1.76556 30.6674L0.939823 31.2314C0.605221 30.7416 0.364941 30.1597 0.583706 29.4222L1.54242 29.7065ZM1.7618 30.6619C2.3822 31.5449 3.28656 32.1071 4.32585 32.6212L3.88247 33.5175C2.80747 32.9858 1.71341 32.3325 0.943581 31.2368L1.7618 30.6619ZM4.32343 32.62C5.05924 32.979 5.8019 33.2456 6.7146 33.6253L6.33052 34.5486C5.47649 34.1933 4.65514 33.8946 3.88489 33.5187L4.32343 32.62ZM17.4259 34.2512C23.6817 34.237 27.9987 34.237 34.2389 34.237V35.237C27.9987 35.237 23.6827 35.237 17.4282 35.2512L17.4259 34.2512ZM34.2389 34.237H34.2414V35.237H34.2389V34.237ZM51.3789 29.6558C51.4046 29.0609 51.2827 28.7774 51.1738 28.6301C51.0592 28.475 50.9067 28.3934 50.6833 28.2895C50.587 28.2447 50.4379 28.1783 50.3134 28.0918C50.1756 27.9962 50.0185 27.8439 49.9514 27.6026C49.8876 27.3731 49.9283 27.1444 50.0023 26.9391C50.0768 26.7326 50.2024 26.5017 50.3731 26.2391L51.2115 26.7841C51.0591 27.0187 50.98 27.1759 50.943 27.2783C50.9056 27.3821 50.9283 27.3833 50.9148 27.3346C50.898 27.2742 50.8595 27.2536 50.8838 27.2705C50.9213 27.2965 50.9775 27.3234 51.1051 27.3828C51.3292 27.4871 51.6978 27.6567 51.9779 28.0356C52.2637 28.4222 52.4101 28.9552 52.3779 29.699L51.3789 29.6558Z" fill="#878787"/>
</svg>
