<svg width="44" height="40" viewBox="0 0 44 40" fill="none" xmlns="http://www.w3.org/2000/svg">
<path fill-rule="evenodd" clip-rule="evenodd" d="M40.9527 31.3282H42.0066L42.0133 27.7605C42.0133 25.653 40.3048 23.9444 38.1972 23.9444H38.1939H31.4109L25.3696 15H9.53816L2 23.5417H2.05034V31.3282H3.96003L3.96242 31.3045C4.26018 28.8833 6.32401 27.0087 8.82564 27.0087H8.8333L8.83637 27.0087C11.3255 27.0384 13.3749 28.8965 13.7066 31.3282H31.1893L31.1917 31.3045C31.4895 28.8833 33.5533 27.0086 36.055 27.0086L36.0794 27.0087L36.0827 27.0087C38.5711 27.0399 40.6195 28.8972 40.9527 31.3282ZM14.9652 23.9445H2.8055L10.0382 15.7048H14.9652V23.9445ZM15.9184 23.8941V15.7048H24.9601L30.4375 23.8941H15.9184Z" fill="#F6F6F6"/>
<path d="M39.9512 32.2778C39.9512 30.2378 38.269 28.5557 36.229 28.5557C34.189 28.5557 32.5068 30.202 32.5068 32.2778C32.5068 34.3179 34.189 36 36.229 36C38.269 36 39.9512 34.3179 39.9512 32.2778Z" stroke="#878787" stroke-miterlimit="10"/>
<path d="M12.2358 32.2778C12.2358 30.2378 10.5537 28.5557 8.51367 28.5557C6.47364 28.5557 4.7915 30.202 4.7915 32.2778C4.7915 34.3179 6.47364 36 8.51367 36C10.5537 36 12.2358 34.3179 12.2358 32.2778Z" stroke="#878787" stroke-miterlimit="10"/>
<path d="M42.0066 31.3282V31.8282H42.5056L42.5066 31.3291L42.0066 31.3282ZM26.2618 16.3209L25.8474 16.6007V16.6007L26.2618 16.3209ZM30.5187 22.6236L30.9331 22.3437V22.3437L30.5187 22.6236ZM42.0133 27.7605L42.5133 27.7614V27.7605H42.0133ZM2.00629 24.5146L2.50628 24.5114L2.00629 24.5146ZM2.56594 22.7502L2.15923 22.4594H2.15923L2.56594 22.7502ZM5.76908 18.2708L5.44137 17.8932L5.39674 17.9319L5.36237 17.98L5.76908 18.2708ZM8.6921 15.7342L9.01981 16.1118L8.6921 15.7342ZM40.9527 25.1205L41.3707 24.8461L41.3184 24.7664L41.2403 24.7115L40.9527 25.1205ZM42.0066 30.8282H40.9527V31.8282H42.0066V30.8282ZM10.6584 15.5H23.7757V14.5H10.6584V15.5ZM25.8474 16.6007L30.1044 22.9034L30.9331 22.3437L26.6761 16.041L25.8474 16.6007ZM41.5133 27.7595L41.5066 31.3272L42.5066 31.3291L42.5133 27.7614L41.5133 27.7595ZM33.0048 24.4444H38.1972V23.4444H33.0048V24.4444ZM14.5 31.8282H29.6555V30.8282H14.5V31.8282ZM2.55033 31.325L2.50628 24.5114L1.5063 24.5179L1.55035 31.3314L2.55033 31.325ZM2.97266 23.0411L6.17579 18.5617L5.36237 17.98L2.15923 22.4594L2.97266 23.0411ZM6.09679 18.6485L9.01981 16.1118L8.36439 15.3566L5.44137 17.8932L6.09679 18.6485ZM38.1972 24.4444C38.6028 24.4444 39.1939 24.6804 39.7466 24.974C40.0091 25.1135 40.2406 25.2535 40.4065 25.3589C40.4893 25.4114 40.5552 25.4549 40.5998 25.4849C40.6221 25.4999 40.6391 25.5115 40.6502 25.5191C40.6557 25.5229 40.6597 25.5258 40.6623 25.5275C40.6635 25.5284 40.6644 25.529 40.6649 25.5293C40.6651 25.5295 40.6652 25.5296 40.6653 25.5296C40.6653 25.5296 40.6653 25.5296 40.6653 25.5296C40.6652 25.5296 40.6652 25.5296 40.6652 25.5295C40.6651 25.5295 40.6651 25.5295 40.9527 25.1205C41.2403 24.7115 41.2403 24.7114 41.2402 24.7114C41.2402 24.7114 41.2401 24.7113 41.24 24.7113C41.2399 24.7112 41.2397 24.7111 41.2395 24.7109C41.2392 24.7107 41.2387 24.7103 41.2381 24.7099C41.237 24.7091 41.2354 24.7081 41.2335 24.7067C41.2296 24.704 41.2242 24.7002 41.2172 24.6954C41.2032 24.6858 41.1832 24.6721 41.1577 24.655C41.1066 24.6207 41.0334 24.5723 40.9424 24.5146C40.761 24.3994 40.5067 24.2455 40.2157 24.0909C39.6615 23.7965 38.8748 23.4444 38.1972 23.4444V24.4444ZM40.9527 25.1205C40.5347 25.3949 40.5347 25.3948 40.5347 25.3948C40.5347 25.3948 40.5346 25.3947 40.5346 25.3947C40.5346 25.3947 40.5346 25.3947 40.5346 25.3947C40.5346 25.3947 40.5347 25.3949 40.5349 25.3951C40.5352 25.3955 40.5357 25.3964 40.5365 25.3976C40.5381 25.4 40.5406 25.4039 40.544 25.4093C40.5509 25.4199 40.5613 25.4363 40.5749 25.4578C40.6019 25.5009 40.6411 25.5644 40.6885 25.6442C40.7835 25.8042 40.9098 26.0271 41.0355 26.2794C41.3003 26.8105 41.5133 27.3769 41.5133 27.7605H42.5133C42.5133 27.1197 42.196 26.366 41.9305 25.8333C41.7911 25.5536 41.6522 25.3086 41.5484 25.1337C41.4963 25.046 41.4527 24.9753 41.4217 24.926C41.4062 24.9013 41.3939 24.882 41.3852 24.8685C41.3809 24.8617 41.3775 24.8565 41.375 24.8527C41.3738 24.8508 41.3728 24.8493 41.3721 24.8482C41.3717 24.8477 41.3714 24.8472 41.3712 24.8469C41.3711 24.8467 41.371 24.8465 41.3709 24.8464C41.3709 24.8463 41.3708 24.8463 41.3708 24.8462C41.3707 24.8462 41.3707 24.8461 40.9527 25.1205ZM30.1044 22.9034C30.7552 23.867 31.8421 24.4444 33.0048 24.4444V23.4444C32.1743 23.4444 31.3979 23.032 30.9331 22.3437L30.1044 22.9034ZM23.7757 15.5C24.6062 15.5 25.3826 15.9125 25.8474 16.6007L26.6761 16.041C26.0253 15.0774 24.9385 14.5 23.7757 14.5V15.5ZM10.6584 14.5C9.81552 14.5 9.00097 14.8042 8.36439 15.3566L9.01981 16.1118C9.47451 15.7173 10.0563 15.5 10.6584 15.5V14.5ZM2.50628 24.5114C2.50287 23.9844 2.6661 23.4698 2.97266 23.0411L2.15923 22.4594C1.73006 23.0596 1.50153 23.7801 1.5063 24.5179L2.50628 24.5114Z" fill="#878787"/>
</svg>
