<svg width="54" height="40" viewBox="0 0 54 40" fill="none" xmlns="http://www.w3.org/2000/svg">
<path fill-rule="evenodd" clip-rule="evenodd" d="M5.73481 36.9808C4.96918 36.9079 4.0942 36.8714 3.43795 36.762C2.89108 36.6891 2.49005 36.5433 2.30776 36.3974C1.76089 35.887 1.79734 34.2829 1.8338 33.4443C1.8338 33.2256 2.34421 33.2256 2.34421 33.0433C2.41713 31.7673 2.45359 31.3298 2.59942 30.0173C2.67233 29.4704 3.10983 29.0329 3.80253 28.8142C5.84418 28.1579 10.766 27.5746 13.0993 27.4652L13.8285 27.4288L14.5576 27.2829C15.0316 27.3559 14.9951 27.2829 15.1045 27.7934C15.2139 28.2309 15.4326 28.7777 16.016 28.8142C18.0211 28.9236 20.0628 28.9236 21.9951 28.9965C22.2138 28.9965 22.469 28.8871 22.4326 28.6319V27.7569C22.4326 27.6475 22.5055 27.5746 22.6149 27.5746L23.2711 27.4652C23.3805 27.4652 23.4534 27.5382 23.4534 27.6475L23.5992 28.4131C23.7086 28.9236 23.7815 29.0694 24.2919 29.1058L32.6408 29.4704C32.7502 29.4704 33.5887 29.1058 35.0106 27.9027C33.9533 27.0642 31.5835 25.7882 29.5419 24.7673C29.2867 24.658 29.1408 24.658 29.3231 24.4028L29.469 24.1476C29.5783 23.9653 29.7242 23.9653 29.9065 24.0746C32.9325 25.4965 35.047 26.4809 37.9272 28.1944C41.3907 28.559 45.2553 29.2517 48.7917 30.1267C49.9219 30.4183 50.4688 30.2725 50.8333 30.9652C51.1979 31.6944 51.3802 32.3871 51.5625 32.8246C51.8542 32.861 51.8542 32.9339 51.9271 33.0798C52 33.2256 52 33.8454 52 34.0641C52 34.4287 51.9635 34.9391 51.9271 35.2672C51.8542 35.9599 51.7448 36.361 51.3802 36.6526C51.1615 36.7985 50.8333 36.9079 50.5417 36.9079L49.4479 36.9443C48.7188 36.8349 48.6094 36.9079 48.6823 35.9599C48.6823 35.7412 48.7188 35.5225 48.7188 35.3037C48.7188 32.5694 46.5313 30.3819 43.797 30.3819C41.0626 30.3819 38.8751 32.5694 38.8751 35.3037C38.8751 35.7047 38.9116 36.0693 38.948 36.4339C39.1303 37.7464 38.948 37.5276 37.9272 37.5276H17.1462C16.4535 37.3818 16.2347 37.3818 16.3441 36.4339C16.3805 36.0693 16.3805 35.7047 16.3805 35.3037C16.3805 32.5694 14.1931 30.3819 11.4587 30.3819C8.72436 30.3819 6.53688 32.5694 6.53688 35.3037C6.53688 35.486 6.53688 35.6683 6.53688 35.8506C6.57334 36.7985 6.50042 37.0537 5.73481 36.9808Z" fill="#F6F6F6"/>
<path d="M5.73481 36.9807C4.96919 36.9078 4.0942 36.8713 3.43795 36.762C2.89108 36.6891 2.49005 36.5432 2.30776 36.3974C1.76089 35.887 1.79735 34.2828 1.83381 33.4443C1.83381 33.2255 2.34422 33.2255 2.34422 33.0433C2.41713 31.7672 2.45359 31.3297 2.59942 30.0172C2.67233 29.4704 3.10983 29.0329 3.80254 28.8141C5.84418 28.1579 10.766 27.5746 13.0993 27.4652L13.8285 27.4287L14.5576 27.2829C15.0316 27.3558 14.9951 27.2829 15.1045 27.7933C15.2139 28.2308 15.4326 28.7777 16.016 28.8141C18.0212 28.9235 20.0628 28.9235 21.9951 28.9964C22.2138 28.9964 22.469 28.887 22.4326 28.6318V27.7568C22.4326 27.6475 22.5055 27.5746 22.6149 27.5746L23.2711 27.4652C23.3805 27.4652 23.4534 27.5381 23.4534 27.6475L23.5992 28.4131C23.7086 28.9235 23.7815 29.0693 24.2919 29.1058L32.6408 29.4704L34.9221 27.7933M29.9065 24.0746C32.9325 25.4964 35.047 26.4808 37.9272 28.1943C41.3907 28.5589 45.2553 29.2516 48.7917 30.1266C49.9219 30.4183 50.4688 30.2724 50.8333 30.9651C51.1979 31.6943 51.3802 32.387 51.5625 32.8245C51.8542 32.861 51.8542 32.9339 51.9271 33.0797C52 33.2255 52 33.8453 52 34.0641C52 34.4287 51.9635 34.9391 51.9271 35.2672C51.8542 35.9599 51.7448 36.3609 51.3802 36.6526C51.1615 36.7984 50.8333 36.9078 50.5417 36.9078L49.4479 36.9443M37.9272 37.5276H17.1462M11.4952 31.5485C9.41707 31.5485 7.70354 33.262 7.70354 35.3401C7.70354 37.4182 9.41707 39.1317 11.4952 39.1317C13.5733 39.1317 15.2868 37.4182 15.2868 35.3401C15.2868 33.2255 13.5733 31.5485 11.4952 31.5485ZM43.8334 31.5485C41.7553 31.5485 40.0418 33.262 40.0418 35.3401C40.0418 37.4182 41.7188 39.1317 43.8334 39.1317C45.9115 39.1317 47.625 37.4182 47.625 35.3401C47.625 33.2255 45.9115 31.5485 43.8334 31.5485Z" stroke="#878787" stroke-miterlimit="10"/>
</svg>
