<svg width="54" height="41" viewBox="0 0 54 41" fill="none" xmlns="http://www.w3.org/2000/svg">
<path fill-rule="evenodd" clip-rule="evenodd" d="M45.9527 31.3282H47.0066L47.0133 27.7605C47.0133 25.653 45.3048 23.9444 43.1972 23.9444H43.1939H36.4109L30.3696 15H14.5382L7 23.5417H7.05034V31.3282H8.96003L8.96242 31.3045C9.26018 28.8833 11.324 27.0087 13.8256 27.0087H13.8333L13.8364 27.0087C16.3255 27.0384 18.3749 28.8965 18.7066 31.3282H36.1893L36.1917 31.3045C36.4895 28.8833 38.5533 27.0086 41.055 27.0086L41.0794 27.0087L41.0827 27.0087C43.5711 27.0399 45.6195 28.8972 45.9527 31.3282ZM19.9652 23.9445H7.8055L15.0382 15.7048H19.9652V23.9445ZM20.9184 23.8941V15.7048H29.9601L35.4375 23.8941H20.9184Z" fill="#F6F6F6"/>
<path d="M44.9512 32.2778C44.9512 30.2378 43.269 28.5557 41.229 28.5557C39.189 28.5557 37.5068 30.202 37.5068 32.2778C37.5068 34.3179 39.189 36 41.229 36C43.269 36 44.9512 34.3179 44.9512 32.2778Z" stroke="#878787" stroke-miterlimit="10"/>
<path d="M17.2358 32.2778C17.2358 30.2378 15.5537 28.5557 13.5137 28.5557C11.4736 28.5557 9.7915 30.202 9.7915 32.2778C9.7915 34.3179 11.4736 36 13.5137 36C15.5537 36 17.2358 34.3179 17.2358 32.2778Z" stroke="#878787" stroke-miterlimit="10"/>
<path d="M45.9527 31.3282H47.0066L47.0133 27.7605C47.0133 25.653 45.3048 23.9444 43.1972 23.9444H36.4109L30.3696 15H14.5382L7 23.5417H7.05034V31.3282M34.6555 31.3282H20.8529" stroke="#878787"/>
</svg>
