<svg width="54" height="40" viewBox="0 0 54 40" fill="none" xmlns="http://www.w3.org/2000/svg">
  <path fill-rule="evenodd" clip-rule="evenodd" d="M3.10394 30.9047C3.07191 30.9047 3.03988 30.8727 3.00784 30.8727C2.33513 30.7446 2.04683 30.8407 1.95073 29.9758C1.8226 28.9507 1.85463 27.349 1.82259 26.7404C1.79056 26.2919 1.85463 25.9075 2.3031 25.8114C2.55937 25.7473 2.84768 25.7153 2.84768 25.5871C2.94378 24.0495 3.168 22.8322 3.52037 21.7111C4.09698 19.8211 4.67359 18.2514 5.76273 16.1052C6.33934 14.9519 6.14716 15.016 7.62071 15.016C13.0344 15.016 18.7364 14.9519 24.2142 15.0801C27.8981 15.1442 31.4538 15.1762 32.9914 15.6567C34.9775 16.7458 36.8355 19.4367 38.2129 20.5578C41.7687 20.9423 45.7088 21.1985 49.3286 22.0955C50.61 22.4158 51.0264 22.4478 51.2506 23.7933C51.3788 24.5621 51.4108 25.427 51.5069 25.8755C51.603 25.8755 51.6671 25.8755 51.7311 25.8755C51.9233 25.8755 51.9554 26.0997 51.9554 26.3239C51.9874 27.1248 52.0515 28.8546 51.9233 29.8476C51.7952 30.6805 51.3467 30.9368 50.61 30.9368H49.2966C48.2715 30.9368 48.4637 30.8407 48.3676 29.8476C48.1754 27.0927 45.869 24.8824 43.05 24.8824C40.231 24.8824 37.9246 27.0607 37.7324 29.8156C37.6683 30.8727 37.8605 30.9047 36.7714 30.9047H15.7252C14.4759 30.9047 14.7322 30.8407 14.572 29.6234C14.2837 26.9646 12.0093 24.8824 9.25442 24.8824C6.46748 24.8824 4.16106 27.0287 3.93683 29.7836C3.87276 30.3922 4.06495 30.9368 3.42428 30.9368H3.10394V30.9047ZM33.9845 21.2626C34.2407 21.0384 34.9455 20.2695 35.5221 19.789C35.5861 19.725 35.6502 19.6609 35.5861 19.5968C34.529 18.2194 33.6321 17.4506 32.639 16.6497C31.9343 16.4255 27.8981 16.2974 26.6167 16.2653C26.0721 16.2653 25.4955 16.2333 24.9509 16.2333C24.6626 16.2333 24.5986 16.3614 24.6947 16.6177C24.8548 17.4506 25.1111 19.1484 25.3033 20.3016C25.3994 20.8782 25.5275 21.1985 26.1042 21.1665C28.3465 21.2626 34.0165 21.4548 33.9845 21.2626ZM15.0205 20.3656C15.1166 19.3726 15.6291 17.867 15.9495 16.874C16.0776 16.4896 16.2057 16.1372 16.6222 16.1372C18.7684 16.2013 20.7225 16.1692 22.8367 16.2333C22.9969 16.2333 23.2211 16.3294 23.2532 16.4255C23.4774 17.0341 23.5415 17.8991 23.8618 20.4297C23.9579 21.1345 23.8938 21.2306 23.125 21.1985C21.4272 21.1985 18.1918 21.1985 15.8854 21.1345C15.1807 21.1345 14.9244 21.1985 15.0205 20.3656ZM12.0734 20.4297C12.4258 19.6289 13.0024 18.2835 13.5469 17.0662C13.8673 16.3614 13.8673 16.1372 13.0344 16.1052C11.4007 16.0731 8.32545 16.1052 7.1402 16.1372C7.0441 16.1372 6.72376 16.2974 6.65969 16.3935C6.33936 17.0021 6.01901 17.6428 5.09003 20.2055C4.83377 20.9102 4.96189 21.1665 5.4424 21.1345C6.56358 21.1024 9.35052 21.1345 11.0163 21.1345C11.5608 21.1665 11.8491 20.8782 12.0734 20.4297Z" fill="#F6F6F6"/>
  <path d="M49.2966 30.9368H50.61C51.3467 30.9368 51.7952 30.6805 51.9233 29.8476C52.0515 28.8546 51.9874 27.1248 51.9554 26.3239C51.9554 26.0997 51.9233 25.8755 51.7311 25.8755C51.6671 25.8755 51.603 25.8755 51.5069 25.8755C51.4108 25.427 51.3788 24.5621 51.2506 23.7933C51.0264 22.4478 50.61 22.4158 49.3286 22.0955C45.7088 21.1985 41.7687 20.9423 38.2129 20.5578C36.8355 19.4367 34.9775 16.7458 32.9914 15.6567C31.4538 15.1762 27.8981 15.1442 24.2142 15.0801C18.7364 14.9519 13.0344 15.016 7.6207 15.016C6.14715 15.016 6.33934 14.9519 5.76273 16.1052C4.67359 18.2514 4.09698 19.8211 3.52037 21.7111C3.168 22.8322 2.94378 24.0495 2.84768 25.5871C2.84768 25.7153 2.55937 25.7473 2.3031 25.8114C1.85462 25.9075 1.79056 26.2919 1.82259 26.7404C1.85462 27.349 1.8226 28.9507 1.95073 29.9758C2.04683 30.8407 2.33513 30.7446 3.00784 30.8727C3.03988 30.8727 3.07191 30.9047 3.10394 30.9047V30.9368H3.42427M36.7714 30.9047H15.7252M43.05 25.9395C40.6795 25.9395 38.7895 27.8615 38.7895 30.2C38.7895 32.5705 40.7115 34.4605 43.05 34.4605C45.4205 34.4605 47.3105 32.5385 47.3105 30.2C47.3105 27.8615 45.4205 25.9395 43.05 25.9395ZM9.25442 25.9395C6.88393 25.9395 4.99393 27.8615 4.99393 30.2C4.99393 32.5705 6.91596 34.4605 9.25442 34.4605C11.6249 34.4605 13.5149 32.5385 13.5149 30.2C13.5469 27.8615 11.6249 25.9395 9.25442 25.9395Z" stroke="#878787" stroke-miterlimit="10"/>
</svg>
