<svg width="52" height="41" viewBox="0 0 52 41" fill="none" xmlns="http://www.w3.org/2000/svg">
<path fill-rule="evenodd" clip-rule="evenodd" d="M49.5039 19.9547L44.2417 13.2264L44.23 13.1997C43.5054 11.8011 38.6348 11.6633 37.0601 11.6633H30.3413C29.8613 11.6633 29.1475 11.9745 29.1475 12.8317V26.6475H2.09424C1.49072 26.6475 1 27.1383 1 27.7416V33.1293C1 33.7325 1.49072 34.2235 2.09424 34.2235H9.18701C9.74365 32.3694 11.4761 31 13.5 31C15.5293 31 17.2661 32.3478 17.8174 34.2235H30.9888L32.1704 34.2805C32.7085 32.3976 34.4556 31 36.5 31C38.6982 31 40.5532 32.5815 40.9302 34.7026L43.7954 34.8407H48.0308C49.668 34.8407 51 33.5088 51 31.8716V26.7772C51 20.6312 51.4996 23.7773 49.5039 19.9547ZM31.8413 21.5881V14.1034H36.1069C37.2998 14.1034 41.77 13.9945 42.3271 15.0526C43.624 17.0639 46.5 21.5 46.5 21.5L31.8413 21.5881Z" fill="#F6F6F6"/>
<path d="M6.18716 34.2235H2.09421C1.4909 34.2235 1 33.7326 1 33.1293V27.7416C1 27.1383 1.4909 26.6474 2.09421 26.6474H29.1474V12.8317C29.1474 11.9744 29.8613 11.6633 30.3411 11.6633H41.06C42.6349 11.6633 44.5054 12.8012 45.2298 14.1997L45.2418 14.2264L48.5567 18.9893C50.1473 21.2748 50.9999 23.9927 50.9999 26.7772V26.7772V31.8716C50.9999 33.5088 49.6678 34.8407 48.0305 34.8407H42.7956M19.8175 34.2235H29.9889" stroke="#878787"/>
<path d="M9 35.5C9 33.0336 11.0337 31 13.5 31C15.9663 31 18 32.9904 18 35.5C18 37.9663 15.9663 40 13.5 40C11.0337 40 9 37.9663 9 35.5Z" stroke="#878787" stroke-miterlimit="10"/>
<path d="M32 35.5C32 33.0336 34.0337 31 36.5 31C38.9663 31 41 32.9904 41 35.5C41 37.9663 38.9663 40 36.5 40C34.0337 40 32 37.9663 32 35.5Z" stroke="#878787" stroke-miterlimit="10"/>
</svg>
