<svg width="62" height="41" viewBox="0 0 62 41" fill="none" xmlns="http://www.w3.org/2000/svg">
<path fill-rule="evenodd" clip-rule="evenodd" d="M58 20.5L55.2417 13.2264L55.23 13.1997C54.5054 11.8011 49.6348 11.6633 48.0601 11.6633H41.3413C40.8613 11.6633 40.1475 11.9745 40.1475 12.8317V26.6475H3.09424C2.49072 26.6475 2 27.1383 2 27.7416V33.1293C2 33.7325 2.49072 34.2235 3.09424 34.2235H10.187C10.7437 32.3694 12.4761 31 14.5 31C16.5293 31 18.2661 32.3478 18.8174 34.2235H41.9888L43.1704 34.2805C43.7085 32.3976 45.4556 31 47.5 31C49.6982 31 51.5532 32.5815 51.9302 34.7026L54.7954 34.8407H59.0308C60.668 34.8407 61 33.5088 61 31.8716V26.7772C61 20.6312 59.9957 24.3226 58 20.5ZM42.8413 21.5881V14.1034H49.1069C50.2998 14.1034 51.9429 13.9945 52.5 15.0526C53.5 18.5 54.5 21.5 54.5 21.5L42.8413 21.5881Z" fill="#F6F6F6"/>
<path d="M41.3411 11.6633H52.06C53.6349 11.6633 55.5054 12.8012 56.2298 14.1997L56.2418 14.2264L58.1209 21.3632V21.3632C59.8584 22.0492 61 23.7264 61 25.5944C61 25.9509 61 26.3442 61 26.7772V31.8716C61 33.5088 60.6678 34.8407 59.0305 34.8407H53.7956M7.18716 34.2235H3.09421C2.4909 34.2235 2 33.7326 2 33.1293V27.7416C2.06281 27.3769 2.36957 26.6474 3.09421 26.6474M20.8175 34.2235H40.9889" stroke="#878787"/>
<path d="M10 35.5C10 33.0336 12.0337 31 14.5 31C16.9663 31 19 32.9904 19 35.5C19 37.9663 16.9663 40 14.5 40C12.0337 40 10 37.9663 10 35.5Z" stroke="#878787" stroke-miterlimit="10"/>
<path d="M43 35.5C43 33.0336 45.0337 31 47.5 31C49.9663 31 52 32.9904 52 35.5C52 37.9663 49.9663 40 47.5 40C45.0337 40 43 37.9663 43 35.5Z" stroke="#878787" stroke-miterlimit="10"/>
<rect x="2.5" y="6.5" width="37" height="19" rx="1.5" fill="#F6F6F6" stroke="#878787"/>
</svg>
