<svg width="52" height="40" viewBox="0 0 52 40" fill="none" xmlns="http://www.w3.org/2000/svg">
<path fill-rule="evenodd" clip-rule="evenodd" d="M5.05998 36.7094C4.1942 36.6402 3.05138 36.5363 2.1856 36.3977C1.66614 36.2939 1.25056 36.1553 1.11204 35.9822C0.592575 35.4281 0.627209 33.6965 0.661839 32.8308C0.661839 32.623 1.1813 32.623 1.14667 32.3805C1.14667 27.7746 1.21593 24.6925 1.45835 19.013C1.52761 18.4242 2.01245 18.1126 2.56655 18.0433C3.18991 17.974 3.77864 18.0087 5.19851 18.0087L32.6306 18.1472C34.6392 18.1472 36.0244 18.2164 37.7214 19.4285C39.4529 20.6752 41.7727 23.0455 42.5 24.5C44.1623 25.0887 45.6172 26.0431 47.9375 26.8742C48.5263 27.082 49.0111 27.1859 49.115 27.8785C49.1842 28.4672 49.1842 29.3676 49.1842 30.0603C49.1842 30.9953 49.115 31.6533 49.2189 31.965C49.2881 32.2074 49.8076 32.0342 49.9115 32.2767C50.0154 32.4498 49.9461 32.6922 49.9808 33.0039C50.0154 33.6965 50.0154 34.5623 49.8769 35.1857C49.7383 35.7744 49.5998 36.0514 49.3228 36.2592C49.115 36.4324 48.9072 36.5363 48.6302 36.5709L47.1756 36.6402C46.5177 36.5709 46.7254 36.467 46.8293 35.6705C46.864 35.4973 46.864 35.2896 46.864 35.1164C46.864 32.5191 44.7515 30.4066 42.1541 30.4066C39.5568 30.4066 37.4443 32.5191 37.4443 35.1164C37.4443 35.532 37.5136 35.9476 37.6175 36.3285C37.8599 37.1596 37.8599 37.2635 36.9249 37.2635L15.1722 37.2289C14.7913 37.2289 14.6182 37.2289 14.5143 37.125C14.445 37.0211 14.4796 36.7441 14.6182 36.2939C14.722 35.9129 14.7567 35.4973 14.7567 35.1164C14.7567 32.5191 12.6442 30.4066 10.0469 30.4066C7.44953 30.4066 5.33703 32.5191 5.33703 35.1164C5.33703 35.4973 5.37166 35.8783 5.47556 36.2592C5.51019 36.5709 5.40629 36.7441 5.05998 36.7094ZM40.2045 26.9021C41.0193 26.8932 41.4709 25.9672 40.9753 25.3205C39.9797 24.0215 38.6201 22.2814 38 21.6406C36.9957 20.6017 35.2972 20.4285 33.8773 20.4285H31.5917C31.3146 20.4285 31.2107 20.5671 31.2454 20.8095C31.2454 21.6406 31.2454 24.7271 31.2454 26C31.3839 26.5887 31.7302 26.7272 32.2497 26.8311C34.4716 26.9414 38.013 26.926 40.2045 26.9021Z" fill="#F6F6F6"/>
<path d="M5.05998 36.7094C4.1942 36.6402 3.05138 36.5363 2.1856 36.3978C1.66614 36.2939 1.25056 36.1553 1.11204 35.9822C0.592572 35.4281 0.627211 33.6965 0.661842 32.8308C0.661842 32.623 1.1813 32.623 1.14667 32.3805C1.14667 27.7746 1.21593 24.6925 1.45835 19.013C1.52761 18.4242 2.01245 18.1126 2.56655 18.0433C3.18991 17.974 3.77864 18.0087 5.19851 18.0087L32.6306 18.1472C34.6392 18.1472 35.8719 18.5441 37.7214 19.4285C40.4736 20.7447 41 23.5 43.4615 24.7271C45.923 25.9542 48.9148 26.5438 49.115 27.8785C49.1842 28.4672 49.1842 29.3677 49.1842 30.0603C49.1842 30.9953 49.115 31.6533 49.2189 31.965C49.2881 32.2074 49.8076 32.0342 49.9115 32.2767C50.0154 32.4498 49.9461 32.6922 49.9808 33.0039C50.0154 33.6965 50.0154 34.5623 49.8769 35.1857C49.7383 35.7744 49.5998 36.0514 49.3228 36.2592C49.115 36.4324 48.9072 36.5363 48.6302 36.5709M36.9249 37.2635L27.0485 37.2462L15.1722 37.2289M42.1195 31.4801C40.1109 31.4801 38.4833 33.1078 38.4833 35.1164C38.4833 37.125 40.1109 38.7527 42.1195 38.7527C44.1281 38.7527 45.7558 37.125 45.7558 35.1164C45.7211 33.1078 44.1281 31.4801 42.1195 31.4801ZM10.0469 31.4801C8.03826 31.4801 6.4106 33.1078 6.4106 35.1164C6.4106 37.125 8.03826 38.7527 10.0469 38.7527C12.0555 38.7527 13.6831 37.125 13.6831 35.1164C13.6485 33.1078 12.0555 31.4801 10.0469 31.4801Z" stroke="#878787" stroke-miterlimit="10"/>
<path d="M5 21C5 20.4477 5.44772 20 6 20H28.263C28.8997 20 29.3742 20.587 29.2408 21.2095L28.1694 26.2095C28.0706 26.6706 27.6631 27 27.1916 27H6C5.44772 27 5 26.5523 5 26V21Z" fill="white"/>
</svg>
