<svg width="58" height="43" viewBox="0 0 58 43" fill="none" xmlns="http://www.w3.org/2000/svg">
<g filter="url(#filter0_f)">
<path fill-rule="evenodd" clip-rule="evenodd" d="M29.2326 38.387C15.5491 38.387 4.46516 38.4704 4.46516 38.5677C4.46516 38.6651 15.5491 38.7485 29.2326 38.7485C42.916 38.7485 54 38.6651 54 38.5677C54 38.4704 42.916 38.387 29.2326 38.387Z" fill="#878787"/>
</g>
<path d="M43.6556 38.1642C41.582 38.0493 39.994 36.2752 40.1089 34.2016C40.2237 32.1279 41.9979 30.54 44.0715 30.6548C46.1452 30.7697 47.7331 32.5438 47.6182 34.6175C47.5034 36.6911 45.7293 38.279 43.6556 38.1642Z" stroke="#878787" stroke-miterlimit="10"/>
<path d="M16.5405 30.6494C18.6014 30.6494 20.3008 32.3488 20.3008 34.4097C20.3008 36.4707 18.6014 38.17 16.5405 38.17C14.4795 38.17 12.7802 36.4707 12.7802 34.4097C12.7802 32.3488 14.4795 30.6494 16.5405 30.6494Z" stroke="#878787" stroke-miterlimit="10"/>
<path d="M6.81381 32.5295C6.81381 32.3126 7.32 32.3126 7.32 32.1318C7.39232 30.8663 7.46463 29.4562 7.60926 28.1545C7.79004 26.5998 10.9718 26.5275 12.9243 25.9128C14.3344 25.4789 15.4553 24.5388 17.2631 23.7434C19.2156 22.8756 20.9511 22.0802 23.0121 22.0802C26.3746 22.0802 29.3643 21.6824 31.5099 22.6587C34.5109 23.5988 37.2589 25.3343 40.0791 26.6721C43.514 27.0337 45.3466 27.7206 48.8538 28.5884C49.9747 28.8777 50.4809 29.3839 50.8063 30.0708C51.1679 30.794 51.3486 31.4809 51.5294 31.9148C51.8187 31.951 51.8187 31.8787 51.891 32.0233C51.9995 32.2041 51.9272 32.421 51.9633 32.7103C51.9995 33.3249 51.9995 34.1566 51.8548 34.7351C51.7102 35.2774 51.5656 35.5305 51.3125 35.7475C51.0956 35.8921 50.8786 36.0005 50.5894 36.0367L49.3239 36.0729C48.5646 35.9282 48.7092 35.8198 48.7454 34.8797C48.7454 34.7351 48.7454 34.5904 48.7454 34.4458C48.7454 31.734 46.5759 29.5646 43.8642 29.5646C41.1524 29.5646 38.983 31.734 38.983 34.4458C38.983 34.7351 38.983 34.9882 39.0192 35.2413C39.1276 36.8683 39.2723 36.5791 37.7898 36.6514L22.2889 36.6152C21.2042 36.4706 21.2765 36.6152 21.385 35.2413C21.4212 34.9882 21.4212 34.6989 21.4212 34.4096C21.4212 31.6979 19.2518 29.5285 16.54 29.5285C13.8282 29.5285 11.6588 31.6979 11.6588 34.4096C11.6588 34.6266 11.6588 34.8797 11.695 35.0966C11.7673 36.2175 11.478 36.109 10.7187 36.0729C9.95945 36.0005 9.09169 35.9282 8.40471 35.8198C7.86236 35.7113 7.46463 35.6028 7.28384 35.4582C6.74149 34.952 6.81381 33.3611 6.81381 32.5295ZM26.5079 23.3818C26.7972 24.1411 26.9056 25.8405 27.0864 26.9613C27.1587 27.5037 27.3033 27.6483 27.8457 27.6483C30.0151 27.6845 34.8725 28.0822 34.8725 27.9737C35.0895 27.8653 35.9211 26.9252 36.5719 26.4551C35.1256 25.4066 33.0285 24.2496 31.1122 23.5988C30.4252 23.3818 29.6174 23.0926 28.3519 23.0564L26.7248 23.0203C26.4356 23.0203 26.3994 23.1649 26.5079 23.3818ZM17.2631 25.9851C17.3354 26.2382 17.5885 26.7082 17.7332 26.9252C17.8416 27.0698 17.9501 27.1783 18.2032 27.1783C18.854 27.2144 20.1195 27.2506 20.8788 27.2868C22.9759 27.3952 23.2176 27.5399 25.0616 27.576C25.8209 27.576 25.8571 27.7568 25.7848 27.106C25.4955 24.6473 25.4232 23.8157 25.2063 23.2372C25.1701 23.1287 24.9532 23.0564 24.8085 23.0564L22.9521 23.0926C22.0844 23.0926 22.2166 23.2733 21.3488 23.5264C21.2042 23.5626 20.9511 23.6711 20.6257 23.8157L20.1195 24.0326C19.0348 24.5388 17.6609 25.262 17.4439 25.5512C17.1908 25.732 17.1908 25.8043 17.2631 25.9851Z" fill="#F6F6F6"/>
<path d="M49.3239 36.0729L50.5894 36.0367C50.8786 36.0006 51.0956 35.8921 51.3125 35.7475C51.5656 35.5305 51.7102 35.2774 51.8548 34.7351C51.9995 34.1566 51.9995 33.3249 51.9633 32.7103C51.9272 32.421 51.9995 32.2041 51.891 32.0233C51.8187 31.8787 51.8187 31.951 51.5294 31.9148C51.3486 31.4809 51.1679 30.794 50.8063 30.0708C50.4809 29.3839 49.9747 28.8777 48.8538 28.5884C45.3466 27.7206 43.514 27.0337 40.0791 26.6721C37.2589 25.3343 34.5109 23.5988 31.5099 22.6587C28.3643 21.6824 26.3747 22.0802 23.0121 22.0802C20.9511 22.0802 19.2156 22.8756 17.2631 23.7434C15.4553 24.5388 14.3344 25.4789 12.9243 25.9128C10.9718 26.5275 7.79004 26.5998 7.60926 28.1545C7.46463 29.4562 7.39232 30.8663 7.32 32.1318C7.32 32.3126 6.81381 32.3126 6.81381 32.5295C6.81381 33.3611 6.74149 34.952 7.28384 35.4582C7.46463 35.6028 7.86236 35.7113 8.40471 35.8198C9.09169 35.9282 9.95945 36.0005 10.7187 36.0729M37.7898 36.6514L22.2889 36.6152" stroke="#878787" stroke-miterlimit="10"/>
</svg>
