<svg width="52" height="40" viewBox="0 0 52 40" fill="none" xmlns="http://www.w3.org/2000/svg">
<path d="M5.74971 26.6725V22.3179C5.74971 22.0059 5.95599 21.7279 6.26273 21.6292L10.4943 20.2641C12.088 17.6521 14.2788 15.1664 19.1201 14.3456C19.129 14.3441 19.1381 14.3427 19.147 14.3412C28.0879 13.1452 34.8004 15.0967 39.1099 20.1437C42.3177 20.1886 45.5923 20.8375 47.5182 22.0306C48.5157 22.649 49.1075 23.7253 49.163 24.8705L49.25 26.6726C49.664 26.6726 50 26.9977 50 27.3983V30.3013C50 30.7019 49.664 31.027 49.25 31.027H46.25C45.8338 31.027 45.5008 30.6961 45.5001 30.2933C45.5001 30.2896 45.4993 30.2861 45.4993 30.2817C45.488 27.4853 43.1427 25.2209 40.25 25.2209C37.3504 25.2209 35 27.4954 35 30.3012C35.0539 30.7418 34.6947 31.0269 34.25 31.0269H20.7499C20.3337 31.0269 20.0006 30.696 19.9999 30.2932C19.9999 30.2896 19.9992 30.286 19.9992 30.2816C19.988 27.4852 17.6427 25.2209 14.7499 25.2209C11.8504 25.2209 9.49994 27.4953 9.49994 30.3011C9.55391 30.7417 9.19469 31.0269 8.74997 31.0269H5.74998C5.33601 31.0269 5 30.7017 5 30.3011V27.3981C4.99974 26.9976 5.33574 26.6725 5.74971 26.6725ZM25.9998 19.7779C25.9998 19.9781 26.1678 20.1408 26.3749 20.1408H36.1557C36.5021 20.1408 36.6596 19.7285 36.4039 19.5028C33.8014 17.2072 30.4917 15.8943 26.4131 15.5453C26.1934 15.5264 25.9998 15.6977 25.9998 15.9111V19.7779ZM16.9893 19.7814C16.9916 19.9803 17.1589 20.1407 17.3643 20.1407H24.1248C24.3318 20.1407 24.4999 19.9781 24.4999 19.7778V15.8151C24.4999 15.6141 24.3341 15.4487 24.1271 15.4487C22.6317 15.4472 21.0491 15.5524 19.3669 15.7775C18.5658 15.9139 17.8519 16.1012 17.2024 16.3312C17.0531 16.3842 16.9579 16.5243 16.9593 16.6781L16.9893 19.7814ZM13.075 20.1407H15.1142C15.3227 20.1407 15.4915 19.9759 15.4893 19.7742L15.4698 17.8074C15.4668 17.5077 15.1135 17.3451 14.8638 17.5222C14.053 18.0955 13.3787 18.7784 12.778 19.5536C12.5905 19.7952 12.7631 20.1407 13.075 20.1407Z" fill="#F6F6F6"/>
<path d="M18.3784 31.0271C18.3784 29.0273 16.7294 27.3784 14.7297 27.3784C12.73 27.3784 11.0811 28.9922 11.0811 31.0271C11.0811 33.0268 12.73 34.6757 14.7297 34.6757C16.7294 34.6757 18.3784 33.0268 18.3784 31.0271Z" stroke="#878787" stroke-miterlimit="10"/>
<path d="M43.9189 31.0271C43.9189 29.0273 42.27 27.3784 40.2702 27.3784C38.2705 27.3784 36.6216 28.9922 36.6216 31.0271C36.6216 33.0268 38.2705 34.6757 40.2702 34.6757C42.27 34.6757 43.9189 33.0268 43.9189 31.0271Z" stroke="#878787" stroke-miterlimit="10"/>
<path d="M47.4663 31.027H49.25C49.664 31.027 50 30.7019 50 30.3013V27.3983C50 26.9977 49.664 26.6726 49.25 26.6726L49.163 24.8705C49.1075 23.7253 48.5157 22.649 47.5182 22.0306C45.5923 20.8375 42.3177 20.1886 39.1099 20.1437C34.8004 15.0967 28.0879 13.1452 19.147 14.3412C19.1381 14.3427 19.129 14.3441 19.1201 14.3456C14.2788 15.1664 12.088 17.6521 10.4943 20.2641L6.26273 21.6292C5.95599 21.7279 5.74971 22.0059 5.74971 22.3179V26.6725C5.33574 26.6725 4.99974 26.9976 5 27.3981V30.3011C5 30.7017 5.33601 31.0269 5.74997 31.0269H7.24997M33.0338 31.0269H22.6351" stroke="#878787"/>
<path d="M3 13H2V14V23.9V24.9H3H4.7V32V35.6989L6.56378 32.5039L12.8638 21.7039L13.741 20.2H12H10.018L12.8944 14.4472L13.618 13H12H3Z" stroke="white" stroke-width="2"/>
<path d="M2 13.5H1.5V14V23.9V24.4H2H4.2V32V33.8495L5.13189 32.2519L11.4319 21.4519L11.8705 20.7H11H8.20902L11.4472 14.2236L11.809 13.5H11H2Z" fill="#F6F6F6" stroke="#878787"/>
</svg>
