<svg width="26" height="40" viewBox="0 0 26 40" fill="none" xmlns="http://www.w3.org/2000/svg">
<path d="M3 36.5C2.17157 36.5 1.5 35.8284 1.5 35L1.5 10C1.5 9.17157 2.17157 8.5 3 8.5L19.1715 8.5C19.6721 8.5 20.1396 8.74964 20.418 9.16555L24.2465 14.8843C24.4118 15.1312 24.5 15.4216 24.5 15.7188L24.5 35C24.5 35.8284 23.8284 36.5 23 36.5L3 36.5Z" fill="#F6F6F6" stroke="#878787"/>
<circle cx="8.5" cy="17.5" r="1.5" fill="#878787"/>
<rect x="11" y="17" width="8" height="1" rx="0.5" fill="#878787"/>
<circle cx="8.5" cy="22.5" r="1.5" fill="#878787"/>
<rect x="11" y="22" width="8" height="1" rx="0.5" fill="#878787"/>
<circle cx="8.5" cy="27.5" r="1.5" fill="#878787"/>
<rect x="11" y="27" width="8" height="1" rx="0.5" fill="#878787"/>
</svg>
