<svg width="54" height="40" viewBox="0 0 54 40" fill="none" xmlns="http://www.w3.org/2000/svg">
<path fill-rule="evenodd" clip-rule="evenodd" d="M3.10394 35.9047C3.07191 35.9047 3.03988 35.8727 3.00784 35.8727C2.33513 35.7446 2.04683 35.8407 1.95073 34.9758C1.8226 33.9507 1.85463 32.349 1.82259 31.7404C1.79056 31.2919 1.85463 30.9075 2.3031 30.8114C2.55937 30.7473 2.84768 30.7153 2.84768 30.5871C2.94378 29.0495 3.168 27.8322 3.52037 26.7111C4.09698 24.8211 4.67359 23.2514 5.76273 21.1052C6.33934 19.9519 6.14716 20.016 7.62071 20.016C13.0344 20.016 18.7364 19.9519 24.2142 20.0801C27.8981 20.1442 31.4538 20.1762 32.9914 20.6567C34.9775 21.7458 36.8355 24.4367 38.2129 25.5578C41.7687 25.9423 45.7088 26.1985 49.3286 27.0955C50.61 27.4158 51.0264 27.4478 51.2506 28.7933C51.3788 29.5621 51.4108 30.427 51.5069 30.8755C51.603 30.8755 51.6671 30.8755 51.7311 30.8755C51.9233 30.8755 51.9554 31.0997 51.9554 31.3239C51.9874 32.1248 52.0515 33.8546 51.9233 34.8476C51.7952 35.6805 51.3467 35.9368 50.61 35.9368H49.2966C48.2715 35.9368 48.4637 35.8407 48.3676 34.8476C48.1754 32.0927 45.869 29.8824 43.05 29.8824C40.231 29.8824 37.9246 32.0607 37.7324 34.8156C37.6683 35.8727 37.8605 35.9047 36.7714 35.9047H15.7252C14.4759 35.9047 14.7322 35.8407 14.572 34.6234C14.2837 31.9646 12.0093 29.8824 9.25442 29.8824C6.46748 29.8824 4.16106 32.0287 3.93683 34.7836C3.87276 35.3922 4.06495 35.9368 3.42428 35.9368H3.10394V35.9047ZM33.9845 26.2626C34.2407 26.0384 34.9455 25.2695 35.5221 24.789C35.5861 24.725 35.6502 24.6609 35.5861 24.5968C34.529 23.2194 33.6321 22.4506 32.639 21.6497C31.9343 21.4255 27.8981 21.2974 26.6167 21.2653C26.0721 21.2653 25.4955 21.2333 24.9509 21.2333C24.6626 21.2333 24.5986 21.3614 24.6947 21.6177C24.8548 22.4506 25.1111 24.1484 25.3033 25.3016C25.3994 25.8782 25.5275 26.1985 26.1042 26.1665C28.3465 26.2626 34.0165 26.4548 33.9845 26.2626ZM15.0205 25.3656C15.1166 24.3726 15.6291 22.867 15.9495 21.874C16.0776 21.4896 16.2057 21.1372 16.6222 21.1372C18.7684 21.2013 20.7225 21.1692 22.8367 21.2333C22.9969 21.2333 23.2211 21.3294 23.2532 21.4255C23.4774 22.0341 23.5415 22.8991 23.8618 25.4297C23.9579 26.1345 23.8938 26.2306 23.125 26.1985C21.4272 26.1985 18.1918 26.1985 15.8854 26.1345C15.1807 26.1345 14.9244 26.1985 15.0205 25.3656ZM12.0734 25.4297C12.4258 24.6289 13.0024 23.2835 13.5469 22.0662C13.8673 21.3614 13.8673 21.1372 13.0344 21.1052C11.4007 21.0731 8.32545 21.1052 7.1402 21.1372C7.0441 21.1372 6.72376 21.2974 6.65969 21.3935C6.33936 22.0021 6.01901 22.6428 5.09003 25.2055C4.83377 25.9102 4.96189 26.1665 5.4424 26.1345C6.56358 26.1024 9.35052 26.1345 11.0163 26.1345C11.5608 26.1665 11.8491 25.8782 12.0734 25.4297Z" fill="#F6F6F6"/>
<path d="M49.2966 35.9368H50.61C51.3467 35.9368 51.7952 35.6805 51.9233 34.8476C52.0515 33.8546 51.9874 32.1248 51.9554 31.3239C51.9554 31.0997 51.9233 30.8755 51.7311 30.8755C51.6671 30.8755 51.603 30.8755 51.5069 30.8755C51.4108 30.427 51.3788 29.5621 51.2506 28.7933C51.0264 27.4478 50.61 27.4158 49.3286 27.0955C45.7088 26.1985 41.7687 25.9423 38.2129 25.5578C36.8355 24.4367 34.9775 21.7458 32.9914 20.6567C31.4538 20.1762 27.8981 20.1442 24.2142 20.0801C18.7364 19.9519 13.0344 20.016 7.6207 20.016C6.14715 20.016 6.33934 19.9519 5.76273 21.1052C4.67359 23.2514 4.09698 24.8211 3.52037 26.7111C3.168 27.8322 2.94378 29.0495 2.84768 30.5871C2.84768 30.7153 2.55937 30.7473 2.3031 30.8114C1.85462 30.9075 1.79056 31.2919 1.82259 31.7404C1.85462 32.349 1.8226 33.9507 1.95073 34.9758C2.04683 35.8407 2.33513 35.7446 3.00784 35.8727C3.03988 35.8727 3.07191 35.9047 3.10394 35.9047V35.9368H3.42427M36.7714 35.9047H15.7252M43.05 30.9395C40.6795 30.9395 38.7895 32.8615 38.7895 35.2C38.7895 37.5705 40.7115 39.4605 43.05 39.4605C45.4205 39.4605 47.3105 37.5385 47.3105 35.2C47.3105 32.8615 45.4205 30.9395 43.05 30.9395ZM9.25442 30.9395C6.88393 30.9395 4.99393 32.8615 4.99393 35.2C4.99393 37.5705 6.91596 39.4605 9.25442 39.4605C11.6249 39.4605 13.5149 37.5385 13.5149 35.2C13.5469 32.8615 11.6249 30.9395 9.25442 30.9395Z" stroke="#878787" stroke-miterlimit="10"/>
</svg>
