<svg width="57" height="40" viewBox="0 0 57 40" fill="none" xmlns="http://www.w3.org/2000/svg">
<path d="M20.5133 15.4487C20.5133 15.4487 22.7098 14.5847 24.1201 14.3456C24.129 14.3441 24.1381 14.3427 24.147 14.3412C33.0879 13.1452 39.8004 15.0967 44.1099 20.1437C47.3177 20.1886 50.5923 20.8375 52.5182 22.0306C53.5157 22.649 54.1075 23.7253 54.163 24.8705L54.25 26.6726C54.664 26.6726 55 26.9977 55 27.3983V30.3013C55 30.7019 54.664 31.027 54.25 31.027H51.25C50.8338 31.027 50.5008 30.6961 50.5001 30.2933C50.5001 30.2896 50.4993 30.2861 50.4993 30.2817C50.488 27.4853 48.1427 25.2209 45.25 25.2209C42.3504 25.2209 40 27.4954 40 30.3012C40.0539 30.7418 39.6947 31.0269 39.25 31.0269H25.7499C25.3337 31.0269 25.0006 30.696 24.9999 30.2932C24.9999 30.2896 24.9992 30.286 24.9992 30.2816C24.988 27.4852 22.8928 25.5 20 25.5C23.2501 22.2791 20.5133 15.4487 20.5133 15.4487ZM30.9998 19.7779C30.9998 19.9781 31.1678 20.1408 31.3749 20.1408H41.1557C41.5021 20.1408 41.6596 19.7285 41.4039 19.5028C38.8014 17.2072 35.4917 15.8943 31.4131 15.5453C31.1934 15.5264 30.9998 15.6977 30.9998 15.9111V19.7779ZM21.9893 19.7814C21.9916 19.9803 22.1589 20.1407 22.3643 20.1407H29.1248C29.3318 20.1407 29.4999 19.9781 29.4999 19.7778V15.8151C29.4999 15.6141 29.3341 15.4487 29.1271 15.4487C27.6317 15.4472 26.0491 15.5524 24.3669 15.7775C23.5658 15.9139 22.8519 16.1012 22.2024 16.3312C22.0531 16.3842 21.9579 16.5243 21.9593 16.6781L21.9893 19.7814Z" fill="#F6F6F6"/>
<path d="M23.3784 31.0271C23.3784 29.0273 21.7294 27.3784 19.7297 27.3784C17.73 27.3784 16.0811 28.9922 16.0811 31.0271C16.0811 33.0268 17.73 34.6757 19.7297 34.6757C21.7294 34.6757 23.3784 33.0268 23.3784 31.0271Z" stroke="#878787" stroke-miterlimit="10"/>
<path d="M48.9189 31.0271C48.9189 29.0273 47.27 27.3784 45.2702 27.3784C43.2705 27.3784 41.6216 28.9922 41.6216 31.0271C41.6216 33.0268 43.2705 34.6757 45.2702 34.6757C47.27 34.6757 48.9189 33.0268 48.9189 31.0271Z" stroke="#878787" stroke-miterlimit="10"/>
<path d="M52.4663 31.027H54.25C54.664 31.027 55 30.7019 55 30.3013V27.3983C55 26.9977 54.664 26.6726 54.25 26.6726L54.163 24.8705C54.1075 23.7253 53.5157 22.649 52.5182 22.0306C50.5923 20.8375 47.3177 20.1886 44.1099 20.1437C39.8004 15.0967 33.0879 13.1452 24.147 14.3412C24.1381 14.3427 24.129 14.3441 24.1201 14.3456C22.3035 14.6536 20.8601 15.196 19.6813 15.8915M38.0338 31.0269H27.6351" stroke="#878787"/>
<path d="M17.1876 27H4.06245C3.87419 27 3.69869 26.9096 3.59444 26.7584L2.09442 24.5882C1.97967 24.4218 1.96842 24.2077 2.06667 24.0311C2.16417 23.8546 2.35542 23.7447 2.56243 23.7447H12.3126C13.2433 23.7447 14.0001 23.0148 14.0001 22.117C14.0001 21.8175 14.2521 21.5745 14.5626 21.5745H19.4377C19.6327 21.5745 19.8134 21.6721 19.9162 21.8313C20.0182 21.9911 20.0279 22.1915 19.9409 22.3594L17.6909 26.6998C17.5956 26.8835 17.4006 27 17.1876 27Z" fill="#F6F6F6"/>
<path d="M18.5001 18.8617V20.8511H17.3751V18.8617C17.3751 18.5651 17.6301 18.3191 17.9376 18.3191C18.2451 18.3191 18.5001 18.5651 18.5001 18.8617Z" fill="#F6F6F6"/>
<path d="M2.74993 18.6809V23.0213H8.75001V18.6809H2.74993Z" fill="#F6F6F6"/>
<path d="M2.74993 13.9787V18.3191H8.75001V13.9787H2.74993Z" fill="#F6F6F6"/>
<path d="M9.15576 18.6809V23.0213H11.992C12.4832 23.0213 12.8813 22.6372 12.8813 22.1635C12.8813 21.4837 13.4527 20.9327 14.1574 20.9327H14.6017V18.6809H9.15576Z" fill="#F6F6F6"/>
<path d="M9.15578 13.9787V18.3191H14.6017V13.9787H9.15578Z" fill="#F6F6F6"/>
<path d="M8.1875 10H3.31244C3.00193 10 2.74993 10.2431 2.74993 10.5426V13.617H8.75001V10.5426C8.75001 10.2431 8.49801 10 8.1875 10ZM5.37496 12.3511C5.37496 12.6506 5.12296 12.8936 4.81246 12.8936C4.50195 12.8936 4.24995 12.6506 4.24995 12.3511V11.266C4.24995 10.9665 4.50195 10.7234 4.81246 10.7234C5.12296 10.7234 5.37496 10.9665 5.37496 11.266V12.3511ZM7.24999 12.3511C7.24999 12.6506 6.99799 12.8936 6.68748 12.8936C6.37698 12.8936 6.12497 12.6506 6.12497 12.3511V11.266C6.12497 10.9665 6.37698 10.7234 6.68748 10.7234C6.99799 10.7234 7.24999 10.9665 7.24999 11.266V12.3511Z" fill="#F6F6F6"/>
<path d="M1.68282 24.872L1.68311 24.8725L3.18281 27.0422C3.38345 27.3332 3.71526 27.5 4.06245 27.5H15.5V27C15.5 27.5 15.5004 27.5 15.5007 27.5L15.5015 27.5L15.5032 27.5L15.5069 27.5L15.5161 27.4998C15.523 27.4996 15.5313 27.4994 15.5411 27.4989C15.5607 27.498 15.586 27.4963 15.6166 27.4932C15.678 27.4872 15.761 27.4759 15.8629 27.4546C16.0668 27.4121 16.3451 27.3302 16.676 27.1729C17.3402 26.8572 18.1993 26.2462 19.0894 25.0727L19.1152 25.0386L19.1349 25.0006L20.3848 22.5895C20.5548 22.2615 20.5346 21.871 20.3377 21.5623L20.3362 21.5601C20.1392 21.2548 19.7983 21.0745 19.4377 21.0745H19.0001V20.8511V18.8617C19.0001 18.2721 18.5041 17.8191 17.9376 17.8191C17.3712 17.8191 16.8751 18.2721 16.8751 18.8617V20.8511V21.0745H14.5626C14.4683 21.0745 14.3761 21.0868 14.2878 21.1101C14.6366 20.6395 14.9341 19.9546 15.0603 18.8191H15.1017V18.3349L15.1306 17.8777L15.1017 17.8743V13.9787V13.4787H14.6017H9.25001V10.5426C9.25001 9.95005 8.75697 9.5 8.1875 9.5H3.31244C2.74296 9.5 2.24993 9.95005 2.24993 10.5426V13.4787V13.617V13.9787V14.117V17.1809V17.6809V18.3191V18.8191V23.0213V23.2909C1.99198 23.3688 1.76606 23.5422 1.62979 23.788C1.43804 24.1325 1.46124 24.5508 1.68282 24.872ZM13.4847 21.9204C13.4982 21.9061 13.5125 21.8917 13.5281 21.8768C13.5098 21.9535 13.5001 22.0339 13.5001 22.117C13.5001 22.4238 13.3673 22.7096 13.1488 22.9167C13.2951 22.703 13.3813 22.4451 13.3813 22.1635C13.3813 22.053 13.4069 22.0029 13.4847 21.9204Z" stroke="#878787"/>
<path d="M9 13.5V23" stroke="#878787" stroke-width="0.5"/>
<path d="M15 14L2 14" stroke="#878787" stroke-width="0.4"/>
<path d="M15 19L2 19M13 23L2 23" stroke="#878787" stroke-width="0.4"/>
<path d="M14.5 30.9999H12.7499C12.336 30.9999 11.9999 30.6748 11.9999 30.2742V29.7742" stroke="#878787"/>
</svg>
