<svg width="54" height="40" viewBox="0 0 54 40" fill="none" xmlns="http://www.w3.org/2000/svg">
<path d="M52.9919 32.79C52.9028 32.6267 52.0694 32.4316 52.0694 32.4316C51.617 29.5055 51.093 29.3122 51.093 29.3122C48.4382 27.9581 36.9031 27.1839 36.9031 27.1839C34.7243 25.455 32.5952 22.9512 31.3915 22.5535C29.3081 21.8644 4.45537 21.8732 3.94638 22.2815C3.43738 22.6898 2.38122 25.1289 1.52403 29.24C1.36092 30.0225 1.59575 31.7308 1.59575 31.7308C1 31.9111 1 32.2378 1 32.7095C1 33.1812 1.21459 33.4891 1.33894 33.6524C1.46388 33.8151 1.8034 33.8151 2.48186 33.8697C3.16033 33.9244 3.33905 34.8672 3.57099 34.9395C3.80293 35.0118 7.49949 35.339 8.65977 35.339C8.91021 35.339 9.41285 35.3572 10.0659 35.3866C10.0826 34.3702 10.48 33.4168 11.1897 32.6966C11.9144 31.9605 12.8786 31.5551 13.9041 31.5551C14.9296 31.5551 15.8938 31.9605 16.6186 32.6966C17.3439 33.4333 17.743 34.4125 17.743 35.4541C17.743 35.5463 17.7395 35.6386 17.7331 35.7302C17.9373 35.7355 18.1166 35.7379 18.2659 35.7379C20.1405 35.7379 36.4791 36.0098 38.0506 36.0098C38.3896 36.0098 38.9703 35.9781 39.684 35.9288C39.6655 35.7719 39.6557 35.6139 39.6557 35.4541C39.6557 34.4125 40.0548 33.4333 40.7801 32.6966C41.5054 31.9605 42.4696 31.5551 43.4946 31.5551C44.5195 31.5551 45.4837 31.9605 46.209 32.6966C46.9065 33.4056 47.3027 34.3385 47.3311 35.336C47.4323 35.3319 47.5173 35.3296 47.5844 35.3296C48.7806 35.3296 52.565 34.4372 52.7924 34.3174C53.0532 34.1793 53.0486 33.6694 53.0486 33.4521C53.0515 33.2347 53.081 32.9527 52.9919 32.79ZM17.3329 23.484C17.3086 23.5933 16.4283 26.9782 16.4283 26.9782C16.4283 26.9782 16.3392 27.262 16.1067 27.262C15.8742 27.262 3.70807 27.1962 3.54728 27.1962C3.38648 27.1962 3.22569 26.9665 3.32749 26.688C3.42871 26.4102 4.29747 23.6955 4.76134 23.4823C5.14424 23.3066 5.45832 23.319 5.85741 23.3143C7.03619 23.3007 16.821 23.2414 17.0952 23.2414C17.3682 23.242 17.3566 23.3754 17.3329 23.484ZM25.0823 27.353L17.7135 27.262L18.654 23.568C20.3203 23.4229 24.368 23.447 25.0823 23.447V27.353ZM26.6423 27.353L26.19 23.4464C26.19 23.4464 30.5112 23.4599 31.1422 23.8347C31.7733 24.2095 33.7606 26.7362 34.309 27.4136L26.6423 27.353Z" fill="#F6F6F6"/>
<path d="M10.605 35.4616C10.605 33.5024 12.1828 31.8868 14.0964 31.8868C16.01 31.8868 17.5879 33.468 17.5879 35.4616C17.5879 37.4208 16.01 39.0364 14.0964 39.0364C12.1828 39.0364 10.605 37.4208 10.605 35.4616Z" stroke="#878787" stroke-miterlimit="10"/>
<path d="M39.7529 35.4616C39.7529 33.5024 41.3308 31.8868 43.2444 31.8868C45.158 31.8868 46.7358 33.468 46.7358 35.4616C46.7358 37.4208 45.158 39.0364 43.2444 39.0364C41.3308 39.0364 39.7529 37.4208 39.7529 35.4616Z" stroke="#878787" stroke-miterlimit="10"/>
<path d="M8.65977 35.339C7.49949 35.339 3.80293 35.0118 3.57099 34.9395C3.33905 34.8672 3.16033 33.9244 2.48186 33.8697C1.8034 33.8151 1.46388 33.8151 1.33894 33.6524C1.21459 33.4891 1 33.1812 1 32.7095C1 32.2378 1 31.9111 1.59575 31.7308C1.59575 31.7308 1.36092 30.0225 1.52403 29.24C2.38122 25.1289 3.43738 22.6898 3.94638 22.2815C4.45537 21.8732 29.3081 21.8644 31.3915 22.5535C32.3373 22.9963 35.46 25.8249 36.9031 27.1839C36.9031 27.1839 48.4382 27.9581 51.093 29.3122C51.093 29.3122 51.617 29.5055 52.0694 32.4316C52.0694 32.4316 52.9028 32.6267 52.9919 32.79C53.081 32.9527 53.0515 33.2347 53.0486 33.452C53.0486 33.6694 53.0532 34.1793 52.7924 34.3174C52.565 34.4372 48.7806 35.3296 47.5844 35.3296M18.2659 35.7379C20.1405 35.7379 36.4791 36.0098 38.0506 36.0098" stroke="#878787"/>
</svg>
