<svg width="51" height="40" viewBox="0 0 51 40" fill="none" xmlns="http://www.w3.org/2000/svg">
<path fill-rule="evenodd" clip-rule="evenodd" d="M6.65685 31.1666C5.79832 31.0951 4.72516 31.0236 3.93817 30.8447C3.40159 30.7374 3.00809 30.5943 2.82923 30.4154C2.29265 29.8431 2.32843 28.0902 2.3642 27.1602C2.3642 26.9455 2.86501 26.9455 2.86501 26.6951C2.93655 25.3 3.04387 23.8691 3.40159 22.474C3.65199 21.4009 4.18858 20.6854 4.61784 19.8269C4.97556 19.0757 5.8341 16.6789 7.08612 15.3196C7.26498 15.105 7.30075 14.8188 7.26498 14.6042C7.22921 13.996 7.33652 14.0676 7.90888 14.0318C8.55278 13.9603 9.62594 14.0318 11.0926 14.0318L26.1559 14.1391C26.9429 14.1391 32.7299 14.2107 33.4095 14.2822C37.2372 14.5684 38.816 17.7879 42.0712 19.7553C43.3463 20.7927 44.6859 21.4366 46.1184 22.3309C47.0842 22.6887 47.4062 23.1537 47.6923 23.7976C47.8712 24.1911 48.0143 24.7277 48.1931 25.4073C48.3005 25.8366 48.4435 26.2659 48.5509 26.5163C48.837 26.552 48.837 26.4805 48.9086 26.6594C49.0159 26.8382 48.9444 27.0886 48.9801 27.4106C49.0159 28.0902 49.0159 29.0203 48.8728 29.6642C48.7297 30.2723 48.5866 30.5585 48.3362 30.7732C48.1216 30.952 47.907 31.0593 47.6208 31.0951L46.4403 31.1309C45.6533 31.0593 45.6175 31.2024 45.7606 30.2366C45.7964 30.0219 45.7964 29.8073 45.7964 29.5569C45.7964 26.874 43.6501 24.7277 40.9672 24.7277C38.2843 24.7277 36.1379 26.874 36.1379 29.5569C36.1379 30.0219 36.2095 30.487 36.3168 30.9162C36.603 31.8463 36.4599 31.7032 35.7087 31.7748L17.46 31.739C16.673 31.6675 16.3511 31.8463 16.6373 30.8089C16.7446 30.4154 16.8161 29.9862 16.8161 29.5569C16.8161 26.874 14.6698 24.7277 11.9869 24.7277C9.30399 24.7277 7.15767 26.874 7.15767 29.5569C7.15767 29.8431 7.19344 30.1293 7.22921 30.4154C7.33652 30.9162 7.19344 31.2024 6.65685 31.1666ZM25.4031 20.2561C25.1169 17.5375 25.0453 16.3212 24.7949 15.6415C24.7592 15.5342 24.5445 15.4269 24.4014 15.4269L18.8194 15.3911C18.3901 15.3911 18.1397 15.3911 18.1397 15.9635L18.0324 19.8269C18.0324 20.3277 18.0014 20.757 18.538 20.7927C21.1851 20.9 22.1478 20.8285 24.7949 20.8643C25.5104 20.8643 25.4746 20.9716 25.4031 20.2561ZM37.1347 21.1504C37.1347 21.1504 38.6371 19.6838 38.816 19.5049C37.7087 17 35.2439 15.4269 32.3463 15.4269L27.4047 15.4627C27.1185 15.4627 27.1185 15.6058 27.1543 15.8562C27.3689 16.7505 27.5478 18.861 27.6909 20.1131C27.7624 20.7212 27.9055 20.8643 28.4421 20.8643C30.6599 20.8643 37.1705 21.2935 37.1347 21.1504ZM16.7804 19.97C16.8519 18.7179 16.8877 17.4659 16.9592 16.1781C16.9592 15.9635 16.9235 15.8204 16.8877 15.6773C16.8519 15.57 16.673 15.4627 16.53 15.4627C15.0633 15.4269 15.6357 15.4627 14.169 15.4269C12.3315 15.4269 9.07494 15.5 9.07494 15.5C9.07494 15.5 8.31054 16.0008 7.90888 19.8269C7.8563 20.3277 7.90888 20.7407 8.31054 20.757C10.9577 20.8643 13.3105 20.757 15.8105 20.757C16.526 20.7927 16.7446 20.7212 16.7804 19.97Z" fill="#F6F6F6"/>
<path d="M6.65686 31.1666C5.79833 31.0951 4.72516 31.0236 3.93817 30.8447C3.40159 30.7374 3.0081 30.5943 2.82924 30.4154C2.29266 29.8431 2.32843 28.0902 2.3642 27.1602C2.3642 26.9455 2.86501 26.9455 2.86501 26.6951C2.93655 25.3 3.04387 23.8691 3.40159 22.474C3.65199 21.4009 4.18857 20.6854 4.61784 19.8269C4.97556 19.0757 5.8341 16.6789 7.08612 15.3196C7.26498 15.105 7.30076 14.8188 7.26498 14.6042C7.22921 13.996 7.33652 14.0676 7.90888 14.0318C8.55278 13.9603 9.62595 14.0318 11.0926 14.0318L31.1559 14.1391C31.9429 14.1391 32.7299 14.2107 33.4095 14.2822C39.0051 14.7006 41.6341 20.6823 46.1184 22.3309C47.0842 22.6887 47.4062 23.1537 47.6923 23.7976C47.8712 24.1911 48.0143 24.7277 48.1931 25.4073C48.3005 25.8366 48.4435 26.2659 48.5509 26.5163C48.837 26.552 48.837 26.4805 48.9086 26.6594C49.0159 26.8382 48.9444 27.0886 48.9801 27.4106C49.0159 28.0902 49.0159 29.0203 48.8728 29.6642C48.7297 30.2723 48.5866 30.5585 48.3362 30.7732C48.1216 30.952 47.907 31.0593 47.6208 31.0951L46.4403 31.1309M35.7087 31.7748L17.46 31.739M11.9869 25.8366C9.94789 25.8366 8.2666 27.5179 8.2666 29.5569C8.2666 31.5959 9.94789 33.2772 11.9869 33.2772C14.0259 33.2772 15.7072 31.5959 15.7072 29.5569C15.7072 27.4821 14.0259 25.8366 11.9869 25.8366ZM40.9672 25.8366C38.9282 25.8366 37.2469 27.5179 37.2469 29.5569C37.2469 31.5959 38.9282 33.2772 40.9672 33.2772C43.0062 33.2772 44.6875 31.5959 44.6875 29.5569C44.6875 27.4821 43.042 25.8366 40.9672 25.8366Z" stroke="#878787" stroke-miterlimit="10"/>
</svg>
