<svg xmlns="http://www.w3.org/2000/svg" width="12" height="12" viewBox="0 0 12 12" fill="none">
    <path d="M0.671866 0.375H11.3281C11.4901 0.375 11.625 0.50759 11.625 0.675757V11.3242C11.625 11.4924 11.4901 11.625 11.3281 11.625H2.31674H2.16866H0.671866C0.509932 11.625 0.375 11.4924 0.375 11.3242V0.675757C0.375 0.50759 0.509932 0.375 0.671866 0.375Z" stroke="#434343" stroke-width="0.75" stroke-linecap="round"/>
    <path d="M8.613 2.25H1.887C1.67328 2.25 1.5 2.41791 1.5 2.625C1.5 2.83209 1.67328 3 1.887 3H8.613C8.82672 3 9 2.83209 9 2.625C9 2.41791 8.82677 2.25 8.613 2.25Z" fill="#373737"/>
    <path d="M6.35092 3.75H1.89908C1.67869 3.75 1.5 3.91791 1.5 4.125C1.5 4.33209 1.67869 4.5 1.89908 4.5H6.35092C6.57131 4.5 6.75 4.33209 6.75 4.125C6.75 3.91791 6.57136 3.75 6.35092 3.75Z" fill="#373737"/>
    <path d="M9.84375 7.60716C9.84375 8.35803 9.28013 8.93306 8.625 8.93306C7.96987 8.93306 7.40625 8.35803 7.40625 7.60716C7.40625 6.85628 7.96987 6.28125 8.625 6.28125C9.28013 6.28125 9.84375 6.85628 9.84375 7.60716Z" stroke="#434343" stroke-width="0.5625"/>
    <mask id="path-5-inside-1_5328_18497" fill="white">
        <path fill-rule="evenodd" clip-rule="evenodd" d="M11.9795 11.6255C11.9931 11.5597 12 11.4929 12 11.4252C12 10.4267 10.489 9.61719 8.625 9.61719C6.76104 9.61719 5.25 10.4267 5.25 11.4252C5.25 11.4929 5.25694 11.5597 5.27047 11.6255H11.9795Z"/>
    </mask>
    <path d="M11.9795 11.6255V12.188H12.4381L12.5305 11.7388L11.9795 11.6255ZM5.27047 11.6255L4.7195 11.7388L4.81188 12.188H5.27047V11.6255ZM11.4375 11.4252C11.4375 11.4542 11.4346 11.4831 11.4286 11.5122L12.5305 11.7388C12.5516 11.6364 12.5625 11.5316 12.5625 11.4252H11.4375ZM8.625 10.1797C9.48296 10.1797 10.2318 10.3672 10.7459 10.6426C11.2835 10.9306 11.4375 11.2335 11.4375 11.4252H12.5625C12.5625 10.6184 11.961 10.0173 11.2771 9.65092C10.5697 9.27192 9.631 9.05469 8.625 9.05469V10.1797ZM5.8125 11.4252C5.8125 11.2335 5.96651 10.9306 6.50414 10.6426C7.01819 10.3672 7.76704 10.1797 8.625 10.1797V9.05469C7.619 9.05469 6.68035 9.27192 5.97289 9.65092C5.28901 10.0173 4.6875 10.6184 4.6875 11.4252H5.8125ZM5.82143 11.5122C5.81545 11.4831 5.8125 11.4542 5.8125 11.4252H4.6875C4.6875 11.5316 4.69843 11.6364 4.7195 11.7388L5.82143 11.5122ZM5.27047 12.188H11.9795V11.063H5.27047V12.188Z" fill="#434343" mask="url(#path-5-inside-1_5328_18497)"/>
</svg>   