<svg width="56" height="40" viewBox="0 0 56 40" fill="none" xmlns="http://www.w3.org/2000/svg">
<path d="M42 35.5748C42 33.6155 43.5779 32 45.4915 32C47.405 32 48.9829 33.5811 48.9829 35.5748C48.9829 37.534 47.405 39.1495 45.4915 39.1495C43.5779 39.1495 42 37.534 42 35.5748Z" stroke="#878787" stroke-miterlimit="10"/>
<path d="M8.99999 35.5748C8.99999 33.6155 10.5779 32 12.4915 32C14.405 32 15.9829 33.5811 15.9829 35.5748C15.9829 37.534 14.405 39.1495 12.4915 39.1495C10.5779 39.1495 8.99999 37.534 8.99999 35.5748Z" stroke="#878787" stroke-miterlimit="10"/>
<path d="M1.0157 32.3643C1.02983 31.8302 1.19555 31.3096 1.49495 30.8652L1.71338 30.5392L2.66807 28.0207C2.84792 27.5452 3.28696 27.2143 3.79283 27.1719C4.73177 27.0926 6.32653 26.972 7.84904 26.916C13.1707 24.09 23.0111 21.2487 31.356 24.3454C33.0682 24.9805 37.9601 27.4664 37.9601 27.4664C37.9601 27.4664 45.9041 27.2654 51.5697 29.2862C53.8018 30.0822 55.2097 32.298 54.9744 34.6568C54.9272 35.1289 54.8576 35.549 54.7891 35.888C54.681 36.4243 54.2382 36.8286 53.6943 36.8889L50.1695 37.2752C50.3912 36.8123 50.5471 36.3119 50.6139 35.7783C50.6422 35.5604 50.6563 35.3588 50.6563 35.1632C50.6563 32.4643 48.4606 30.2686 45.7617 30.2686C43.0623 30.2686 40.866 32.4648 40.866 35.1632C40.866 35.3045 40.8752 35.4425 40.8866 35.5805C40.9383 36.1863 41.1034 36.7607 41.3583 37.2839H16.8825L16.6841 37.2725C16.9015 36.815 17.0553 36.32 17.121 35.7946C17.1493 35.5756 17.1628 35.3745 17.1628 35.1822C17.1628 32.4925 14.9753 30.3039 12.2851 30.3039C9.59487 30.3039 7.40675 32.4915 7.40675 35.1822C7.40675 35.3229 7.41598 35.4599 7.42739 35.5973C7.46108 35.9962 7.54856 36.3787 7.67353 36.7438L7.12311 36.7107L3.33097 36.2092C2.67133 36.1217 2.08939 35.7332 1.75631 35.1572L1.37867 34.5057C1.1184 34.0547 0.9869 33.5402 1.00103 33.0196L1.0157 32.3643ZM14.4487 27.5104H33.0106C33.0106 27.5104 32.9003 27.0709 33.3855 26.54C33.3855 26.54 28.6403 23.4792 21.312 24.2437C19.2955 24.4546 16.8314 24.5975 13.4767 26.3411L14.4487 27.5104Z" fill="#F6F6F6"/>
<path d="M50.1695 37.2752L53.6943 36.8889C54.2382 36.8286 54.681 36.4243 54.7891 35.888C54.8576 35.549 54.9272 35.1289 54.9744 34.6568C55.2097 32.298 53.8018 30.0822 51.5697 29.2862C45.9041 27.2654 37.9601 27.4664 37.9601 27.4664C37.9601 27.4664 33.0682 24.9805 31.356 24.3454C23.0111 21.2487 13.1707 24.09 7.84904 26.916C6.32653 26.972 4.73176 27.0926 3.79283 27.1719C3.28696 27.2143 2.84792 27.5452 2.66807 28.0207L1.71338 30.5392L1.49495 30.8652C1.19555 31.3096 1.02983 31.8302 1.0157 32.3643L1.00103 33.0196C0.986902 33.5402 1.1184 34.0547 1.37867 34.5057L1.7563 35.1572C2.08939 35.7332 2.67133 36.1217 3.33097 36.2092L7.12311 36.7107L7.67353 36.7438M41.3583 37.2839H16.8825" stroke="#878787"/>
</svg>
