<svg width="44" height="40" viewBox="0 0 44 40" fill="none" xmlns="http://www.w3.org/2000/svg">
<path d="M21.756 30.3016C21.3773 30.982 21.4244 31.8087 21.8596 32.4398L21.8605 32.441L25.2499 30.0213H28.25H28.6558V30.7447H24.3348L24.3292 30.7365M21.756 30.3016L22.2499 30.5765V30.0213V29.7112M21.756 30.3016C21.8852 30.0691 22.054 29.871 22.2499 29.7112M21.756 30.3016C21.7552 30.303 21.7545 30.3044 21.7537 30.3059L22.2499 30.58M22.2499 29.7112C22.6198 29.4095 23.086 29.2447 23.5624 29.2447H23.7499V28.5213V27.1809V26.8191H22.2499V29.7112ZM22.2499 30.58V31.5213H23.055C22.9786 31.3669 22.9811 31.1848 23.0667 31.0311M22.2499 30.58L23.0667 31.0311M22.2499 30.58L23.0667 31.0311M23.0667 31.0311C23.1642 30.8546 23.3554 30.7447 23.5624 30.7447H23.7499H24.3148L24.3284 30.7353L24.3292 30.7365M24.3292 30.7365L24.3174 30.7447H24.3348C24.3329 30.742 24.3311 30.7392 24.3292 30.7365ZM29.75 29.2447H30.1558V28.5213V27.1809V26.8191L29.75 29.2447ZM29.75 29.2447V28.5213M29.75 29.2447V28.5213M36.8751 27.0745V27.8511V27.9327V28.5745H35.6017H35.5626C35.4035 28.5745 35.2597 28.6383 35.1574 28.7408C35.06 28.8384 35.0001 28.971 35.0001 29.117C35.0001 29.1326 34.9999 29.148 34.9994 29.1635C34.9738 30.0398 34.2272 30.7447 33.3126 30.7447H32.992H31.25V30.0213H31.6558H32.992C33.105 30.0213 33.2131 30.0009 33.3126 29.9639C33.6453 29.8398 33.8813 29.5282 33.8813 29.1635C33.8813 29.1479 33.8816 29.1324 33.8822 29.117C33.9075 28.4588 34.4688 27.9327 35.1574 27.9327H35.5626H35.6017V27.1809V27.0745H36.8751ZM36.8751 27.0745H37.1017M36.8751 27.0745V26.8191M37.1017 27.0745V27.8511V27.9327V28.5745H38.3751H39.5001H40.4377C40.6327 28.5745 40.8134 28.6721 40.9162 28.8313C41.0165 28.9885 41.0276 29.185 40.9451 29.3511H41.0001V28.7777V28.7771V27.8511V27.152C40.8185 27.101 40.6292 27.0745 40.4377 27.0745H39.8751M37.1017 27.0745H38.0001M37.1017 27.0745V26.8191H36.8751M39.8751 27.0745V25.8617C39.8751 26.1963 39.7206 26.4625 39.5001 26.6284V27.0745H39.8751ZM39.8751 27.0745V27.8511H39.5001H38.3751H38.0001V27.0745M38.0001 27.0745H38.3751V26.6284C38.1546 26.4625 38.0001 26.1963 38.0001 25.8617V27.0745ZM36.8751 26.8191V25.8617C36.8751 25.8006 36.8778 25.7403 36.8829 25.6809C36.8938 25.556 36.9158 25.4352 36.9478 25.3191C36.9857 25.1818 37.0377 25.0511 37.1017 24.9283V24.1809H35.6017V25.3191H34.1017H31.6558H31.25V25.3191V25.6809H31.6558H34.1017H35.6017V26.4327V26.8191H36.8751ZM22.2499 22.117V20.9787V20.617V19.4787V17.5426C22.2499 16.364 23.225 15.5 24.3124 15.5H29.1875C30.2749 15.5 31.25 16.364 31.25 17.5426V19.4787L22.2499 22.117ZM22.2499 22.117V24.1809V22.117ZM29.75 28.5213V27.1809V26.8191V28.5213ZM30.1558 22.4787V22.117V23.8191V22.4787ZM28.1136 18.5C28.1611 18.5247 28.2068 18.5536 28.25 18.5862V19.0308C28.2068 19.0634 28.1611 19.0923 28.1136 19.117H27.875V18.5H28.1136ZM25.3863 19.117C25.3388 19.0923 25.2931 19.0634 25.2499 19.0308V18.5862C25.2931 18.5536 25.3388 18.5247 25.3863 18.5H25.625V19.117H25.3863ZM23.7499 24.1809V23.8191V24.1809ZM23.3605 34.6113L24.5944 33.7584L23.3595 34.6099C23.3598 34.6102 23.36 34.6105 23.3602 34.6108C23.3603 34.611 23.3604 34.6111 23.3605 34.6113Z" fill="#F6F6F6" stroke="white" stroke-width="3"/>
<path d="M22.6828 31.872L22.6831 31.8725L24.1828 34.0422C24.3835 34.3332 24.7153 34.5 25.0624 34.5H38.1876C38.5809 34.5 38.9506 34.2851 39.1348 33.9299L41.3848 29.5895C41.5548 29.2615 41.5346 28.871 41.3377 28.5623L41.3362 28.5601C41.1392 28.2548 40.7983 28.0745 40.4377 28.0745H40.0001V27.8511V25.8617C40.0001 25.2721 39.5041 24.8191 38.9376 24.8191C38.3712 24.8191 37.8751 25.2721 37.8751 25.8617V27.8511V28.0745H36.1017V27.9327V25.8191V25.6809V25.3191V25.1809V20.9787V20.4787H35.6017H30.25V17.5426C30.25 16.9501 29.757 16.5 29.1875 16.5H24.3124C23.743 16.5 23.2499 16.9501 23.2499 17.5426V20.4787V20.617V20.9787V21.117V25.1809V25.3191V25.6809V25.8191V30.0213V30.2909C22.992 30.3688 22.7661 30.5422 22.6298 30.788C22.438 31.1325 22.4612 31.5508 22.6828 31.872ZM34.3813 29.1635C34.3813 28.9629 34.4701 28.7739 34.6178 28.6383C34.5429 28.7803 34.5001 28.9425 34.5001 29.117C34.5001 29.4238 34.3673 29.7096 34.1488 29.9167C34.2951 29.703 34.3813 29.4451 34.3813 29.1635Z" fill="#F6F6F6" stroke="#878787"/>
<path d="M3 36.5C2.17157 36.5 1.5 35.8284 1.5 35L1.5 10C1.5 9.17157 2.17157 8.5 3 8.5L19.1715 8.5C19.6721 8.5 20.1396 8.74964 20.418 9.16555L24.2465 14.8843C24.4118 15.1312 24.5 15.4216 24.5 15.7188L24.5 35C24.5 35.8284 23.8284 36.5 23 36.5L3 36.5Z" fill="#F6F6F6" stroke="#878787"/>
<circle cx="8.5" cy="17.5" r="1.5" fill="#878787"/>
<rect x="11" y="17" width="8" height="1" rx="0.5" fill="#878787"/>
<circle cx="8.5" cy="22.5" r="1.5" fill="#878787"/>
<rect x="11" y="22" width="8" height="1" rx="0.5" fill="#878787"/>
<circle cx="8.5" cy="27.5" r="1.5" fill="#878787"/>
<rect x="11" y="27" width="8" height="1" rx="0.5" fill="#878787"/>
</svg>
