<svg width="57" height="40" viewBox="0 0 57 40" fill="none" xmlns="http://www.w3.org/2000/svg">
<path d="M51.4456 23.5789H54.7263C54.2245 22.421 53.7228 21.6491 53.7228 21.6491L41.1789 20.1053L38.0912 15.3193C36.7789 13.2351 34.5017 12 32.0316 12H25.9333C20.0666 12 14.7403 15.0877 11.6526 19.7193H1V23.5789H3.31579V26.2807H1V26.2421C1 28.0561 2.50526 29.3684 4.3193 29.3684H9.33683C9.33683 26.6667 11.7298 24.0035 14.7017 24.0035C17.6351 24.0035 20.0281 26.6667 20.0281 29.3684H34.6561C34.6561 26.6667 37.0491 24.0035 39.9824 24.0035C42.9158 24.0035 45.3087 26.6667 45.3087 29.3684H53.607C54.8035 29.3684 55.7298 28.4807 55.7298 27.3228V27.4386C55.7298 27.0526 55.6526 26.6667 55.5368 26.2807H53.1052L51.4456 23.5789ZM35.5438 16.9403L37.3579 19.7193H28.0175V15.0877H32.0316C33.4596 15.0877 34.7719 15.7439 35.5438 16.9403ZM24.9298 15.0877V19.7193H15.4737C17.8281 17.0175 21.0702 15.3965 24.9298 15.0877Z" fill="#F6F6F6"/>
<path d="M10 29.5C10 27.0143 12.0143 25 14.5 25C16.9857 25 18.9571 27.0143 19 29.5C19 31.9857 16.9857 34 14.5 34C12.0143 34 10 31.9857 10 29.5Z" stroke="#878787" stroke-miterlimit="10"/>
<path d="M35 29.5C35 27.0143 37.0143 25 39.5 25C41.9857 25 43.9571 27.0143 44 29.5C44 31.9857 41.9857 34 39.5 34C37.0143 34 35 31.9857 35 29.5Z" stroke="#878787" stroke-miterlimit="10"/>
<path d="M9.33683 29.3684H4.3193C2.50526 29.3684 1 28.0561 1 26.2421V26.2807V23.5789V19.7193H11.6526C14.7403 15.0877 20.0666 12 25.9333 12H32.0316C34.5017 12 36.7789 13.2351 38.0912 15.3193L41.1789 20.1053L53.7228 21.6491C54.8387 23.366 55.207 25.3723 55.7298 27.3228C55.7298 28.4807 54.8035 29.3684 53.607 29.3684H45.3087M21.0281 29.3684H33.6561" stroke="#878787"/>
</svg>
