<svg width="58" height="40" viewBox="0 0 58 40" fill="none" xmlns="http://www.w3.org/2000/svg">
<path d="M11.7497 26.6725V22.3179C11.7497 22.0059 11.956 21.7279 12.2627 21.6292L16.4943 20.2641C18.088 17.6521 20.2788 15.1664 25.1201 14.3456C25.129 14.3441 25.1381 14.3427 25.147 14.3412C34.0879 13.1452 40.8004 15.0967 45.1099 20.1437C48.3177 20.1886 51.5923 20.8375 53.5182 22.0306C54.5157 22.649 55.1075 23.7253 55.163 24.8705L55.25 26.6726C55.664 26.6726 56 26.9977 56 27.3983V30.3013C56 30.7019 55.664 31.027 55.25 31.027H52.25C51.8338 31.027 51.5008 30.6961 51.5001 30.2933C51.5001 30.2896 51.4993 30.2861 51.4993 30.2817C51.488 27.4853 49.1427 25.2209 46.25 25.2209C43.3504 25.2209 41 27.4954 41 30.3012C41.0539 30.7418 40.6947 31.0269 40.25 31.0269H26.7499C26.3337 31.0269 26.0006 30.696 25.9999 30.2932C25.9999 30.2896 25.9992 30.286 25.9992 30.2816C25.988 27.4852 23.6427 25.2209 20.7499 25.2209C17.8504 25.2209 15.4999 27.4953 15.4999 30.3011C15.5539 30.7417 15.1947 31.0269 14.75 31.0269H11.75C11.336 31.0269 11 30.7017 11 30.3011V27.3981C10.9997 26.9976 11.3357 26.6725 11.7497 26.6725ZM31.9998 19.7779C31.9998 19.9781 32.1678 20.1408 32.3749 20.1408H42.1557C42.5021 20.1408 42.6596 19.7285 42.4039 19.5028C39.8014 17.2072 36.4917 15.8943 32.4131 15.5453C32.1934 15.5264 31.9998 15.6977 31.9998 15.9111V19.7779ZM22.9893 19.7814C22.9916 19.9803 23.1589 20.1407 23.3643 20.1407H30.1248C30.3318 20.1407 30.4999 19.9781 30.4999 19.7778V15.8151C30.4999 15.6141 30.3341 15.4487 30.1271 15.4487C28.6317 15.4472 27.0491 15.5524 25.3669 15.7775C24.5658 15.9139 23.8519 16.1012 23.2024 16.3312C23.0531 16.3842 22.9579 16.5243 22.9593 16.6781L22.9893 19.7814ZM19.075 20.1407H21.1142C21.3227 20.1407 21.4915 19.9759 21.4893 19.7742L21.4698 17.8074C21.4668 17.5077 21.1135 17.3451 20.8638 17.5222C20.053 18.0955 19.3787 18.7784 18.778 19.5536C18.5905 19.7952 18.7631 20.1407 19.075 20.1407Z" fill="#F6F6F6"/>
<path d="M24.3784 31.0271C24.3784 29.0273 22.7294 27.3784 20.7297 27.3784C18.73 27.3784 17.0811 28.9922 17.0811 31.0271C17.0811 33.0268 18.73 34.6757 20.7297 34.6757C22.7294 34.6757 24.3784 33.0268 24.3784 31.0271Z" stroke="#878787" stroke-miterlimit="10"/>
<path d="M49.9189 31.0271C49.9189 29.0273 48.27 27.3784 46.2702 27.3784C44.2705 27.3784 42.6216 28.9922 42.6216 31.0271C42.6216 33.0268 44.2705 34.6757 46.2702 34.6757C48.27 34.6757 49.9189 33.0268 49.9189 31.0271Z" stroke="#878787" stroke-miterlimit="10"/>
<path d="M53.4663 31.027H55.25C55.664 31.027 56 30.7019 56 30.3013V27.3983C56 26.9977 55.664 26.6726 55.25 26.6726L55.163 24.8705C55.1075 23.7253 54.5157 22.649 53.5182 22.0306C51.5923 20.8375 48.3177 20.1886 45.1099 20.1437C40.8004 15.0967 34.0879 13.1452 25.147 14.3412C25.1381 14.3427 25.129 14.3441 25.1201 14.3456C20.2788 15.1664 18.088 17.6521 16.4943 20.2641L12.2627 21.6292C11.956 21.7279 11.7497 22.0059 11.7497 22.3179V26.6725C11.3357 26.6725 10.9997 26.9976 11 27.3981V30.3011C11 30.7017 11.336 31.0269 11.75 31.0269H13.25M39.0338 31.0269H28.6351" stroke="#878787"/>
<path d="M12.4023 14H11.4023V15V18.5572V19.5572H12.4023H13.5881H14.5881V18.5572V15V14H13.5881H12.4023Z" fill="#F6F6F6" stroke="white" stroke-width="2"/>
<path d="M19.0819 21.4986L18.1013 21.6946L18.2972 22.6752L18.5296 23.8384L18.7255 24.819L19.7062 24.6231L23.1958 23.9259L24.1764 23.7299L23.9805 22.7493L23.7481 21.5861L23.5522 20.6055L22.5715 20.8014L19.0819 21.4986Z" fill="#F6F6F6" stroke="white" stroke-width="2"/>
<path d="M16.6098 18.2226L15.9027 18.9297L16.6098 19.6368L17.4481 20.4751L18.1552 21.1822L18.8623 20.4751L21.3773 17.9602L22.0844 17.2531L21.3773 16.5459L20.539 15.7076L19.8318 15.0005L19.1247 15.7076L16.6098 18.2226Z" fill="#F6F6F6" stroke="white" stroke-width="2"/>
<path d="M2.01938 22.7426L1.82346 23.7232L2.80408 23.9191L6.2937 24.6163L7.27432 24.8122L7.47025 23.8316L7.70266 22.6684L7.89858 21.6877L6.91796 21.4918L3.42834 20.7946L2.44772 20.5987L2.25179 21.5793L2.01938 22.7426Z" fill="#F6F6F6" stroke="white" stroke-width="2"/>
<path d="M4.60979 16.5446L3.90268 17.2517L4.60979 17.9588L7.12474 20.4738L7.83184 21.1809L8.53895 20.4738L9.37727 19.6354L10.0844 18.9283L9.37727 18.2212L6.86232 15.7063L6.15521 14.9992L5.4481 15.7063L4.60979 16.5446Z" fill="#F6F6F6" stroke="white" stroke-width="2"/>
<path d="M4 33V34H5H21H22V33V31.3243C22 29.9059 20.7152 29 19.4606 29H6.53936C5.28475 29 4 29.9059 4 31.3243V33Z" fill="#F6F6F6" stroke="white" stroke-width="2"/>
<path d="M17.0746 19.569L17.0745 19.5688C16.4124 19.0358 15.5819 18.7429 14.7318 18.7429H11.0985C9.32268 18.7429 7.7844 20.004 7.43614 21.7454L5.70204 30.4161L5.46282 31.6122H6.68262C9.04105 31.6122 10.5501 31.5541 11.8438 31.5044C13.9601 31.423 15.5003 31.3637 19.2399 31.6169L20.5682 31.7068L20.2844 30.406L18.3809 21.6816C18.1997 20.8511 17.7365 20.1021 17.0746 19.569Z" fill="#F6F6F6" stroke="white" stroke-width="2"/>
<path d="M12.995 29.0431C14.4205 29.0431 15.576 27.8875 15.576 26.4621C15.576 25.0366 14.4205 23.8811 12.995 23.8811C11.5696 23.8811 10.4141 25.0366 10.4141 26.4621C10.4141 27.8875 11.5696 29.0431 12.995 29.0431Z" fill="#F6F6F6" stroke="white" stroke-width="2"/>
<path d="M12.4023 15H13.5881V18.5572H12.4023V15Z" fill="#F6F6F6"/>
<path d="M19.2778 22.4792L22.7675 21.782L22.9999 22.9452L19.5102 23.6425L19.2778 22.4792Z" fill="#F6F6F6"/>
<path d="M17.3169 18.9297L19.8318 16.4147L20.6702 17.2531L18.1552 19.768L17.3169 18.9297Z" fill="#F6F6F6"/>
<path d="M3 22.9385L3.23241 21.7752L6.72204 22.4724L6.48963 23.6357L3 22.9385Z" fill="#F6F6F6"/>
<path d="M5.31689 17.2517L6.15521 16.4134L8.67016 18.9283L7.83184 19.7667L5.31689 17.2517Z" fill="#F6F6F6"/>
<path d="M5.2876 31.2809V33.1574H20.7022V31.2809C20.7022 30.4632 20.0369 29.7979 19.2192 29.7979H6.77064C5.95288 29.7979 5.2876 30.4632 5.2876 31.2809Z" fill="#F6F6F6"/>
<path d="M17.4039 21.8948C17.2713 21.2872 16.9316 20.7378 16.4473 20.3477C15.963 19.9577 15.3537 19.7429 14.7318 19.7429H11.0985C9.79937 19.7429 8.6715 20.6676 8.41672 21.9415L6.68262 30.6122C12.7554 30.6122 13.2546 30.2094 19.3074 30.6192L17.4039 21.8948Z" fill="#F6F6F6"/>
<path d="M12.995 28.0431C13.8682 28.0431 14.576 27.3352 14.576 26.4621C14.576 25.5889 13.8682 24.8811 12.995 24.8811C12.1219 24.8811 11.4141 25.5889 11.4141 26.4621C11.4141 27.3352 12.1219 28.0431 12.995 28.0431Z" fill="#F6F6F6"/>
<path d="M12.9023 15.5H13.0881V18.0572H12.9023V15.5Z" stroke="#878787"/>
<path d="M19.8661 22.8716L22.3751 22.3703L22.4116 22.5529L19.9026 23.0542L19.8661 22.8716Z" stroke="#878787"/>
<path d="M18.024 18.9297L19.8318 17.1218L19.9631 17.2531L18.1552 19.0609L18.024 18.9297Z" stroke="#878787"/>
<path d="M3.58827 22.5461L3.62476 22.3635L6.13377 22.8648L6.09728 23.0474L3.58827 22.5461Z" stroke="#878787"/>
<path d="M6.024 17.2517L6.15521 17.1205L7.96305 18.9283L7.83184 19.0596L6.024 17.2517Z" stroke="#878787"/>
<path d="M20.2022 32.6574H5.7876V31.2809C5.7876 30.7393 6.22903 30.2979 6.77064 30.2979H19.2192C19.7607 30.2979 20.2022 30.7393 20.2022 31.2809V32.6574Z" stroke="#878787"/>
<path d="M14.7318 20.2429C15.2396 20.2429 15.7382 20.4187 16.1336 20.7371L16.1337 20.7372C16.5292 21.0557 16.8072 21.5053 16.9154 22.0014L18.6774 30.0772C15.3367 29.8703 13.7549 29.93 11.7042 30.0073C10.5281 30.0516 9.19771 30.1017 7.2928 30.1108L8.90701 22.0395C9.11505 20.9993 10.0377 20.2429 11.0985 20.2429H14.7318Z" stroke="#878787"/>
</svg>
