<svg width="58" height="43" viewBox="0 0 58 43" fill="none" xmlns="http://www.w3.org/2000/svg">
<g filter="url(#filter0_f)">
<path fill-rule="evenodd" clip-rule="evenodd" d="M29.2326 38.387C15.5491 38.387 4.46516 38.4704 4.46516 38.5677C4.46516 38.6651 15.5491 38.7485 29.2326 38.7485C42.916 38.7485 54 38.6651 54 38.5677C54 38.4704 42.916 38.387 29.2326 38.387Z" fill="#878787"/>
</g>
<path d="M45.6556 38.1642C43.582 38.0493 41.994 36.2752 42.1089 34.2016C42.2237 32.1279 43.9979 30.54 46.0715 30.6548C48.1452 30.7697 49.7331 32.5438 49.6182 34.6175C49.5034 36.6911 47.7293 38.279 45.6556 38.1642Z" stroke="#878787" stroke-miterlimit="10"/>
<path d="M13.5405 30.6494C15.6014 30.6494 17.3008 32.3488 17.3008 34.4097C17.3008 36.4707 15.6014 38.17 13.5405 38.17C11.4795 38.17 9.78017 36.4707 9.78017 34.4097C9.78017 32.3488 11.4795 30.6494 13.5405 30.6494Z" stroke="#878787" stroke-miterlimit="10"/>
<path d="M3.81381 32.5295C3.81381 32.3126 4.32 32.3126 4.32 32.1318C4.39231 30.8663 4.46463 29.4562 4.60926 28.1545C4.79004 26.5998 7.97184 26.5275 9.92431 25.9128C11.3344 25.4789 12.4553 24.5388 14.2631 23.7434C16.2156 22.8756 17.9511 22.0802 20.0121 22.0802C23.3746 22.0802 28.3643 21.6824 31.5099 22.6587C34.5109 23.5988 37.2589 25.3343 40.0791 26.6721C43.514 27.0337 47.3466 27.7206 50.8538 28.5884C51.9747 28.8777 52.4809 29.3839 52.8063 30.0708C53.1679 30.794 53.3486 31.4809 53.5294 31.9148C53.8187 31.951 53.8187 31.8787 53.891 32.0233C53.9995 32.2041 53.9272 32.421 53.9633 32.7103C53.9995 33.3249 53.9995 34.1566 53.8548 34.7351C53.7102 35.2774 53.5656 35.5305 53.3125 35.7475C53.0956 35.8921 52.8786 36.0005 52.5894 36.0367L51.3239 36.0729C50.5646 35.9282 50.7092 35.8198 50.7454 34.8797C50.7454 34.7351 50.7454 34.5904 50.7454 34.4458C50.7454 31.734 48.5759 29.5646 45.8642 29.5646C43.1524 29.5646 40.983 31.734 40.983 34.4458C40.983 34.7351 40.983 34.9882 41.0192 35.2413C41.1276 36.8683 41.2723 36.5791 39.7898 36.6514L19.2889 36.6152C18.2042 36.4706 18.2765 36.6152 18.385 35.2413C18.4212 34.9882 18.4212 34.6989 18.4212 34.4096C18.4212 31.6979 16.2518 29.5285 13.54 29.5285C10.8282 29.5285 8.65882 31.6979 8.65882 34.4096C8.65882 34.6266 8.65882 34.8797 8.69498 35.0966C8.7673 36.2175 8.47803 36.109 7.71874 36.0729C6.95945 36.0005 6.09169 35.9282 5.40471 35.8198C4.86235 35.7113 4.46463 35.6028 4.28384 35.4582C3.74149 34.952 3.81381 33.3611 3.81381 32.5295ZM25.5079 23.3818C25.7972 24.1411 25.9056 25.8405 26.0864 26.9613C26.1587 27.5037 26.3033 27.6483 26.8457 27.6483C29.0151 27.6845 34.8725 28.0822 34.8725 27.9737C35.0895 27.8653 35.9211 26.9252 36.5719 26.4551C35.1256 25.4066 33.0285 24.2496 31.1122 23.5988C30.4252 23.3818 28.6174 23.0926 27.3519 23.0564L25.7248 23.0203C25.4356 23.0203 25.3994 23.1649 25.5079 23.3818ZM14.2631 25.9851C14.3354 26.2382 14.5885 26.7082 14.7332 26.9252C14.8416 27.0698 14.9501 27.1783 15.2032 27.1783C15.854 27.2144 17.1195 27.2506 17.8788 27.2868C19.9759 27.3952 22.2176 27.5399 24.0616 27.576C24.8209 27.576 24.8571 27.7568 24.7848 27.106C24.4955 24.6473 24.4232 23.8157 24.2063 23.2372C24.1701 23.1287 23.9532 23.0564 23.8085 23.0564L20.9521 23.0926C20.0844 23.0926 19.2166 23.2733 18.3488 23.5264C18.2042 23.5626 17.9511 23.6711 17.6257 23.8157L17.1195 24.0326C16.0348 24.5388 14.6609 25.262 14.4439 25.5512C14.1908 25.732 14.1908 25.8043 14.2631 25.9851Z" fill="#F6F6F6"/>
<path d="M51.3239 36.0729L52.5894 36.0367C52.8786 36.0005 53.0956 35.8921 53.3125 35.7475C53.5656 35.5305 53.7102 35.2774 53.8548 34.7351C53.9995 34.1566 53.9995 33.3249 53.9633 32.7103C53.9272 32.421 53.9995 32.2041 53.891 32.0233C53.8187 31.8787 53.8187 31.951 53.5294 31.9148C53.3486 31.4809 53.1679 30.794 52.8063 30.0708C52.4809 29.3839 51.9747 28.8777 50.8538 28.5884C47.3466 27.7206 43.514 27.0337 40.0791 26.6721C37.2589 25.3343 34.5109 23.5988 31.5099 22.6587C28.3643 21.6824 23.3746 22.0802 20.0121 22.0802C17.9511 22.0802 16.2156 22.8756 14.2631 23.7434C12.4553 24.5388 11.3344 25.4789 9.92431 25.9128C7.97184 26.5275 4.79004 26.5998 4.60926 28.1545C4.46463 29.4562 4.39232 30.8663 4.32001 32.1318C4.32001 32.3126 3.81381 32.3126 3.81381 32.5295C3.81381 33.3611 3.74149 34.952 4.28384 35.4582C4.46463 35.6028 4.86236 35.7113 5.40471 35.8198C6.09169 35.9282 6.95945 36.0005 7.71874 36.0729M39.7898 36.6514L19.2889 36.6152" stroke="#878787" stroke-miterlimit="10"/>
</svg>
