<svg xmlns="http://www.w3.org/2000/svg" width="13" height="14" viewBox="0 0 13 14" fill="none">
    <path d="M10.5592 3.02821C10.3539 2.40986 10.0573 1.81623 9.76076 1.59362C8.66569 0.802126 5.76831 0.802126 4.65042 1.59362C4.35384 1.81623 4.05726 2.40986 3.85193 3.02821M3.37284 3.76406C3.12188 4.0856 3.00781 4.45662 3.00781 4.85237C3.00781 5.34705 3.16751 5.76754 3.48691 6.08908V7.02899C3.48691 7.22686 3.6466 7.4 3.82912 7.4H4.62761C4.81012 7.4 4.96982 7.22686 4.96982 7.02899V6.65797H9.44136V7.02899C9.44136 7.22686 9.60106 7.4 9.78357 7.4H10.5821C10.7646 7.4 10.9243 7.22686 10.9243 7.02899V6.11382C11.2437 5.79227 11.4034 5.34705 11.4034 4.90184C11.4034 4.50609 11.2893 4.0856 11.0155 3.76406" stroke="#434343" stroke-width="0.607471" stroke-miterlimit="10"/>
    <mask id="path-2-inside-1_5328_18512" fill="white">
        <ellipse cx="4.9616" cy="4.9903" rx="0.610036" ry="0.591863"/>
    </mask>
        <path d="M4.96416 4.9903C4.96416 4.98658 4.96509 4.98193 4.96684 4.97792C4.96838 4.97438 4.96984 4.97293 4.96996 4.97282C4.97006 4.97271 4.96957 4.97319 4.96843 4.97366C4.96765 4.97398 4.96567 4.97469 4.9616 4.97469V6.18963C5.61656 6.18963 6.17911 5.66986 6.17911 4.9903H4.96416ZM4.9616 4.97469C4.95753 4.97469 4.95555 4.97398 4.95477 4.97366C4.95362 4.97319 4.95313 4.97271 4.95324 4.97282C4.95336 4.97293 4.95481 4.97438 4.95636 4.97792C4.9581 4.98193 4.95903 4.98658 4.95903 4.9903H3.74409C3.74409 5.66986 4.30664 6.18963 4.9616 6.18963V4.97469ZM4.95903 4.9903C4.95903 4.99402 4.9581 4.99868 4.95636 5.00268C4.95481 5.00622 4.95336 5.00767 4.95324 5.00778C4.95313 5.00789 4.95362 5.00741 4.95477 5.00694C4.95555 5.00662 4.95753 5.00591 4.9616 5.00591V3.79097C4.30664 3.79097 3.74409 4.31074 3.74409 4.9903H4.95903ZM4.9616 5.00591C4.96567 5.00591 4.96765 5.00662 4.96843 5.00694C4.96957 5.00741 4.97006 5.00789 4.96996 5.00778C4.96984 5.00767 4.96838 5.00622 4.96684 5.00268C4.96509 4.99868 4.96416 4.99402 4.96416 4.9903H6.17911C6.17911 4.31074 5.61656 3.79097 4.9616 3.79097V5.00591Z" fill="#434343" mask="url(#path-2-inside-1_5328_18512)"/>
    <mask id="path-4-inside-2_5328_18512" fill="white">
        <ellipse cx="9.43816" cy="4.9903" rx="0.610036" ry="0.591863"/>
    </mask>
    <path d="M9.44073 4.9903C9.44073 4.98658 9.44166 4.98193 9.4434 4.97792C9.44495 4.97438 9.4464 4.97293 9.44652 4.97282C9.44663 4.97271 9.44614 4.97319 9.44499 4.97366C9.44421 4.97398 9.44223 4.97469 9.43816 4.97469V6.18963C10.0931 6.18963 10.6557 5.66986 10.6557 4.9903H9.44073ZM9.43816 4.97469C9.43409 4.97469 9.43211 4.97398 9.43133 4.97366C9.43019 4.97319 9.4297 4.97271 9.4298 4.97282C9.42992 4.97293 9.43138 4.97438 9.43292 4.97792C9.43467 4.98193 9.4356 4.98658 9.4356 4.9903H8.22065C8.22065 5.66986 8.7832 6.18963 9.43816 6.18963V4.97469ZM9.4356 4.9903C9.4356 4.99402 9.43467 4.99868 9.43292 5.00268C9.43138 5.00622 9.42992 5.00767 9.4298 5.00778C9.4297 5.00789 9.43019 5.00741 9.43133 5.00694C9.43211 5.00662 9.43409 5.00591 9.43816 5.00591V3.79097C8.7832 3.79097 8.22065 4.31074 8.22065 4.9903H9.4356ZM9.43816 5.00591C9.44223 5.00591 9.44421 5.00662 9.44499 5.00694C9.44614 5.00741 9.44663 5.00789 9.44652 5.00778C9.4464 5.00767 9.44495 5.00622 9.4434 5.00268C9.44166 4.99868 9.44073 4.99402 9.44073 4.9903H10.6557C10.6557 4.31074 10.0931 3.79097 9.43816 3.79097V5.00591Z" fill="#434343" mask="url(#path-4-inside-2_5328_18512)"/>
    <mask id="path-6-inside-3_5328_18512" fill="white">
        <path d="M10.7188 3.34615C10.7188 3.22833 10.8143 3.13281 10.9321 3.13281H11.785C11.9028 3.13281 11.9983 3.22833 11.9983 3.34615C11.9983 3.46397 11.9028 3.55948 11.785 3.55948H10.9321C10.8143 3.55948 10.7188 3.46397 10.7188 3.34615Z"/>
    </mask>
    <path d="M10.7188 3.34615C10.7188 3.22833 10.8143 3.13281 10.9321 3.13281H11.785C11.9028 3.13281 11.9983 3.22833 11.9983 3.34615C11.9983 3.46397 11.9028 3.55948 11.785 3.55948H10.9321C10.8143 3.55948 10.7188 3.46397 10.7188 3.34615Z" fill="#373737"/>
    <path d="M10.9321 3.74028H11.785V2.52534H10.9321V3.74028ZM11.785 2.95201H10.9321V4.16695H11.785V2.95201ZM10.9321 2.95201C11.1498 2.95201 11.3262 3.12847 11.3262 3.34615H10.1113C10.1113 3.79946 10.4788 4.16695 10.9321 4.16695V2.95201ZM11.3909 3.34615C11.3909 3.12847 11.5673 2.95201 11.785 2.95201V4.16695C12.2383 4.16695 12.6058 3.79946 12.6058 3.34615H11.3909ZM11.785 3.74028C11.5673 3.74028 11.3909 3.56382 11.3909 3.34615H12.6058C12.6058 2.89283 12.2383 2.52534 11.785 2.52534V3.74028ZM10.9321 2.52534C10.4788 2.52534 10.1113 2.89283 10.1113 3.34615H11.3262C11.3262 3.56382 11.1498 3.74028 10.9321 3.74028V2.52534Z" fill="#434343" mask="url(#path-6-inside-3_5328_18512)"/>
    <mask id="path-8-inside-4_5328_18512" fill="white">
    <path d="M2.49219 3.34615C2.49219 3.22833 2.5877 3.13281 2.70552 3.13281H3.46811C3.58593 3.13281 3.68144 3.22833 3.68144 3.34615C3.68144 3.46397 3.58593 3.55948 3.46811 3.55948H2.70552C2.5877 3.55948 2.49219 3.46397 2.49219 3.34615Z"/>
    </mask>
    <path d="M2.49219 3.34615C2.49219 3.22833 2.5877 3.13281 2.70552 3.13281H3.46811C3.58593 3.13281 3.68144 3.22833 3.68144 3.34615C3.68144 3.46397 3.58593 3.55948 3.46811 3.55948H2.70552C2.5877 3.55948 2.49219 3.46397 2.49219 3.34615Z" fill="#373737"/>
    <path d="M2.70552 3.74028H3.46811V2.52534H2.70552V3.74028ZM3.46811 2.95201H2.70552V4.16695H3.46811V2.95201ZM2.70552 2.95201C2.9232 2.95201 3.09966 3.12847 3.09966 3.34615H1.88472C1.88472 3.79946 2.2522 4.16695 2.70552 4.16695V2.95201ZM3.07397 3.34615C3.07397 3.12847 3.25043 2.95201 3.46811 2.95201V4.16695C3.92142 4.16695 4.28891 3.79946 4.28891 3.34615H3.07397ZM3.46811 3.74028C3.25043 3.74028 3.07397 3.56382 3.07397 3.34615H4.28891C4.28891 2.89283 3.92142 2.52534 3.46811 2.52534V3.74028ZM2.70552 2.52534C2.2522 2.52534 1.88472 2.89283 1.88472 3.34615H3.09966C3.09966 3.56382 2.9232 3.74028 2.70552 3.74028V2.52534Z" fill="#434343" mask="url(#path-8-inside-4_5328_18512)"/>
    <path d="M2.42323 13H0M2.42323 9.12501H0M11.8035 9.29349C11.8816 9.37773 11.8816 9.46197 11.8816 9.63045C11.8816 9.79892 11.8035 10.0516 11.569 10.1359L6.87885 12.7473C6.80068 12.8315 6.64434 12.8315 6.488 12.8315H4.69012C4.61196 12.8315 4.53379 12.8315 4.53379 12.8315L2.97041 12.4946C2.89224 12.4946 2.81407 12.4946 2.73591 12.4946H2.34506V9.79892H2.42323H3.12675C3.20492 9.79892 3.36126 9.79892 3.43942 9.71468L4.37745 9.37773C4.45562 9.29349 4.61196 9.29349 4.76829 9.37773L7.42603 10.0516C7.58237 10.0516 7.66054 10.1359 7.7387 10.2201L7.89504 10.4728L8.12955 10.3886L10.7091 9.12501C11.1781 8.8723 11.6471 9.04077 11.8035 9.29349Z" stroke="#434343" stroke-width="0.8"/>
</svg>