<svg width="32" height="40" viewBox="0 0 32 40" fill="none" xmlns="http://www.w3.org/2000/svg">
<path d="M28.5557 27.7778C28.5557 20.7342 22.8215 15 15.7779 15C8.73425 15 3.00011 20.7342 3.00011 27.7778C3.00011 30.5845 3.9136 33.1832 5.45464 35.2941H26.1011C27.6422 33.1832 28.5557 30.5845 28.5557 27.7778Z" fill="#F6F6F6"/>
<path d="M26.1011 35.2941C27.6422 33.1832 28.5557 30.5845 28.5557 27.7778C28.5557 20.7342 22.8215 15 15.7779 15C8.73425 15 3.00011 20.7342 3.00011 27.7778C3.00011 30.5845 3.91361 33.1832 5.45464 35.2941" stroke="#878787"/>
<path d="M17.4109 29.8445L11.0807 22.6453L14.1459 31.7236C14.6648 32.6223 15.8192 32.9354 16.7179 32.4165C17.6167 31.8976 17.9297 30.7433 17.4109 29.8445Z" fill="#878787"/>
</svg>
