<svg width="53" height="40" viewBox="0 0 53 40" fill="none" xmlns="http://www.w3.org/2000/svg">
  <path d="M4.33488 14.711C4.81189 14.711 5.24688 14.855 5.61188 15.096L5.61988 11.435C5.61988 11.435 5.43988 10.001 6.90888 10.001C8.37988 10 29.1909 10 30.5149 10C31.8369 10 31.9849 11.252 31.9849 11.252L34.3109 18.024C34.3109 18.024 44.4149 18.061 46.8179 18.061C49.2239 18.061 49.1739 19.421 49.1739 19.421V25.475C49.1739 25.498 49.1699 25.524 49.1699 25.545H50.7549V30.631H45.3859C45.4489 30.272 45.4899 29.903 45.4899 29.522C45.4899 26.228 42.8189 23.557 39.5219 23.557C36.2299 23.557 33.5599 26.228 33.5599 29.522C33.5599 29.902 33.5989 30.272 33.6639 30.631H19.8049C19.8709 30.272 19.9089 29.902 19.9089 29.522C19.9089 26.228 17.2389 23.557 13.9439 23.557C10.6489 23.557 7.97888 26.228 7.97888 29.522C7.97888 29.912 8.01788 30.291 8.08588 30.66L5.58188 30.705H2.99788V27.554H5.58188V27.613L5.58788 25.623C5.22688 25.857 4.79288 25.995 4.32788 25.995C3.04288 25.995 1.99988 24.952 1.99988 23.666V17.04C2.00588 15.752 3.04889 14.711 4.33488 14.711ZM20.7739 18.096H31.0889L29.3699 11.648H20.7719L20.7739 18.096ZM7.87588 18.239H19.1979V11.648H7.87588V18.239Z" fill="#F6F6F6"/>
  <path d="M19.7549 29.5C19.7549 26.4856 17.2693 24 14.2549 24C11.2405 24 8.75488 26.4327 8.75488 29.5C8.75488 32.5144 11.2405 35 14.2549 35C17.2693 35 19.7549 32.5144 19.7549 29.5Z" stroke="#878787" stroke-miterlimit="10"/>
  <path d="M44.7549 29.5C44.7549 26.4856 42.2693 24 39.2549 24C36.2405 24 33.7549 26.4327 33.7549 29.5C33.7549 32.5144 36.2405 35 39.2549 35C42.2693 35 44.7549 32.5144 44.7549 29.5Z" stroke="#878787" stroke-miterlimit="10"/>
  <path d="M46.3859 30.631H50.7549V25.545H49.1699C49.1699 25.524 49.1739 25.498 49.1739 25.475V19.421C49.1739 19.421 49.2239 18.061 46.8179 18.061C44.4149 18.061 34.3109 18.024 34.3109 18.024L31.9849 11.252C31.9849 11.252 31.8369 10 30.5149 10C29.1909 10 8.37988 10 6.90888 10.001C5.43988 10.001 5.61988 11.435 5.61988 11.435L5.61188 15.096C5.24688 14.855 4.81188 14.711 4.33488 14.711C3.04888 14.711 2.00588 15.752 1.99988 17.04V23.666C1.99988 24.952 3.04288 25.995 4.32788 25.995C4.79288 25.995 5.22688 25.857 5.58788 25.623L5.58188 27.613V27.554H2.99788V30.705H5.58188L7.08588 30.66M31.6639 30.631H21.8049" stroke="#878787" stroke-linecap="round" stroke-linejoin="round"/>
</svg>
