<svg width="54" height="40" viewBox="0 0 54 40" fill="none" xmlns="http://www.w3.org/2000/svg">
<path fill-rule="evenodd" clip-rule="evenodd" d="M6.44439 27.184C5.93139 27.0684 5.55519 26.9528 5.38419 26.7986C4.87119 26.259 5.00799 24.5631 5.04219 23.6766C5.04219 23.4453 5.52098 23.4453 5.52098 23.2526C5.58938 21.9036 6.10238 19.4368 6.23918 18.0492C6.27338 17.5481 6.47858 16.8929 7.26518 16.3533C8.18858 15.698 10.822 13.9636 11.8138 13.5011C12.4636 13.1927 12.3268 13.1156 13.0108 13C16.5333 12.4218 24.2283 11.7666 27.6825 13C30.5211 14.0021 32.9835 15.5053 35.5485 17.2783C40.0971 18.1648 43.7907 18.8972 45.9795 19.5909C47.0397 19.8993 47.4843 20.4775 47.8263 21.2098C48.1682 21.9807 48.3392 22.4432 48.5102 22.9057C48.8864 22.9442 48.989 23.3682 48.989 23.9078C48.989 24.7558 49.0574 25.3725 48.8522 26.259C48.6812 26.8757 48.2024 27.2611 47.5868 27.2611L46.4925 27.2997C45.9453 27.184 45.8085 27.2226 45.8427 26.4132C45.8427 26.1434 45.8769 25.835 45.8769 25.5652C45.8769 22.6744 44.065 20.7997 41.5 20.7997C38.935 20.7997 36.6429 22.6744 36.6429 25.5652C36.6429 25.9506 36.6429 26.3746 36.6771 26.7215C36.7455 27.9934 37.1217 27.8778 36.0273 27.9164L17.4567 27.8778C16.6701 27.7622 16.465 27.8778 16.5676 26.6444C16.6018 26.259 16.6017 25.9121 16.6017 25.4881C16.6017 23 15.489 21 12.2584 20.734C9.02769 20.4681 7.36777 23 7.36777 25.4881C7.36777 25.7579 7.36777 25.9892 7.36777 26.259C7.36777 27.184 7.57298 27.4153 6.44439 27.184ZM21.2529 17.6638C20.9793 15.0428 20.9451 14.2719 20.7057 13.6552C20.6715 13.5396 20.4663 13.3469 20.2953 13.3469C18.6195 13.424 16.7385 13.424 15.1312 13.848C14.5498 14.0407 13.387 15.5439 13.0792 16.0064C12.9766 16.1991 12.1216 17.2783 12.2584 17.5096C12.361 17.6638 12.4636 17.7794 12.703 17.7794C15.2338 17.8565 18.0381 18.1648 20.5689 18.2034C21.2871 18.2034 21.3213 18.3961 21.2529 17.6638ZM30.8289 18.5888C30.7947 18.4732 32.4363 16.8158 32.6757 16.97C31.3077 15.8522 29.0847 14.6188 27.2721 13.925C25.8015 13.3469 23.7837 13.3469 22.2105 13.3083C21.9369 13.3083 21.9369 13.424 21.9711 13.6938C22.0737 14.5032 22.3473 16.3147 22.5183 17.5096C22.5867 18.0877 22.7235 18.2419 23.2365 18.2419C25.3227 18.2419 30.8631 18.7044 30.8289 18.5888Z" fill="#F6F6F6"/>
<path d="M6.43345 26.8843C5.92045 26.7687 5.54425 26.653 5.37325 26.4989C4.86025 25.9593 4.99705 24.2633 5.03125 23.3768C5.03125 23.1456 5.51005 23.1456 5.51005 22.9529C5.57845 21.6038 6.09145 19.1371 6.22825 17.7495C6.26245 17.2484 6.46764 16.5932 7.25424 16.0536C8.17764 15.3983 10.811 13.6639 11.8028 13.2013C12.4526 12.893 12.3158 12.8159 12.9998 12.7003C16.5224 12.1221 24.2174 11.4669 27.6716 12.7003C30.5102 13.7024 32.9726 15.2056 35.5376 16.9786C40.0861 17.8651 43.7797 18.5974 45.9685 19.2912C47.0287 19.5996 47.4733 20.1777 47.8153 20.9101C48.1573 21.6809 48.3283 22.1434 48.4993 22.606C48.8755 22.6445 48.9781 23.0685 48.9781 23.6081C48.9781 24.4561 49.0465 25.0728 48.8413 25.9593C48.6703 26.576 48.1915 26.9614 47.5759 26.9614L46.4815 26.9999M36.0163 27.6166L17.4458 27.5781" stroke="#878787" stroke-miterlimit="10"/>
<path d="M11.9491 21.7396C10.028 21.7396 8.43905 23.3276 8.43905 25.2482C8.43905 27.1688 10.028 28.7567 11.9491 28.7567C13.8701 28.7567 15.4591 27.1688 15.4591 25.2482C15.4591 23.3244 13.9055 21.7396 11.9491 21.7396ZM41.3791 21.7396C39.458 21.7396 37.8691 23.3276 37.8691 25.2482C37.8691 27.1688 39.458 28.7567 41.3791 28.7567C43.3001 28.7567 44.8891 27.1688 44.8891 25.2482C44.8891 23.3276 43.3001 21.7396 41.3791 21.7396Z" fill="white" stroke="#878787" stroke-miterlimit="10"/>
</svg>
