<svg width="41" height="40" viewBox="0 0 41 40" fill="none" xmlns="http://www.w3.org/2000/svg">
<path d="M28 33.5C27.1716 33.5 26.5 32.8284 26.5 32L26.5 10C26.5 9.17157 27.1716 8.5 28 8.5L28.2368 8.5C28.71 8.5 29.1555 8.72334 29.4387 9.10254L33.2019 14.1423C33.3954 14.4015 33.5 14.7163 33.5 15.0398L33.5 32C33.5 32.8284 32.8284 33.5 32 33.5L28 33.5Z" fill="#F6F6F6" stroke="#878787"/>
<mask id="path-2-inside-1" fill="white">
<path fill-rule="evenodd" clip-rule="evenodd" d="M8 35C8 36.1046 8.89543 37 10 37H30C31.1046 37 32 36.1046 32 35V15.7188C32 15.3226 31.8823 14.9354 31.662 14.6062L27.8335 8.88739C27.4623 8.33285 26.8389 8 26.1715 8H10C8.89543 8 8 8.89543 8 10V35ZM14.1222 20.7665C14.0414 20.9871 14 21.2201 14 21.455V26.3532C14 26.8224 14.3804 27.2028 14.8496 27.2028C15.3188 27.2028 15.6992 26.8219 15.6992 26.3527C15.6992 25.8829 16.0801 25.5015 16.5498 25.5015H22.8775C23.3473 25.5015 23.7281 25.8829 23.7281 26.3527C23.7281 26.8219 24.1085 27.2028 24.5778 27.2028C25.047 27.2028 25.4274 26.8224 25.4274 26.3532V21.455C25.4274 21.2201 25.386 20.9871 25.3051 20.7665L24.4049 18.3115C24.1161 17.5237 23.3662 17 22.5272 17H16.9002C16.0611 17 15.3113 17.5237 15.0224 18.3115L14.1222 20.7665Z"/>
</mask>
<path fill-rule="evenodd" clip-rule="evenodd" d="M8 35C8 36.1046 8.89543 37 10 37H30C31.1046 37 32 36.1046 32 35V15.7188C32 15.3226 31.8823 14.9354 31.662 14.6062L27.8335 8.88739C27.4623 8.33285 26.8389 8 26.1715 8H10C8.89543 8 8 8.89543 8 10V35ZM14.1222 20.7665C14.0414 20.9871 14 21.2201 14 21.455V26.3532C14 26.8224 14.3804 27.2028 14.8496 27.2028C15.3188 27.2028 15.6992 26.8219 15.6992 26.3527C15.6992 25.8829 16.0801 25.5015 16.5498 25.5015H22.8775C23.3473 25.5015 23.7281 25.8829 23.7281 26.3527C23.7281 26.8219 24.1085 27.2028 24.5778 27.2028C25.047 27.2028 25.4274 26.8224 25.4274 26.3532V21.455C25.4274 21.2201 25.386 20.9871 25.3051 20.7665L24.4049 18.3115C24.1161 17.5237 23.3662 17 22.5272 17H16.9002C16.0611 17 15.3113 17.5237 15.0224 18.3115L14.1222 20.7665Z" fill="#F6F6F6"/>
<path d="M31.662 14.6062L32.4929 14.0499V14.0499L31.662 14.6062ZM27.8335 8.88739L28.6645 8.33109L28.6645 8.33109L27.8335 8.88739ZM14.1222 20.7665L15.0611 21.1108L14.1222 20.7665ZM25.3051 20.7665L26.244 20.4223L26.244 20.4223L25.3051 20.7665ZM24.4049 18.3115L25.3438 17.9672L24.4049 18.3115ZM15.0224 18.3115L15.9613 18.6557L15.0224 18.3115ZM10 36C9.44771 36 9 35.5523 9 35H7C7 36.6569 8.34315 38 10 38V36ZM30 36H10V38H30V36ZM31 35C31 35.5523 30.5523 36 30 36V38C31.6569 38 33 36.6569 33 35H31ZM31 15.7188V35H33V15.7188H31ZM30.831 15.1625C30.9412 15.3271 31 15.5207 31 15.7188H33C33 15.1245 32.8235 14.5437 32.4929 14.0499L30.831 15.1625ZM27.0025 9.4437L30.831 15.1625L32.4929 14.0499L28.6645 8.33109L27.0025 9.4437ZM26.1715 9C26.5052 9 26.8169 9.16642 27.0025 9.4437L28.6645 8.33109C28.1076 7.49927 27.1726 7 26.1715 7V9ZM10 9H26.1715V7H10V9ZM9 10C9 9.44772 9.44771 9 10 9V7C8.34315 7 7 8.34314 7 10H9ZM9 35V10H7V35H9ZM15 21.455C15 21.3376 15.0207 21.2211 15.0611 21.1108L13.1834 20.4223C13.0621 20.7531 13 21.1027 13 21.455H15ZM15 26.3532V21.455H13V26.3532H15ZM14.8496 26.2028C14.9327 26.2028 15 26.2701 15 26.3532H13C13 27.3747 13.8281 28.2028 14.8496 28.2028V26.2028ZM14.6992 26.3527C14.6992 26.2704 14.7658 26.2028 14.8496 26.2028V28.2028C15.8719 28.2028 16.6992 27.3734 16.6992 26.3527H14.6992ZM16.5498 24.5015C15.527 24.5015 14.6992 25.3314 14.6992 26.3527H16.6992C16.6992 26.4344 16.6331 26.5015 16.5498 26.5015V24.5015ZM22.8775 24.5015H16.5498V26.5015H22.8775V24.5015ZM24.7281 26.3527C24.7281 25.3314 23.9004 24.5015 22.8775 24.5015V26.5015C22.7942 26.5015 22.7281 26.4344 22.7281 26.3527H24.7281ZM24.5778 26.2028C24.6616 26.2028 24.7281 26.2704 24.7281 26.3527H22.7281C22.7281 27.3734 23.5555 28.2028 24.5778 28.2028V26.2028ZM24.4274 26.3532C24.4274 26.2701 24.4947 26.2028 24.5778 26.2028V28.2028C25.5993 28.2028 26.4274 27.3747 26.4274 26.3532H24.4274ZM24.4274 21.455V26.3532H26.4274V21.455H24.4274ZM24.3662 21.1108C24.4067 21.2211 24.4274 21.3376 24.4274 21.455H26.4274C26.4274 21.1027 26.3653 20.7531 26.244 20.4223L24.3662 21.1108ZM23.4661 18.6557L24.3662 21.1108L26.244 20.4223L25.3438 17.9672L23.4661 18.6557ZM22.5272 18C22.9467 18 23.3216 18.2619 23.4661 18.6557L25.3438 17.9672C24.9105 16.7856 23.7858 16 22.5272 16V18ZM16.9002 18H22.5272V16H16.9002V18ZM15.9613 18.6557C16.1057 18.2619 16.4806 18 16.9002 18V16C15.6416 16 14.5168 16.7856 14.0835 17.9672L15.9613 18.6557ZM15.0611 21.1108L15.9613 18.6557L14.0835 17.9672L13.1834 20.4223L15.0611 21.1108Z" fill="#878787" mask="url(#path-2-inside-1)"/>
</svg>
