<svg width="58" height="41" viewBox="0 0 58 41" fill="none" xmlns="http://www.w3.org/2000/svg">
<path d="M11.7497 23.6725V19.3179C11.7497 19.0059 11.956 18.7279 12.2627 18.6292L16.4943 17.2641C18.088 14.6521 20.2788 12.1664 25.1201 11.3456C25.129 11.3441 25.1381 11.3427 25.147 11.3412C34.0879 10.1452 40.8004 12.0967 45.1099 17.1437C48.3177 17.1886 51.5923 17.8375 53.5182 19.0306C54.5157 19.649 55.1075 20.7253 55.163 21.8705L55.25 23.6726C55.664 23.6726 56 23.9977 56 24.3983V27.3013C56 27.7019 55.664 28.027 55.25 28.027H52.25C51.8338 28.027 51.5008 27.6961 51.5001 27.2933C51.5001 27.2896 51.4993 27.2861 51.4993 27.2817C51.488 24.4853 49.1427 22.2209 46.25 22.2209C43.3504 22.2209 41 24.4954 41 27.3012C41.0539 27.7418 40.6947 28.0269 40.25 28.0269H26.7499C26.3337 28.0269 26.0006 27.696 25.9999 27.2932C25.9999 27.2896 25.9992 27.286 25.9992 27.2816C25.988 24.4852 23.6427 22.2209 20.7499 22.2209C17.8504 22.2209 15.4999 24.4953 15.4999 27.3011C15.5539 27.7417 15.1947 28.0269 14.75 28.0269H11.75C11.336 28.0269 11 27.7017 11 27.3011V24.3981C10.9997 23.9976 11.3357 23.6725 11.7497 23.6725ZM31.9998 16.7779C31.9998 16.9781 32.1678 17.1408 32.3749 17.1408H42.1557C42.5021 17.1408 42.6596 16.7285 42.4039 16.5028C39.8014 14.2072 36.4917 12.8943 32.4131 12.5453C32.1934 12.5264 31.9998 12.6977 31.9998 12.9111V16.7779ZM22.9893 16.7814C22.9916 16.9803 23.1589 17.1407 23.3643 17.1407H30.1248C30.3318 17.1407 30.4999 16.9781 30.4999 16.7778V12.8151C30.4999 12.6141 30.3341 12.4487 30.1271 12.4487C28.6317 12.4472 27.0491 12.5524 25.3669 12.7775C24.5658 12.9139 23.8519 13.1012 23.2024 13.3312C23.0531 13.3842 22.9579 13.5243 22.9593 13.6781L22.9893 16.7814ZM19.075 17.1407H21.1142C21.3227 17.1407 21.4915 16.9759 21.4893 16.7742L21.4698 14.8074C21.4668 14.5077 21.1135 14.3451 20.8638 14.5222C20.053 15.0955 19.3787 15.7784 18.778 16.5536C18.5905 16.7952 18.7631 17.1407 19.075 17.1407Z" fill="#F6F6F6"/>
<path d="M24.3784 28.0271C24.3784 26.0273 22.7294 24.3784 20.7297 24.3784C18.73 24.3784 17.0811 25.9922 17.0811 28.0271C17.0811 30.0268 18.73 31.6757 20.7297 31.6757C22.7294 31.6757 24.3784 30.0268 24.3784 28.0271Z" stroke="#878787" stroke-miterlimit="10"/>
<path d="M49.9189 28.0271C49.9189 26.0273 48.27 24.3784 46.2702 24.3784C44.2705 24.3784 42.6216 25.9922 42.6216 28.0271C42.6216 30.0268 44.2705 31.6757 46.2702 31.6757C48.27 31.6757 49.9189 30.0268 49.9189 28.0271Z" stroke="#878787" stroke-miterlimit="10"/>
<path d="M53.4663 28.027H55.25C55.664 28.027 56 27.7019 56 27.3013V24.3983C56 23.9977 55.664 23.6726 55.25 23.6726L55.163 21.8705C55.1075 20.7253 54.5157 19.649 53.5182 19.0306C51.5923 17.8375 48.3177 17.1886 45.1099 17.1437C40.8004 12.0967 34.0879 10.1452 25.147 11.3412C25.1381 11.3427 25.129 11.3441 25.1201 11.3456C20.2788 12.1664 18.088 14.6521 16.4943 17.2641L12.2627 18.6292C11.956 18.7279 11.7497 19.0059 11.7497 19.3179V23.6725C11.3357 23.6725 10.9997 23.9976 11 24.3981V27.3011C11 27.7017 11.336 28.0269 11.75 28.0269H13.25M39.0338 28.0269H28.6351" stroke="#878787"/>
<rect x="4" y="12" width="13" height="13" rx="6.5" fill="white"/>
<path d="M10.9117 15.4666H10.0667V18.8466L13.0242 20.6211L13.4467 19.9282L10.9117 18.4241V15.4666Z" fill="#878787"/>
<path d="M5.3667 18.5C5.3667 15.6659 7.66159 13.3667 10.4944 13.3667C13.3338 13.3667 15.6334 15.6669 15.6334 18.5C15.6334 21.3332 13.3338 23.6334 10.4944 23.6334C7.66159 23.6334 5.3667 21.3341 5.3667 18.5Z" stroke="#878787"/>
<path d="M2 25L8 25" stroke="#878787"/>
<path d="M5 27L9 27" stroke="#878787"/>
</svg>
