<svg width="51" height="40" viewBox="0 0 51 40" fill="none" xmlns="http://www.w3.org/2000/svg">
<path fill-rule="evenodd" clip-rule="evenodd" d="M7.05998 36.7094C6.1942 36.6402 5.05138 36.5363 4.1856 36.3977C3.66614 36.2939 3.25056 36.1553 3.11204 35.9822C2.59258 35.4281 2.62721 33.6965 2.66184 32.8308C2.66184 32.623 3.1813 32.623 3.14667 32.3805C3.14667 27.7746 3.21593 26.6925 3.45835 21.013C3.52761 20.4242 4.01245 20.1126 4.56655 20.0433C5.18991 19.974 5.77864 20.0087 7.19851 20.0087L31.6306 20.1472C33.6392 20.1472 35.0244 20.2164 36.7214 21.4285C38.4529 22.6752 39.7343 23.2726 40.4615 24.7271C42.1238 25.3158 44.6172 26.0431 46.9375 26.8742C47.5263 27.082 48.0111 27.1859 48.115 27.8785C48.1842 28.4672 48.1842 29.3676 48.1842 30.0603C48.1842 30.9953 48.115 31.6533 48.2189 31.965C48.2881 32.2074 48.8076 32.0342 48.9115 32.2767C49.0154 32.4498 48.9461 32.6922 48.9808 33.0039C49.0154 33.6965 49.0154 34.5623 48.8769 35.1857C48.7383 35.7744 48.5998 36.0514 48.3228 36.2592C48.115 36.4324 47.9072 36.5363 47.6302 36.5709L46.1756 36.6402C45.5177 36.5709 45.7254 36.467 45.8293 35.6705C45.864 35.4973 45.864 35.2896 45.864 35.1164C45.864 32.5191 43.7515 30.4066 41.1541 30.4066C38.5568 30.4066 36.4443 32.5191 36.4443 35.1164C36.4443 35.532 36.5136 35.9476 36.6175 36.3285C36.8599 37.1596 36.8599 37.2635 35.9249 37.2635L17.1722 37.2289C16.7913 37.2289 16.6182 37.2289 16.5143 37.125C16.445 37.0211 16.4796 36.7441 16.6182 36.2939C16.722 35.9129 16.7567 35.4973 16.7567 35.1164C16.7567 32.5191 14.6442 30.4066 12.0469 30.4066C9.44953 30.4066 7.33703 32.5191 7.33703 35.1164C7.33703 35.4973 7.37166 35.8783 7.47556 36.2592C7.51019 36.5709 7.40629 36.7441 7.05998 36.7094ZM37.2408 26.7314V24C37.2408 24 34.7011 22.4285 32.8773 22.4285H30.5917C30.3146 22.4285 30.2454 22.8095 30.2454 22.8095V26.7314H37.2408Z" fill="#F6F6F6"/>
<path d="M7.05998 36.7094C6.1942 36.6402 5.05138 36.5363 4.1856 36.3978C3.66614 36.2939 3.25056 36.1553 3.11204 35.9822C2.59257 35.4281 2.62721 33.6965 2.66184 32.8308C2.66184 32.623 3.1813 32.623 3.14667 32.3805C3.14667 27.7746 3.21593 26.6925 3.45835 21.013C3.52761 20.4242 4.01245 20.1126 4.56655 20.0433C5.18991 19.974 5.77864 20.0087 7.19851 20.0087L31.6306 20.1472C33.6392 20.1472 35.0244 20.2164 36.7214 21.4285C38.4529 22.6753 39.7343 23.2726 40.4615 24.7271C42.1238 25.3158 44.6172 26.0431 46.9375 26.8742C47.5263 27.082 48.0111 27.1859 48.115 27.8785C48.1842 28.4672 48.1842 29.3677 48.1842 30.0603C48.1842 30.9953 48.115 31.6533 48.2189 31.965C48.2881 32.2074 48.8076 32.0342 48.9115 32.2767C49.0154 32.4498 48.9461 32.6922 48.9808 33.0039C49.0154 33.6965 49.0154 34.5623 48.8769 35.1857C48.7383 35.7744 48.5998 36.0514 48.3228 36.2592C48.115 36.4324 47.9072 36.5363 47.6302 36.5709M35.9249 37.2635L26.0485 37.2462L17.1722 37.2289M41.1195 31.4801C39.1109 31.4801 37.4833 33.1078 37.4833 35.1164C37.4833 37.125 39.1109 38.7527 41.1195 38.7527C43.1281 38.7527 44.7558 37.125 44.7558 35.1164C44.7211 33.1078 43.1281 31.4801 41.1195 31.4801ZM12.0469 31.4801C10.0383 31.4801 8.4106 33.1078 8.4106 35.1164C8.4106 37.125 10.0383 38.7527 12.0469 38.7527C14.0555 38.7527 15.6831 37.125 15.6831 35.1164C15.6485 33.1078 14.0555 31.4801 12.0469 31.4801Z" stroke="#878787" stroke-miterlimit="10"/>
</svg>
