<svg width="96" height="79" viewBox="0 0 96 79" fill="none" xmlns="http://www.w3.org/2000/svg">
<circle opacity="0.1" cx="29.2222" cy="43.6192" r="29.1597" fill="#878787"/>
<mask id="mask0_7574_1085" style="mask-type:alpha" maskUnits="userSpaceOnUse" x="0" y="14" width="59" height="59">
<circle cx="29.2222" cy="43.6192" r="29.1597" fill="#878787"/>
</mask>
<g mask="url(#mask0_7574_1085)">
<path d="M23.9781 25.8044C23.9781 25.8044 23.7768 32.0087 22.9899 34.7722L16.7124 39.1463L40.3398 42.6785L34.7029 34.9003C34.7029 34.9003 33.0008 26.5914 33.8976 23.5167C34.7761 20.442 23.9781 25.8044 23.9781 25.8044Z" fill="#FFBF9D"/>
<path d="M42.7364 36.3642C39.8814 35.6505 37.191 35.1929 34.702 34.9001C32.5058 37.81 30.9319 38.4872 28.937 39.2742C25.7159 38.8349 22.989 34.8635 22.989 34.772C18.3038 35.2478 15.65 36.2361 15.65 36.2361C13.8748 36.9865 11.5322 50.914 11.1661 58.6373C11.1295 59.6073 12.6377 56.5143 12.656 57.2464C11.1661 62.2157 17.9372 74.6695 10.7269 81.4411C9.61049 90.8298 11.5139 90.6651 11.5139 90.6651C11.5139 90.6651 14.0761 91.1593 17.6449 91.6351C20.8843 92.0744 24.9289 92.477 28.6625 92.477C37.2276 92.477 46.6164 90.6651 46.6164 90.6651C49.325 90.7017 45.866 73.8459 45.3536 63.7068C45.2437 61.3459 45.1339 59.2046 45.0241 57.2464C48.2635 60.0465 57.817 65.1344 58.0366 65.7932C58.0366 65.7932 55.9502 69.6 55.3279 71.6314C52.8938 79.4096 48.7211 84.5707 48.7211 84.5707C49.2884 86.7303 49.1237 87.682 49.1237 87.682C55.7306 82.4843 59.9949 78.0736 62.7218 74.6695C66.5468 69.8928 67.3338 67.1658 67.3338 67.1658C52.601 37.1878 42.7364 36.3642 42.7364 36.3642Z" fill="#373737"/>
<path opacity="0.2" d="M15.1059 86.877C11.5371 86.4011 8.97487 85.907 8.97487 85.907C8.97487 85.907 7.0715 86.0717 8.1879 76.683C9.04807 69.5453 8.77355 63.1032 8.59053 56.4597C8.57223 55.7276 8.59053 54.8491 8.62714 53.8791C9.17618 54.7576 15.2706 64.6039 16.9178 71.9245C18.1074 77.2686 16.3138 83.5644 15.1059 86.877Z" fill="#373737"/>
<path d="M48.703 84.5523C49.2704 86.7119 49.1056 87.6636 49.1056 87.6636C55.7125 82.4659 59.9768 78.0552 62.7037 74.6511C60.654 74.5047 58.7506 74.0472 55.3099 71.613C52.4731 80.3063 48.703 84.5523 48.703 84.5523Z" fill="#FFBF9D"/>
<path opacity="0.2" d="M57.2135 65.1162C56.6828 64.677 48.2091 60.0101 44.988 57.2099C44.988 57.2099 48.1908 54.8124 50.1674 58.308C52.1623 61.822 57.2135 65.1162 57.2135 65.1162Z" fill="#373737"/>
<path opacity="0.2" d="M67.3348 67.1475C67.3348 67.1475 66.5479 69.8744 62.7228 74.6511C58.2938 74.5962 67.3348 67.1475 67.3348 67.1475Z" fill="#373737"/>
<path d="M29.4132 73.9924C27.1987 74.3218 15.8334 76.9573 7.74408 77.9821C3.18698 78.5678 -0.345233 78.6227 -0.619758 77.4697C-1.37012 74.2852 1.1921 53.9704 5.25506 45.7896C9.31802 37.6088 16.8766 35.8518 16.8766 35.8518L19.0179 48.7911L8.11012 70.5334L10.7639 70.5883L28.9923 70.9177L29.4132 73.9924Z" fill="#373737"/>
<path d="M35.8432 75.4769H30.9352C30.3436 75.4769 29.8616 74.9948 29.8616 74.4033V65.5075C29.8616 64.9159 30.3436 64.4338 30.9352 64.4338H35.8432C36.4348 64.4338 36.9169 64.9159 36.9169 65.5075V74.4033C36.9169 74.9948 36.4348 75.4769 35.8432 75.4769Z" fill="#373737"/>
<path d="M35.8435 76.3753H30.9354C30.3439 76.3753 29.8618 75.8933 29.8618 75.3017V66.4059C29.8618 65.8143 30.3439 65.3323 30.9354 65.3323H35.8435C36.4351 65.3323 36.9171 65.8143 36.9171 66.4059V75.3017C36.9171 75.8933 36.4351 76.3753 35.8435 76.3753Z" fill="#373737"/>
<path d="M26.8687 71.6132C26.8687 71.6132 32.8716 67.477 34.8299 68.9229C36.7881 70.3504 36.9528 73.7728 28.7903 74.0656L26.8687 71.6132Z" fill="#FFBF9D"/>
<path d="M29.4139 73.9927C27.1994 74.3222 15.8341 76.9576 7.74475 77.9825C8.45851 74.5235 9.57491 72.1809 10.7645 70.5886L28.9929 70.9181L29.4139 73.9927Z" fill="#FFBF9D"/>
<g clip-path="url(#clip0_7574_1085)">
<path d="M23.6154 27.8799C23.6154 27.8799 25.4435 32.2544 28.8886 32.1498C32.3337 32.0452 33.1247 28.1936 33.1247 28.1936L23.6154 27.8799Z" fill="#ED985F"/>
<path d="M21.5592 24.3419C21.5592 24.3419 20.4518 18.8346 19.6784 17.1615C18.9051 15.5059 18.2547 8.06404 26.8675 7.66319C26.8675 7.66319 30.172 8.04661 31.9825 6.96606C31.9825 6.96606 31.9825 8.06404 31.5255 8.44746C31.5255 8.44746 34.496 7.75033 36.8338 10.3123C39.1715 12.8742 35.287 21.8671 35.4803 23.976L21.5592 24.3419Z" fill="#373737"/>
<path d="M28.502 30.4592C26.0061 30.4069 21.4184 27.113 21.4184 23.0348V16.6735C21.4184 15.1747 22.4731 13.9722 23.7562 13.9722H33.283C34.5661 13.9722 35.6208 15.1921 35.6208 16.6735V22.6862C35.6032 26.9561 31.3671 30.5115 28.502 30.4592Z" fill="#FFBF9D"/>
<path d="M21.4185 20.0721C21.4185 20.0721 21.436 16.2379 24.4945 15.6628C27.5529 15.0702 34.3904 17.5276 35.3572 14.7391C36.3239 11.9506 22.1391 12.0029 21.4185 13.7806C20.6978 15.5408 21.4185 20.0721 21.4185 20.0721Z" fill="#373737"/>
</g>
</g>
<g clip-path="url(#clip1_7574_1085)">
<path d="M23.6972 28.8396C23.6972 28.8396 25.4969 33.1463 28.8886 33.0433C32.2803 32.9404 33.059 29.1484 33.059 29.1484L23.6972 28.8396Z" fill="#ED985F"/>
<path d="M21.6727 25.3565C21.6727 25.3565 20.5825 19.9346 19.8211 18.2874C19.0597 16.6574 18.4194 9.33095 26.8987 8.93632C26.8987 8.93632 30.152 9.31379 31.9344 8.25C31.9344 8.25 31.9344 9.33095 31.4845 9.70843C31.4845 9.70843 34.409 9.02211 36.7105 11.5443C39.012 14.0666 35.1877 22.9201 35.378 24.9962L21.6727 25.3565Z" fill="#373737"/>
<path d="M28.5078 31.3789C26.0505 31.3274 21.534 28.0846 21.534 24.0696V17.8069C21.534 16.3314 22.5723 15.1475 23.8356 15.1475H33.2147C34.4779 15.1475 35.5162 16.3485 35.5162 17.8069V23.7264C35.4989 27.9302 31.3285 31.4304 28.5078 31.3789Z" fill="#FFBF9D"/>
<path d="M21.5338 21.1527C21.5338 21.1527 21.5511 17.378 24.5621 16.8118C27.5731 16.2284 34.3046 18.6477 35.2564 15.9024C36.2081 13.1571 22.2432 13.2086 21.5338 14.9587C20.8243 16.6916 21.5338 21.1527 21.5338 21.1527Z" fill="#373737"/>
</g>
<g filter="url(#filter0_d_7574_1085)">
<circle cx="60.6802" cy="31.6585" r="15" transform="rotate(-6.58208 60.6802 31.6585)" fill="white"/>
</g>
<path d="M60.7839 39.936C61.7431 39.6534 62.2969 38.6379 62.0145 37.6793L58.5264 38.7068C58.8088 39.6655 59.8159 40.2211 60.7839 39.936ZM66.6988 32.9093L65.6786 29.4464C64.8904 26.771 62.8005 24.9526 60.1319 25.0948L59.9573 24.5022C59.7442 23.7789 58.988 23.3671 58.2642 23.5803C57.5404 23.7935 57.1281 24.5495 57.3412 25.2729L57.5158 25.8655C55.1876 27.1953 54.4234 29.845 55.2141 32.5291L56.2343 35.9921L55.0037 38.2488L55.2604 39.1203L69.213 35.0099L68.9563 34.1384L66.6988 32.9093Z" fill="#FED631"/>
<path d="M35.783 79.0005H30.2178C29.5469 79.0005 29.0004 78.3457 29.0004 77.5422V65.4588C29.0004 64.6552 29.5469 64.0005 30.2178 64.0005H35.783C36.4538 64.0005 37.0004 64.6552 37.0004 65.4588V77.5422C37.0004 78.3457 36.4538 79.0005 35.783 79.0005Z" fill="#373737"/>
<path d="M35.889 78.6255H30.2368C29.5555 78.6255 29.0004 77.9871 29.0004 77.2036V65.4224C29.0004 64.6389 29.5555 64.0005 30.2368 64.0005H35.889C36.5702 64.0005 37.1254 64.6389 37.1254 65.4224V77.2036C37.1254 77.9871 36.5702 78.6255 35.889 78.6255Z" fill="#1877F2"/>
<path d="M25.3283 75.5239C25.3283 75.5239 31.3445 76.0287 32.3167 75.0962C33.2889 74.1636 33.3 72.209 32.3167 70.3412C32.0655 69.8641 31.7443 69.4402 31.3445 69.1225C30.5808 68.5642 29.3133 69.1225 29.3133 69.1225C29.3133 69.1225 29.7195 65.8725 21.9442 73.3283C16.3797 72.0299 13.5359 75.056 25.3283 75.5239Z" fill="#FFBF9D"/>
<path d="M24.031 75.3967C21.3808 75.7909 3.18569 77.7309 2.62992 75.3967C1.87955 72.2122 -0.344044 55.7163 5.25474 46.1541C9.3177 37.9733 16.8763 36.2163 16.8763 36.2163L14.1426 49.1556L11.3598 68.4604L14.0135 68.5153L24.031 70.7476V75.3967Z" fill="#373737"/>
<defs>
<filter id="filter0_d_7574_1085" x="25.6788" y="0.657227" width="70.0028" height="70.0027" filterUnits="userSpaceOnUse" color-interpolation-filters="sRGB">
<feFlood flood-opacity="0" result="BackgroundImageFix"/>
<feColorMatrix in="SourceAlpha" type="matrix" values="0 0 0 0 0 0 0 0 0 0 0 0 0 0 0 0 0 0 127 0" result="hardAlpha"/>
<feOffset dy="4"/>
<feGaussianBlur stdDeviation="10"/>
<feColorMatrix type="matrix" values="0 0 0 0 0 0 0 0 0 0 0 0 0 0 0 0 0 0 0.13 0"/>
<feBlend mode="normal" in2="BackgroundImageFix" result="effect1_dropShadow_7574_1085"/>
<feBlend mode="normal" in="SourceGraphic" in2="effect1_dropShadow_7574_1085" result="shape"/>
</filter>
<clipPath id="clip0_7574_1085">
<rect width="18.3154" height="25.1837" fill="white" transform="translate(19.2562 6.96606)"/>
</clipPath>
<clipPath id="clip1_7574_1085">
<rect width="18.0315" height="24.7933" fill="white" transform="translate(19.4054 8.25)"/>
</clipPath>
</defs>
</svg>
