<svg width="16" height="16" viewBox="0 0 16 16" fill="none" xmlns="http://www.w3.org/2000/svg">
<g clip-path="url(#clip0_8201_10564)">
<path d="M8.8 12H7.2V10.4H8.8V12ZM8.8 8.8H7.2L7.2 4L8.8 4L8.8 8.8ZM8 16C12.416 16 16 12.416 16 8C16 3.584 12.416 0 8 0C3.584 0 0 3.584 0 8C0 12.416 3.584 16 8 16ZM8 1.6C11.528 1.6 14.4 4.472 14.4 8C14.4 11.528 11.528 14.4 8 14.4C4.472 14.4 1.6 11.528 1.6 8C1.6 4.472 4.472 1.6 8 1.6Z" fill="#D70007"/>
</g>
<defs>
<clipPath id="clip0_8201_10564">
<rect width="16" height="16" fill="white" transform="matrix(-1 0 0 -1 16 16)"/>
</clipPath>
</defs>
</svg>
