<svg width="36" height="16" viewBox="0 0 36 16" fill="none" xmlns="http://www.w3.org/2000/svg">
<rect width="36" height="16" rx="8" fill="#233D7A"/>
<path d="M6.644 3.402C6.748 3.402 6.824 3.416 6.872 3.444C6.924 3.468 6.982 3.52 7.046 3.6L12.026 10.08C12.014 9.976 12.006 9.876 12.002 9.78C11.998 9.68 11.996 9.584 11.996 9.492V3.402H13.016V12H12.428C12.336 12 12.258 11.984 12.194 11.952C12.134 11.92 12.074 11.866 12.014 11.79L7.04 5.316C7.048 5.416 7.054 5.514 7.058 5.61C7.062 5.706 7.064 5.794 7.064 5.874V12H6.044V3.402H6.644ZM17.3523 5.826C17.7163 5.826 18.0523 5.888 18.3603 6.012C18.6683 6.132 18.9343 6.308 19.1583 6.54C19.3823 6.768 19.5563 7.052 19.6803 7.392C19.8083 7.728 19.8723 8.112 19.8723 8.544C19.8723 8.712 19.8543 8.824 19.8183 8.88C19.7823 8.936 19.7143 8.964 19.6143 8.964H15.5703C15.5783 9.348 15.6303 9.682 15.7263 9.966C15.8223 10.25 15.9543 10.488 16.1223 10.68C16.2903 10.868 16.4903 11.01 16.7223 11.106C16.9543 11.198 17.2143 11.244 17.5023 11.244C17.7703 11.244 18.0003 11.214 18.1923 11.154C18.3883 11.09 18.5563 11.022 18.6963 10.95C18.8363 10.878 18.9523 10.812 19.0443 10.752C19.1403 10.688 19.2223 10.656 19.2903 10.656C19.3783 10.656 19.4463 10.69 19.4943 10.758L19.7943 11.148C19.6623 11.308 19.5043 11.448 19.3203 11.568C19.1363 11.684 18.9383 11.78 18.7263 11.856C18.5183 11.932 18.3023 11.988 18.0783 12.024C17.8543 12.064 17.6323 12.084 17.4123 12.084C16.9923 12.084 16.6043 12.014 16.2483 11.874C15.8963 11.73 15.5903 11.522 15.3303 11.25C15.0743 10.974 14.8743 10.634 14.7303 10.23C14.5863 9.826 14.5143 9.362 14.5143 8.838C14.5143 8.414 14.5783 8.018 14.7063 7.65C14.8383 7.282 15.0263 6.964 15.2703 6.696C15.5143 6.424 15.8123 6.212 16.1643 6.06C16.5163 5.904 16.9123 5.826 17.3523 5.826ZM17.3763 6.612C16.8603 6.612 16.4543 6.762 16.1583 7.062C15.8623 7.358 15.6783 7.77 15.6063 8.298H18.9123C18.9123 8.05 18.8783 7.824 18.8103 7.62C18.7423 7.412 18.6423 7.234 18.5103 7.086C18.3783 6.934 18.2163 6.818 18.0243 6.738C17.8363 6.654 17.6203 6.612 17.3763 6.612ZM20.4473 5.922H21.2873C21.3753 5.922 21.4473 5.944 21.5033 5.988C21.5593 6.032 21.5973 6.084 21.6173 6.144L22.7813 10.056C22.8133 10.2 22.8433 10.34 22.8713 10.476C22.8993 10.608 22.9233 10.742 22.9433 10.878C22.9753 10.742 23.0113 10.608 23.0513 10.476C23.0913 10.34 23.1333 10.2 23.1773 10.056L24.4613 6.12C24.4813 6.06 24.5153 6.01 24.5633 5.97C24.6153 5.93 24.6793 5.91 24.7553 5.91H25.2173C25.2973 5.91 25.3633 5.93 25.4153 5.97C25.4673 6.01 25.5033 6.06 25.5233 6.12L26.7773 10.056C26.8213 10.196 26.8593 10.334 26.8913 10.47C26.9273 10.606 26.9613 10.74 26.9933 10.872C27.0133 10.74 27.0393 10.602 27.0713 10.458C27.1033 10.314 27.1373 10.18 27.1733 10.056L28.3613 6.144C28.3813 6.08 28.4193 6.028 28.4753 5.988C28.5313 5.944 28.5973 5.922 28.6733 5.922H29.4773L27.5093 12H26.6633C26.5593 12 26.4873 11.932 26.4473 11.796L25.1033 7.674C25.0713 7.582 25.0453 7.49 25.0253 7.398C25.0053 7.302 24.9853 7.208 24.9653 7.116C24.9453 7.208 24.9253 7.302 24.9053 7.398C24.8853 7.494 24.8593 7.588 24.8273 7.68L23.4653 11.796C23.4213 11.932 23.3393 12 23.2193 12H22.4153L20.4473 5.922Z" fill="white"/>
</svg>
