<svg width="131" height="60" viewBox="0 0 131 60" fill="none" xmlns="http://www.w3.org/2000/svg">
<path d="M79.7453 22.7244C69.2195 15.8168 54.8354 12.2687 39.1029 26.2205" stroke="#1877F2" stroke-dasharray="3 3"/>
<circle cx="39.9745" cy="26.2205" r="1.74806" fill="#1877F2"/>
<circle cx="34.7335" cy="38.4758" r="1.74806" fill="#373737"/>
<g clip-path="url(#clip0_14422_78951)">
<g opacity="0.11">
<path d="M107.438 48.8805C101.052 51.5134 93.4496 50.8034 87.5173 46.3445C78.662 39.6493 76.8903 27.0469 83.6214 18.1924C90.3034 9.36342 102.916 7.62373 111.797 14.3682C120.653 21.0634 122.424 33.6658 115.693 42.5203C114.275 44.4165 112.552 45.97 110.686 47.1909L107.438 48.8805Z" fill="#373737"/>
</g>
<path d="M97.2251 19.8844L105.262 20.631L108.517 21.5741C109.928 21.9671 111.183 22.7138 112.241 23.6962L122.827 33.8743L124.748 18.116L130.002 18.5875L129.139 38.8651C128.355 41.3408 126.081 43.0699 123.415 43.0699C121.847 43.0699 120.318 42.4018 119.181 41.3015L111.692 34.2279L112.437 43.5415L113.143 45.1134C108.203 49.947 100.636 51.5582 94.6767 49.9077C94.6767 49.9077 94.4414 49.0431 93.2653 41.6159C92.3243 35.6034 91.8538 22.5173 91.8538 22.5173L97.2251 19.8844Z" fill="#373737"/>
<path d="M83.9341 43.0699C83.9341 43.0699 86.3257 29.8659 87.1882 27.0365C88.1684 23.8534 92.2458 22.3208 92.2458 22.3208L93.5788 34.1886L89.9327 48.1786C89.9327 48.1786 85.6984 45.6635 83.9341 43.0699Z" fill="#373737"/>
<path d="M112.359 43.6988C112.398 43.6988 112.241 40.3585 111.967 36.1929C111.692 32.0667 111.418 28.6871 111.379 28.7264C111.34 28.7264 111.496 32.0667 111.771 36.2322C112.045 40.3585 112.281 43.6988 112.359 43.6988Z" fill="#263238"/>
<path d="M99.1461 35.2102C99.1461 35.2102 99.1461 35.2495 99.1853 35.3674C99.2246 35.4853 99.303 35.6425 99.3814 35.7997C99.4598 35.9962 99.5774 36.2319 99.695 36.4677C99.8519 36.7428 99.9695 37.0179 100.166 37.3323C100.244 37.4895 100.362 37.6467 100.479 37.8431C100.597 38.0003 100.714 38.1968 100.832 38.354C101.067 38.7077 101.381 39.0614 101.695 39.4543C102.322 40.201 103.106 40.9476 103.969 41.655C104.87 42.3624 105.772 42.9125 106.635 43.3841C107.066 43.5806 107.497 43.8164 107.889 43.9736C108.085 44.0522 108.281 44.1307 108.477 44.2093C108.673 44.2879 108.869 44.3272 109.026 44.4058C109.379 44.5237 109.693 44.6023 109.967 44.6809C110.242 44.7595 110.516 44.7988 110.712 44.8381C110.908 44.8774 111.065 44.8774 111.182 44.9167C111.3 44.9167 111.339 44.956 111.339 44.9167C111.339 44.9167 111.3 44.8774 111.182 44.8774C111.065 44.8381 110.908 44.7988 110.712 44.7595C110.516 44.7202 110.281 44.6416 110.006 44.563C109.732 44.4844 109.418 44.4058 109.065 44.2486C108.909 44.17 108.712 44.1307 108.516 44.0522C108.32 43.9736 108.124 43.895 107.928 43.8164C107.536 43.6592 107.105 43.4234 106.674 43.2269C105.811 42.7553 104.909 42.2052 104.047 41.4978C103.184 40.7905 102.4 40.0438 101.773 39.2972C101.459 38.9042 101.146 38.5898 100.91 38.2361C100.793 38.0789 100.636 37.8824 100.558 37.7252C100.44 37.5681 100.362 37.4109 100.244 37.2537C100.048 36.9393 99.8911 36.6642 99.7342 36.3891C99.5774 36.1533 99.4598 35.9176 99.3814 35.7211C99.303 35.5639 99.2246 35.4067 99.1853 35.2888C99.1461 35.2495 99.1461 35.2102 99.1461 35.2102Z" fill="#263238"/>
<g opacity="0.2">
<g opacity="0.2">
<g opacity="0.2">
<path opacity="0.2" d="M110.398 44.7989C110.986 44.6417 111.3 43.895 111.143 43.3056C110.986 42.7161 110.477 42.2446 109.928 42.0088C109.379 41.7337 108.752 41.6158 108.163 41.4979C105.576 40.8691 103.184 39.533 101.302 37.6467C101.145 37.4896 100.871 37.2931 100.675 37.411C100.401 37.5682 100.597 38.0004 100.793 38.2755C103.341 41.5765 106.752 43.8558 110.555 44.8382" fill="black"/>
</g>
</g>
</g>
<path d="M91.8145 40.9872C91.8145 40.9872 91.8537 40.8693 91.9321 40.6335C92.0105 40.3977 92.089 40.0833 92.2066 39.6904C92.4418 38.8651 92.7163 37.7648 92.9907 36.5073C93.2651 35.2497 93.5004 34.1101 93.6572 33.3242C93.7356 32.9312 93.7748 32.5775 93.814 32.3417C93.8532 32.1059 93.8532 31.988 93.8532 31.988C93.8532 31.988 93.814 32.1059 93.7356 32.3417C93.6572 32.6168 93.618 32.9312 93.5004 33.3242C93.3044 34.1887 93.0691 35.289 92.7947 36.5073C92.5202 37.7255 92.2458 38.8258 92.0497 39.6904C91.9713 40.0833 91.8929 40.3977 91.8537 40.6728C91.8145 40.83 91.7753 40.9872 91.8145 40.9872Z" fill="#263238"/>
<path d="M129.061 20.0809C129.1 20.0809 129.178 19.7273 129.217 19.295C129.257 18.8627 129.257 18.4697 129.217 18.4697C129.178 18.4697 129.1 18.8234 129.061 19.2557C129.021 19.7273 129.021 20.0809 129.061 20.0809Z" fill="#263238"/>
<path d="M127.531 20.1202C127.571 20.1202 127.649 19.7272 127.649 19.2557C127.688 18.7841 127.649 18.3911 127.61 18.3911C127.571 18.3911 127.492 18.7841 127.492 19.2557C127.453 19.7665 127.492 20.1202 127.531 20.1202Z" fill="#263238"/>
<path d="M126.002 20.0416C126.042 20.0416 126.12 19.6093 126.159 19.0984C126.199 18.5875 126.159 18.1553 126.12 18.1553C126.081 18.1553 126.002 18.5875 125.963 19.0984C125.924 19.6093 125.963 20.0416 126.002 20.0416Z" fill="#263238"/>
<path d="M123.023 36.5858C123.062 36.5858 123.062 35.957 122.984 35.1711C122.905 34.4244 122.788 33.7957 122.748 33.7957C122.709 33.7957 122.709 34.4244 122.788 35.2104C122.905 35.9963 122.984 36.6251 123.023 36.5858Z" fill="#263238"/>
<path d="M88.992 24.3251C88.992 24.3644 89.4232 24.3251 90.0898 24.4823C90.7563 24.6002 91.6188 24.9539 92.4029 25.6219C93.1871 26.29 93.6183 27.1152 93.8536 27.744C94.0888 28.3727 94.128 28.805 94.128 28.805C94.128 28.805 94.128 28.6871 94.128 28.4906C94.128 28.2942 94.0496 28.0191 93.9712 27.7047C93.7751 27.0366 93.3047 26.1721 92.5205 25.4647C91.7364 24.7574 90.7955 24.443 90.129 24.3251C89.7761 24.2858 89.5017 24.2465 89.3056 24.2858C89.1096 24.2858 88.992 24.2858 88.992 24.3251Z" fill="#263238"/>
<path d="M123.101 31.2806C123.101 31.3199 124.473 31.6736 126.238 32.0272C127.963 32.3809 129.374 32.656 129.413 32.6167C129.413 32.5774 128.041 32.2237 126.277 31.8701C124.513 31.5164 123.101 31.2413 123.101 31.2806Z" fill="#373737"/>
<path d="M124.16 22.1636C124.16 22.2029 124.474 22.2422 124.983 22.3601C125.493 22.4387 126.199 22.5566 126.983 22.6352C127.767 22.7138 128.473 22.7924 129.022 22.8317C129.531 22.871 129.845 22.871 129.845 22.8317C129.845 22.7924 129.531 22.7531 129.022 22.7138C128.433 22.6352 127.767 22.5566 127.022 22.478C126.277 22.3994 125.571 22.3208 125.022 22.2422C124.474 22.1636 124.16 22.1243 124.16 22.1636Z" fill="#373737"/>
<path d="M121.455 6.28735C121.376 6.48384 118.867 19.3734 118.867 19.3734L124.748 19.6485L127.022 8.52731L121.455 6.28735Z" fill="#455A64"/>
<path d="M118.828 19.3734L118.161 19.059L120.71 6.36595L121.533 6.28735L118.828 19.3734Z" fill="#263238"/>
<path d="M123.807 9.07733C123.768 9.23452 123.925 9.39171 124.082 9.43101C124.238 9.4703 124.395 9.31311 124.434 9.15592C124.474 8.99873 124.317 8.84154 124.16 8.80225C124.003 8.80225 123.846 8.92014 123.807 9.07733Z" fill="#263238"/>
<path d="M125.023 18.155L125.101 16.4653L122.592 15.4435L123.572 13.0857C124.042 11.9853 125.375 11.5531 126.395 12.1032C126.748 12.2997 127.1 12.4962 127.414 12.6534C128.12 13.0464 128.669 13.7144 128.865 14.5397C129.178 15.9151 129.492 18.7838 129.453 18.6659" fill="#FFBF9D"/>
<path d="M95.8138 3.1438C94.8336 3.73326 94.6376 5.03008 94.5592 6.13041C94.4808 7.27004 94.3239 8.52756 93.4222 9.19562C92.6773 9.74578 91.5011 9.86367 91.1874 10.7282C91.0306 11.1212 91.1874 11.6321 91.5403 11.9071C91.8931 12.1822 92.4028 12.2215 92.7557 11.9857C92.4028 12.6538 92.4028 13.5969 92.9517 14.1078C93.5006 14.658 94.5984 14.5401 94.912 13.872C94.716 14.3436 94.9904 14.9331 95.4609 15.1295C95.9314 15.2867 96.5195 15.0117 96.6763 14.5008" fill="#263238"/>
<path d="M107.615 12.7716C107.732 13.3611 108.399 13.7933 108.948 13.6361C109.536 13.5182 109.928 12.8502 109.771 12.2607C109.654 11.7892 109.261 11.4355 109.261 10.9639C109.301 10.4137 109.928 10.0994 110.477 9.94217C111.026 9.78498 111.653 9.5492 111.81 8.99903C111.967 8.44887 111.535 7.9773 111.183 7.54503C110.83 7.11275 110.555 6.48399 110.869 6.05172C111.026 5.81594 111.339 5.73734 111.535 5.54085C112.006 5.10858 111.928 4.32263 111.496 3.85106C111.065 3.37949 110.398 3.2223 109.81 3.2223C109.183 3.2223 108.595 3.37949 107.968 3.45809C105.929 3.69387 103.812 3.06511 102.244 1.6897" fill="#263238"/>
<path d="M100.793 24.6003C98.4798 24.7575 96.4803 22.9498 96.4019 20.6312L95.8922 7.54516C95.6961 4.20487 98.2446 1.33615 101.577 1.21826H101.891C104.988 1.29686 107.536 3.7333 107.732 6.83781C107.889 9.74582 108.046 12.9289 108.007 14.4615C107.889 17.6839 104.674 18.1162 104.674 18.1162L104.635 20.5133C104.635 22.6747 102.949 24.4431 100.793 24.6003Z" fill="#FFBF9D"/>
<path d="M104.674 18.0768C104.674 18.0768 102.636 18.1947 100.519 16.78C100.519 16.78 101.46 19.0986 104.635 18.9021L104.674 18.0768Z" fill="#AA6550"/>
<path d="M99.4599 4.08693C99.4207 4.08693 99.4207 4.08693 99.4599 4.08693C98.911 4.4799 98.5581 5.06937 98.4797 5.69813C98.4797 5.73742 98.4797 5.73742 98.4797 5.77672C98.3229 6.68056 98.3229 7.6237 98.1661 8.52755C98.0092 9.43139 97.6956 10.3745 96.9899 10.964C96.7154 11.1998 96.2057 11.3963 96.0097 11.0819C95.9313 10.964 95.9313 10.8068 95.8921 10.6496C95.7745 8.44895 95.2256 6.48408 95.2648 4.16552C95.2648 3.53676 95.5784 2.9473 96.0881 2.59362C96.5586 2.23995 97.1859 1.92557 97.6956 2.16135C98.2445 2.47573 98.911 3.45817 99.303 3.92974" fill="#263238"/>
<path d="M96.9507 8.99895C96.9115 8.95966 94.7551 8.2916 94.7943 10.4923C94.8335 12.6929 97.0291 12.2213 97.0291 12.1428C96.9899 12.1035 96.9507 8.99895 96.9507 8.99895Z" fill="#FFBF9D"/>
<path d="M96.3231 11.3174C96.3231 11.3174 96.2839 11.3567 96.2055 11.3567C96.1271 11.396 96.0487 11.396 95.9311 11.3567C95.6958 11.2781 95.4998 10.9244 95.4998 10.5314C95.4998 10.335 95.539 10.1385 95.6174 9.98128C95.6958 9.82409 95.7743 9.7062 95.8919 9.6669C96.0095 9.62761 96.0879 9.7062 96.1271 9.7848C96.1663 9.86339 96.1271 9.90269 96.1663 9.90269C96.1663 9.90269 96.2055 9.86339 96.2055 9.7848C96.2055 9.7455 96.1663 9.7062 96.1271 9.6669C96.0879 9.62761 96.0095 9.58831 95.9311 9.62761C95.7743 9.62761 95.6174 9.7848 95.539 9.98128C95.4606 10.1385 95.4214 10.3743 95.4214 10.61C95.4214 11.0423 95.6566 11.4746 95.9703 11.5532C96.1271 11.5925 96.2447 11.5532 96.3231 11.4746C96.3231 11.396 96.3231 11.3174 96.3231 11.3174Z" fill="#AA6550"/>
<path d="M97.6172 2.51495C97.1075 1.61111 98.5974 0.39289 99.6951 0.0785095C100.793 -0.235871 102.204 0.314295 103.263 0.70727C103.929 0.943055 104.596 1.25743 105.302 1.25743C105.772 1.25743 106.243 1.10024 106.713 0.943055C107.184 0.785865 107.654 0.667972 108.125 0.70727C108.595 0.746567 109.105 1.02165 109.261 1.45392C109.418 1.88619 109.144 2.51495 108.673 2.55425C109.301 2.23987 110.163 2.67214 110.242 3.3795C110.32 4.04756 109.575 4.71562 108.909 4.55843C109.222 4.32264 109.693 4.71562 109.654 5.10859C109.614 5.50157 109.261 5.77665 108.869 5.93384C107.968 6.32681 106.87 6.16962 105.968 5.81595C105.027 5.46227 104.165 4.9514 103.224 4.59772C102.283 4.24404 100.754 3.57599 99.8128 3.89037C99.107 4.12615 98.5974 4.9514 98.2445 4.75491C97.8524 4.55843 97.6564 4.16545 97.578 3.77248C97.4604 3.3795 97.5388 2.94723 97.6172 2.51495Z" fill="#263238"/>
<path d="M107.536 2.20053C107.536 2.20053 107.732 2.08264 108.085 2.27913C108.242 2.35772 108.399 2.55421 108.516 2.79C108.634 3.02578 108.673 3.34016 108.516 3.65454C108.242 4.2833 107.419 4.67628 106.556 4.59768C105.694 4.55838 104.831 4.08681 104.047 3.53665C103.263 2.98648 102.518 2.43632 101.773 2.12194C101.381 1.96475 101.028 1.88615 100.675 1.84686C100.322 1.84686 99.9695 1.88615 99.695 2.00405C99.1069 2.20053 98.7541 2.59351 98.5581 2.86859C98.4012 3.18297 98.362 3.37946 98.362 3.37946C98.362 3.37946 98.362 3.34016 98.362 3.22227C98.362 3.14367 98.4012 2.98648 98.4796 2.82929C98.6365 2.51491 99.0285 2.08264 99.6166 1.84686C99.9303 1.72896 100.283 1.65037 100.675 1.68967C101.067 1.68967 101.459 1.80756 101.851 1.96475C102.636 2.27913 103.38 2.82929 104.204 3.37946C104.988 3.92962 105.811 4.3226 106.635 4.40119C107.419 4.47979 108.203 4.12611 108.438 3.57595C108.556 3.30086 108.556 3.02578 108.477 2.79C108.399 2.55421 108.242 2.39702 108.124 2.31843C107.732 2.16124 107.536 2.23983 107.536 2.20053Z" fill="#455A64"/>
<path d="M101.577 0.982394C101.577 1.02169 101.303 0.903799 100.832 0.903799C100.362 0.864502 99.7343 0.943097 99.107 1.29677C98.4797 1.65045 98.0876 2.16132 97.8916 2.59359C97.6564 2.98657 97.6172 3.30095 97.578 3.30095C97.5388 3.30095 97.578 2.98657 97.774 2.55429C97.97 2.12202 98.3621 1.53256 99.0286 1.13958C99.6951 0.785907 100.401 0.707312 100.871 0.785907C101.303 0.785907 101.577 0.943097 101.577 0.982394Z" fill="#455A64"/>
<path d="M95.6178 6.52342C95.5786 6.52342 95.461 6.32693 95.461 5.93395C95.4218 5.54098 95.5002 4.99081 95.8531 4.47995C96.2059 3.96908 96.7156 3.694 97.0685 3.6154C97.4605 3.49751 97.6958 3.53681 97.6958 3.53681C97.6958 3.5761 97.4605 3.5761 97.1077 3.73329C96.7548 3.85119 96.3235 4.12627 96.0099 4.59784C95.6962 5.06941 95.6178 5.58028 95.6178 5.93395C95.6178 6.28763 95.657 6.52342 95.6178 6.52342Z" fill="#455A64"/>
</g>
<path d="M38.4333 46.4726C35.531 52.6161 29.6073 57.105 22.4635 57.6935C11.7667 58.5746 2.41526 50.4495 1.55549 39.5273C0.695714 28.6051 8.65572 19.054 19.3525 18.1729C30.0493 17.2917 39.4008 25.4169 40.2605 36.3391C40.4428 38.6547 40.2033 40.9274 39.6491 43.0707L38.4333 46.4726Z" fill="#E9E9E9"/>
<path d="M34.6989 37.0868L33.7434 43.6039L29.2885 30.2862C25.6906 16.7767 24.8461 41.3255 30.3823 49.8998C32.589 53.3226 37.6685 52.8014 39.1805 49.016C40.203 46.4368 39.5104 42.8281 39.5104 38.458L34.6989 37.0868Z" fill="#FFBF9D"/>
<path d="M26.3296 24.2463H18.518C18.518 24.2463 11.4649 26.8018 9.15172 28.6216C6.83858 30.4027 3.34992 43.0639 3.34992 43.0639L10.4031 42.8703L10.934 53.7504C18.1767 59.0162 26.8226 58.7065 33.5345 53.8666L34.0274 45.5419H33.9895L39.5121 43.0639C39.5121 43.0639 41.2603 32.7762 36.1509 28.4667C34.8996 26.4146 27.9223 24.5948 26.3296 24.2463Z" fill="#878787"/>
<path d="M18.0619 24.9436C18.0619 24.9436 18.0619 24.9824 18.0619 25.0985C18.0619 25.176 18.0998 25.3308 18.1377 25.4857C18.2136 25.8342 18.3652 26.2988 18.7065 26.8409C19.0478 27.383 19.5408 27.9637 20.2233 28.3897C20.9059 28.8543 21.816 29.0866 22.764 29.0866C23.712 29.0479 24.5842 28.7381 25.2667 28.2735C25.9493 27.8089 26.4043 27.1894 26.7077 26.6086C27.0111 26.0665 27.1248 25.5631 27.2007 25.2147C27.2386 25.0598 27.2386 24.9049 27.2386 24.8275C27.2386 24.75 27.2386 24.6726 27.2386 24.6726C27.2386 24.6726 27.2007 24.8662 27.1248 25.2147C27.049 25.5631 26.8973 26.0278 26.6319 26.5699C26.3285 27.1119 25.8735 27.6927 25.2288 28.1573C24.5842 28.622 23.712 28.9317 22.8019 28.9704C21.8918 29.0092 21.0197 28.7381 20.3371 28.3122C19.6545 27.8863 19.1616 27.3442 18.8203 26.8022C18.479 26.2601 18.3273 25.7955 18.2515 25.4857C18.0998 25.1372 18.0619 24.9436 18.0619 24.9436Z" fill="#263238"/>
<path d="M33.9887 37.2568C33.9507 37.2568 33.9128 39.1154 33.9128 41.3998C33.9128 43.6842 33.9507 45.5428 33.9887 45.5428C34.0266 45.5428 34.0645 43.6842 34.0645 41.3998C34.0266 39.1154 34.0266 37.2568 33.9887 37.2568Z" fill="#263238"/>
<path d="M10.4789 35.2046C10.4409 35.2046 10.403 37.0631 10.403 39.3476C10.403 41.632 10.4409 43.4905 10.4789 43.4905C10.5168 43.4905 10.5547 41.632 10.5547 39.3476C10.5168 37.0631 10.5168 35.2046 10.4789 35.2046Z" fill="#263238"/>
<path d="M33.9888 37.2566C33.9888 37.2566 34.1404 37.0243 34.2921 36.5984C34.4817 36.1725 34.7092 35.5917 34.9368 34.8947C35.1643 34.2365 35.3918 33.617 35.5435 33.1911C35.6952 32.7652 35.8089 32.4941 35.771 32.4941C35.771 32.4941 35.6193 32.7265 35.4677 33.1524C35.2781 33.5783 35.0505 34.1591 34.823 34.856C34.5955 35.5142 34.368 36.1338 34.2163 36.5597C34.0646 36.9856 33.9508 37.2566 33.9888 37.2566Z" fill="#263238"/>
<path d="M33.9513 37.8376C33.9892 37.8763 34.558 37.3343 35.2785 36.676C35.999 36.0178 36.5678 35.4757 36.5298 35.437C36.4919 35.3983 35.9231 35.9404 35.2026 36.5986C34.4821 37.2568 33.9133 37.8376 33.9513 37.8376Z" fill="#263238"/>
<path d="M10.0225 32.145C9.98454 32.145 10.0604 32.8807 10.2121 33.7712C10.3258 34.6618 10.4775 35.3974 10.5154 35.3974C10.5533 35.3974 10.4775 34.6618 10.3258 33.7712C10.1741 32.8807 10.0604 32.145 10.0225 32.145Z" fill="#263238"/>
<g opacity="0.3">
<path opacity="0.3" d="M34.1029 45.4646C34.975 43.7997 35.5818 42.0186 35.8093 40.1988C36.0368 38.379 35.7334 36.4043 34.8613 34.7781L33.9512 37.7207L34.1029 45.4646Z" fill="black"/>
</g>
<path d="M20.64 43.8395H25.835C26.5555 43.8395 27.1243 43.2587 27.1243 42.5231V32.3399C27.1243 31.6042 26.5555 31.0234 25.835 31.0234H20.64C19.9195 31.0234 19.3507 31.6042 19.3507 32.3399V42.5618C19.3507 43.2587 19.9195 43.8395 20.64 43.8395Z" fill="#455A64"/>
<path d="M3.91738 43.064C3.84154 43.49 2.74185 50.111 2.93145 51.4274C3.12105 52.7439 3.46233 54.4862 4.97914 55.1445C6.49595 55.764 8.65741 54.9509 9.90878 52.7826C11.1222 50.6143 16.469 43.0253 16.469 43.0253L20.4127 42.522V35.7461L12.8286 40.6634L9.75709 43.5287L9.79502 42.9092L3.91738 43.064Z" fill="#FFBF9D"/>
<path d="M13.1693 40.5086C13.1314 40.4698 11.5008 41.9412 9.49104 43.761C7.48127 45.5808 5.88862 47.0908 5.88862 47.1296C5.88862 47.1683 7.55711 45.6969 9.56688 43.8771C11.5767 42.0186 13.2072 40.5086 13.1693 40.5086Z" fill="#E07646"/>
<path d="M26.1744 37.381L20.3125 35.8357L19.0014 39.7688L19.8754 42.3909L20.7495 42.3909L22.7106 41.1219C22.929 40.8117 22.9479 40.4556 22.8109 40.0856L22.6054 39.5306C22.6054 39.5306 25.3311 39.7541 25.7989 39.7957C26.3477 39.8634 26.3419 39.119 25.8867 38.9184C25.2256 38.6337 21.8703 37.8457 21.8703 37.8457L26.018 38.3087C26.2924 38.3425 26.5296 38.147 26.5609 37.8673C26.5672 37.6701 26.4177 37.4591 26.1744 37.381Z" fill="#FFBF9D"/>
<path d="M19.3526 35.2817L18.215 36.3272L17.5704 38.3406L19.3526 37.45V35.2817Z" fill="#FFBF9D"/>
<path d="M22.6895 33.3466C22.6895 33.6177 22.917 33.85 23.1824 33.85C23.4479 33.85 23.6754 33.6177 23.6754 33.3466C23.6754 33.0756 23.4479 32.8433 23.1824 32.8433C22.917 32.8433 22.6895 33.0756 22.6895 33.3466Z" fill="#FAFAFA"/>
<path d="M23.1824 33.8887C23.4479 33.8887 23.6754 33.6564 23.6754 33.3853C23.6754 33.1143 23.4479 32.882 23.1824 32.882C22.917 32.882 22.6895 33.1143 22.6895 33.3853C22.6895 33.6564 22.8791 33.8887 23.1824 33.8887ZM23.1824 32.8433C23.4479 32.8433 23.6754 33.0756 23.6754 33.3466C23.6754 33.6176 23.4479 33.85 23.1824 33.85C22.917 33.85 22.6895 33.6176 22.6895 33.3466C22.6895 33.0756 22.917 32.8433 23.1824 32.8433Z" fill="#263238"/>
<path d="M22.1958 28.1966C20.1102 28.0804 18.5175 26.2993 18.5175 24.1697C18.5175 22.8623 18.0837 21.4489 18.9437 20.1036C20.5616 17.5727 26.6356 20.1036 26.6356 20.1036L26.3291 24.5182C26.1774 26.6865 24.3193 28.3127 22.1958 28.1966Z" fill="#FFBF9D"/>
<circle r="1.74806" transform="matrix(-1 0 0 1 79.3064 22.7251)" fill="#1877F2"/>
<g clip-path="url(#clip1_14422_78951)">
<path d="M22.1512 5.24071C27.2867 5.39897 27.9388 10.859 27.8573 15.4485C27.7758 20.0381 25.6564 23.1242 22.4773 23.3616C19.2982 23.599 16.9342 20.5129 15.956 16.2398C15.0593 12.0459 14.0811 5.00332 22.1512 5.24071Z" fill="#FFBF9D"/>
<path d="M27.2051 14.2618C27.2051 14.2618 27.2051 12.3626 28.8355 12.8374C30.4658 13.3122 28.9985 17.6644 27.2051 17.3479C25.4118 17.1105 27.2051 14.2618 27.2051 14.2618Z" fill="#FFBF9D"/>
<path d="M16.9341 15.6068C16.9341 15.6068 16.6895 13.7076 15.1407 14.4198C13.5919 15.0528 15.6298 19.2468 17.3416 18.6928C19.0535 18.1389 16.9341 15.6068 16.9341 15.6068Z" fill="#FFBF9D"/>
<path d="M25.1674 9.4347C25.0859 11.3338 26.7977 12.3625 26.7977 12.3625V16.0025L27.3683 15.7651C27.3683 14.4199 27.8574 12.9164 27.8574 12.9164C28.1835 12.679 28.8356 12.9164 28.8356 12.9164C28.8356 12.9164 29.2432 10.4634 29.4877 9.59297C29.7323 8.80166 27.8574 7.69384 27.8574 7.61471C27.6944 7.61471 27.8574 6.26949 27.6944 5.95297C27.0423 4.37036 24.5153 4.37036 23.048 4.37036C19.9504 4.44949 16.7713 4.84514 13.7552 5.71558C14.0812 8.72253 14.8964 11.7295 14.8964 11.7295C17.831 10.0677 21.8252 9.59297 25.1674 9.4347Z" fill="#373737"/>
<path d="M17.5864 10.0676C17.5864 10.0676 18.2385 12.4415 16.6082 12.8372V15.3694L16.2822 15.6068C16.2822 15.6068 16.0376 14.5781 15.5485 14.3407L14.6518 10.305L17.5864 10.0676Z" fill="#373737"/>
<path d="M22.151 23.599C22.2325 23.599 22.3955 23.599 22.477 23.599C23.9443 23.5198 25.1671 22.8077 26.1453 21.6998C26.2268 21.6207 26.2268 21.4625 26.1453 21.3833C26.0637 21.3042 25.9007 21.3042 25.8192 21.3833C24.9225 22.412 23.7813 23.0451 22.477 23.1242C21.0913 23.2033 19.8685 22.7285 18.8088 21.5416C18.7273 21.4625 18.5643 21.4625 18.4828 21.5416C18.4012 21.6207 18.4012 21.779 18.4828 21.8581C19.5425 22.9659 20.7652 23.599 22.151 23.599Z" fill="#BA745D"/>
</g>
<defs>
<clipPath id="clip0_14422_78951">
<rect width="50.6938" height="50.6938" fill="white" transform="matrix(-1 0 0 1 130.002 0)"/>
</clipPath>
<clipPath id="clip1_14422_78951">
<rect width="15.7326" height="19.2287" fill="white" transform="matrix(-1 0 0 1 29.4878 4.37036)"/>
</clipPath>
</defs>
</svg>
