<svg width="127" height="69" viewBox="0 0 127 69" fill="none" xmlns="http://www.w3.org/2000/svg">
<path d="M16.7803 41.2971L45.4548 38.083L46.1266 38.9174L16.1085 42.3479L16.7803 41.2971Z" fill="#373737"/>
<path d="M16.4141 43.2444H16.7806L15.5896 55.2974L12.3221 55.3901L13.9101 45.7168C14.1238 44.3261 15.1621 43.2753 16.4141 43.2444Z" fill="#373737"/>
<path d="M14.3978 54.2988H110.437L108.575 57.9456H15.6804L14.3978 54.2988Z" fill="#373737"/>
<path d="M15.3754 43.1512C15.4365 42.4403 15.9556 41.8531 16.5969 41.7913L46.1264 38.9172C48.2029 35.394 52.2033 28.6258 53.7607 25.7825C75.3199 25.5043 90.4053 27.4205 90.4053 27.4205L97.948 38.979L112.685 42.726C115.179 43.3602 116.964 45.1016 116.462 47.6256C115.84 50.7525 114.425 54.898 113.033 57.213L13.36 57.4293L15.3754 43.1512Z" fill="#373737"/>
<path d="M80.6943 26.5247C83.7481 26.6792 90.5884 27.4518 90.5884 27.4518L97.9784 38.8867L116 45.1881C117.007 46.5788 115.293 53.6284 113.064 57.3371L87.2293 44.7278L80.6943 26.5247Z" fill="#373737"/>
<path d="M18.857 57.6454C18.7959 57.3364 18.7348 56.9964 18.7043 56.6874C18.2157 51.8971 21.5748 47.6012 26.247 47.1068C30.9192 46.5814 35.1028 50.0737 35.5914 54.833C35.683 55.7911 35.6219 56.7492 35.4387 57.6454H18.857Z" fill="#373737"/>
<path d="M114.378 55.0803H102.102L102.163 57.4909H113.859C114.103 57.4909 114.317 57.3364 114.408 57.1201L114.927 55.9148C115.08 55.513 114.805 55.0803 114.378 55.0803Z" fill="#373737"/>
<path d="M102.835 55.0802L102.865 56.4091H114.561C114.622 56.4091 114.653 56.4091 114.714 56.3782L114.408 57.0891C114.317 57.3054 114.103 57.4599 113.859 57.4599H102.163L102.102 55.0493H102.835V55.0802Z" fill="#373737"/>
<path d="M90.528 57.5217C90.4669 57.2436 90.4364 56.9654 90.4059 56.6873C89.9173 51.9279 93.2764 47.663 97.8875 47.1685C102.529 46.674 106.682 50.1045 107.171 54.8639C107.262 55.791 107.232 56.6873 107.049 57.5526H90.528V57.5217Z" fill="#373737"/>
<path d="M11.1303 54.2463H18.7646L18.7951 56.2552C18.8257 57.3987 17.9401 58.264 16.7491 58.264H11.3135C10.8249 58.264 10.4279 57.8313 10.3974 57.2441L10.2447 55.4516C10.1837 54.8026 10.5806 54.2463 11.1303 54.2463Z" fill="#373737"/>
<path d="M10.3068 56.2243H17.5441L17.5135 54.2463H18.7656L19.0709 56.8115C19.1625 57.615 18.5823 58.264 17.7578 58.264H11.3145C10.8259 58.264 10.4289 57.8313 10.3984 57.2441L10.3068 56.2243Z" fill="#373737"/>
<path d="M82.2831 37.8978L46.2186 38.7631L52.6009 27.73L80.3897 28.9353L82.2831 37.8978Z" fill="#E7F1FF"/>
<path d="M75.0454 30.2637L76.9082 30.3255L77.8548 35.4557H75.0454V30.2637Z" fill="#E7F1FF"/>
<path d="M49.3333 35.4557H48.1118L51.8068 29.2747L52.9367 29.3365L49.3333 35.4557Z" fill="#E7F1FF"/>
<path d="M59.3805 29.5835L70.1602 30.0471V35.4555H55.8993L59.3805 29.5835Z" fill="#E7F1FF"/>
<path d="M80.634 37.0013L79.1377 29.924L52.1123 28.5642L52.6925 27.668L80.4508 28.9351L82.2831 37.8976L46.2186 38.7629L46.9515 37.4958L80.634 37.0013Z" fill="#373737"/>
<path d="M71.6553 29.2129H73.8234L75.1671 37.6191H72.663L71.6553 29.2129Z" fill="#373737"/>
<path d="M53.7919 28.3479H56.1738L51.2573 37.8667H48.6006L53.7919 28.3479Z" fill="#373737"/>
<path opacity="0.4" d="M81.8551 37.6193L80.0534 29.1204L52.4173 28.0696L52.7532 27.4824L80.6642 28.6877L82.4964 38.0829L46.1266 38.9173L46.4625 38.361L81.8551 37.6193Z" fill="#373737"/>
<path d="M72.1742 28.0386H73.2735L74.6477 38.8554H73.2125L72.1742 28.0386Z" fill="#373737"/>
<path d="M55.6233 25.9065H56.6921L49.8518 39.1648H48.4165L55.6233 25.9065Z" fill="#373737"/>
<g opacity="0.31" filter="url(#filter0_f_14422_78855)">
<path d="M4.6875 63.3323H122.5C122.5 63.3323 102.651 64.5685 58.2803 64.5685C13.9097 64.5685 4.6875 63.3323 4.6875 63.3323Z" fill="#373737"/>
</g>
<path opacity="0.44" d="M15.8344 42.842H17.4834L16.323 50.5992H14.674L15.8344 42.842Z" fill="#44333F"/>
<path d="M16.6577 43.1824L15.7721 49.7652H14.7644L15.4973 44.2022C15.5584 43.615 16.0775 43.1824 16.6577 43.1824Z" fill="#FED631"/>
<path d="M15.009 47.0759H16.1084L15.7114 49.7956H14.6121L15.009 47.0759Z" fill="#FED631"/>
<path opacity="0.4" d="M50.0955 55.8531H72.5097L73.3953 39.7824L73.1205 37.959L72.6014 38.0208L72.9373 39.8133L71.8379 55.5131H50.6757L49.3931 40.5859L50.4619 38.608L50.1565 38.6389L48.9656 40.5859L50.0955 55.8531Z" fill="#373737"/>
<path d="M66.647 40.2461L71.6856 39.8135L71.5635 41.7296H66.647V40.2461Z" fill="#373737"/>
<path d="M98.8023 63.487C102.951 63.487 106.314 60.0278 106.314 55.7607C106.314 51.4936 102.951 48.0344 98.8023 48.0344C94.6535 48.0344 91.2902 51.4936 91.2902 55.7607C91.2902 60.0278 94.6535 63.487 98.8023 63.487Z" fill="#373737"/>
<path d="M98.802 62.9616C102.698 62.9616 105.856 59.7239 105.856 55.7298C105.856 51.7358 102.698 48.498 98.802 48.498C94.9062 48.498 91.7479 51.7358 91.7479 55.7298C91.7479 59.7239 94.9062 62.9616 98.802 62.9616Z" fill="#373737"/>
<path d="M98.8024 61.849C102.091 61.849 104.757 59.1231 104.757 55.7607C104.757 52.3982 102.091 49.6724 98.8024 49.6724C95.5137 49.6724 92.8477 52.3982 92.8477 55.7607C92.8477 59.1231 95.5137 61.849 98.8024 61.849Z" fill="#373737"/>
<path d="M98.2214 50.631C101.245 50.291 103.962 52.5162 104.268 55.6067C104.604 58.6972 102.405 61.4478 99.3818 61.7877C96.3586 62.1277 93.6408 59.9025 93.3354 56.812C92.9995 53.7215 95.1982 50.94 98.2214 50.631Z" fill="#373737"/>
<path d="M94.4352 56.9664C94.6795 59.4389 96.8477 61.2314 99.2601 60.9532C101.673 60.6751 103.413 58.4808 103.138 56.0084C102.894 53.536 100.726 51.7435 98.3135 52.0216C95.9316 52.2689 94.1909 54.494 94.4352 56.9664Z" fill="#373737"/>
<path d="M94.9851 60.6747C93.7026 59.6239 92.878 58.1095 92.7254 56.4407C92.3589 53.0102 94.8019 49.9197 98.161 49.5488C99.7795 49.3634 101.337 49.8579 102.619 50.8777C103.902 51.9285 104.726 53.4429 104.879 55.1118C105.246 58.5422 102.803 61.6327 99.4435 62.0036C99.2298 62.0345 99.016 62.0345 98.7717 62.0345C97.4281 62.0345 96.0845 61.54 94.9851 60.6747ZM98.1915 49.8579C95.0157 50.1978 92.7254 53.1338 93.0613 56.3789C93.214 57.955 93.9774 59.3767 95.1989 60.3965C96.3898 61.3855 97.8861 61.8182 99.413 61.6636C102.589 61.3237 104.879 58.3877 104.543 55.1427C104.391 53.5665 103.627 52.1449 102.406 51.125C101.367 50.2906 100.115 49.827 98.8328 49.827C98.619 49.827 98.4053 49.827 98.1915 49.8579Z" fill="#373737"/>
<path d="M96.2381 54.216C94.8334 53.258 93.7341 52.3926 93.7952 52.3308C93.8562 52.2381 95.0472 52.9798 96.4519 53.9379C97.8566 54.896 98.9559 55.7613 98.8949 55.8231C98.8338 55.8849 97.6428 55.1741 96.2381 54.216Z" fill="#373737"/>
<path d="M101.154 57.5842C99.7497 56.6262 98.6503 55.7608 98.7114 55.699C98.7725 55.6063 99.9634 56.348 101.368 57.3061C102.773 58.2641 103.872 59.1295 103.811 59.1913C103.75 59.284 102.59 58.5423 101.154 57.5842Z" fill="#373737"/>
<path d="M97.2755 58.357C96.3289 59.7786 95.4738 60.8912 95.4128 60.8294C95.3212 60.7676 96.054 59.5623 97.0007 58.1406C97.9473 56.719 98.8024 55.6064 98.8635 55.6682C98.9551 55.73 98.2222 56.9353 97.2755 58.357Z" fill="#373737"/>
<path d="M100.605 53.3504C99.6582 54.772 98.8032 55.8846 98.7421 55.8228C98.6505 55.761 99.3834 54.5557 100.33 53.134C101.277 51.7124 102.132 50.5998 102.193 50.6616C102.284 50.7234 101.582 51.9287 100.605 53.3504Z" fill="#373737"/>
<path d="M98.0696 52.8249C97.7337 51.1251 97.5505 49.7344 97.6726 49.7344C97.7642 49.7035 98.1001 51.0633 98.436 52.7631C98.7719 54.4629 98.9552 55.8536 98.833 55.8536C98.7414 55.8845 98.4055 54.5247 98.0696 52.8249Z" fill="#373737"/>
<path d="M99.1995 58.7585C98.8636 57.0587 98.6803 55.668 98.8025 55.668C98.8941 55.6371 99.23 56.9969 99.5659 58.6967C99.9018 60.3965 100.085 61.7872 99.9629 61.7872C99.8408 61.7872 99.5048 60.4274 99.1995 58.7585Z" fill="#373737"/>
<path d="M95.9329 56.5029C94.2533 56.8429 92.8792 57.0283 92.8792 56.9047C92.8486 56.812 94.1923 56.472 95.8718 56.1321C97.5514 55.7921 98.9255 55.6067 98.9255 55.7303C98.9255 55.823 97.5819 56.163 95.9329 56.5029Z" fill="#373737"/>
<path d="M101.765 55.3589C100.085 55.6989 98.7111 55.8843 98.7111 55.7607C98.6805 55.668 100.024 55.328 101.704 54.988C103.383 54.6481 104.757 54.4627 104.757 54.5863C104.757 54.7099 103.414 55.0499 101.765 55.3589Z" fill="#373737"/>
<path d="M95.8411 55.3283C94.1616 54.9883 92.8485 54.6484 92.8485 54.5248C92.879 54.432 94.2227 54.6175 95.9022 54.9574C97.5818 55.2974 98.8949 55.6373 98.8949 55.761C98.8949 55.8846 97.5207 55.6683 95.8411 55.3283Z" fill="#373737"/>
<path d="M101.673 56.5336C99.9935 56.1937 98.6804 55.8537 98.6804 55.7301C98.711 55.6374 100.055 55.8228 101.734 56.1628C103.414 56.5027 104.727 56.8427 104.727 56.9663C104.727 57.059 103.353 56.8736 101.673 56.5336Z" fill="#373737"/>
<path d="M98.3759 58.7277C98.04 60.4275 97.7041 61.7564 97.582 61.7564C97.4904 61.7255 97.6736 60.3657 98.0095 58.6659C98.3454 56.9661 98.6813 55.6372 98.8035 55.6372C98.9256 55.6681 98.7118 57.0588 98.3759 58.7277Z" fill="#373737"/>
<path d="M99.5661 52.8251C99.2302 54.5249 98.8943 55.8538 98.7722 55.8538C98.6805 55.8229 98.8638 54.4631 99.1997 52.7633C99.5356 51.0635 99.8715 49.7346 99.9936 49.7346C100.085 49.7655 99.902 51.1563 99.5661 52.8251Z" fill="#373737"/>
<path d="M97.0022 53.3504C96.0555 51.9287 95.3532 50.7234 95.4448 50.6616C95.5364 50.5998 96.3609 51.7124 97.3076 53.1649C98.2542 54.5866 98.9566 55.7919 98.865 55.8537C98.7734 55.8846 97.9489 54.772 97.0022 53.3504Z" fill="#373737"/>
<path d="M100.3 58.357C99.3532 56.9353 98.6508 55.73 98.7424 55.6682C98.834 55.6064 99.6585 56.719 100.605 58.1715C101.552 59.5932 102.254 60.7985 102.163 60.8603C102.071 60.9221 101.246 59.8095 100.3 58.357Z" fill="#373737"/>
<path d="M96.4217 57.5535C95.017 58.5116 93.8261 59.2224 93.765 59.1297C93.7039 59.0369 94.8033 58.2025 96.2385 57.2444C97.6432 56.2864 98.8342 55.5756 98.8953 55.6683C98.9563 55.7919 97.857 56.6263 96.4217 57.5535Z" fill="#373737"/>
<path d="M101.368 54.2464C99.9634 55.2044 98.7725 55.9153 98.7114 55.8225C98.6503 55.7298 99.7497 54.8954 101.185 53.9373C102.59 52.9793 103.781 52.2684 103.842 52.3612C103.903 52.4539 102.803 53.2883 101.368 54.2464Z" fill="#373737"/>
<path d="M94.8006 56.1937C95.0448 58.4807 97.0298 60.1187 99.2284 59.8714C101.458 59.6242 103.046 57.5844 102.801 55.3284C102.557 53.0414 100.572 51.4034 98.3734 51.6507C96.1442 51.867 94.5563 53.9067 94.8006 56.1937Z" fill="#373737"/>
<path d="M27.1325 63.487C31.2814 63.487 34.6447 60.0278 34.6447 55.7607C34.6447 51.4936 31.2814 48.0344 27.1325 48.0344C22.9837 48.0344 19.6204 51.4936 19.6204 55.7607C19.6204 60.0278 22.9837 63.487 27.1325 63.487Z" fill="#373737"/>
<path d="M27.1323 62.9616C31.0282 62.9616 34.1864 59.7239 34.1864 55.7298C34.1864 51.7358 31.0282 48.498 27.1323 48.498C23.2365 48.498 20.0782 51.7358 20.0782 55.7298C20.0782 59.7239 23.2365 62.9616 27.1323 62.9616Z" fill="#373737"/>
<path d="M26.4898 49.7033C29.7573 49.3324 32.6889 51.7739 33.0248 55.1117C33.3607 58.4494 31.0093 61.4781 27.7418 61.8181C24.4744 62.158 21.5733 59.7474 21.2374 56.4097C20.871 53.041 23.2529 50.0432 26.4898 49.7033Z" fill="#373737"/>
<path d="M26.5517 50.631C29.5749 50.291 32.2927 52.5162 32.5981 55.6067C32.934 58.6972 30.7353 61.4478 27.7121 61.7877C24.6889 62.1277 21.9711 59.9025 21.6657 56.812C21.3298 53.7215 23.5285 50.94 26.5517 50.631Z" fill="#373737"/>
<path d="M22.7655 56.9664C23.0098 59.4389 25.178 61.2314 27.5904 60.9532C30.0029 60.6751 31.7435 58.4808 31.4687 56.0084C31.2244 53.536 29.0562 51.7435 26.6438 52.0216C24.2619 52.2689 22.5213 54.494 22.7655 56.9664Z" fill="#373737"/>
<path d="M23.3138 60.6747C22.0313 59.6239 21.2068 58.1095 21.0541 56.4407C20.6876 53.0102 23.1306 49.9197 26.4897 49.5488C28.1082 49.3634 29.6656 49.8579 30.9481 50.8777C32.2307 51.9285 33.0552 53.4429 33.2079 55.1118C33.5743 58.5422 31.1314 61.6327 27.7723 62.0036C27.5585 62.0345 27.3448 62.0345 27.1005 62.0345C25.7568 62.0345 24.4132 61.54 23.3138 60.6747ZM26.5203 49.8579C23.3444 50.1978 21.0541 53.1338 21.39 56.3789C21.5427 57.955 22.3061 59.3767 23.5276 60.3965C24.7186 61.3855 26.2149 61.8182 27.7417 61.6636C30.9176 61.2928 33.2079 58.3877 32.872 55.1118C32.7193 53.5356 31.9559 52.114 30.7344 51.0941C29.6961 50.2596 28.4441 49.7961 27.1615 49.7961C26.9478 49.827 26.734 49.827 26.5203 49.8579Z" fill="#373737"/>
<path d="M23.1309 56.1937C23.3752 58.4807 25.3601 60.1187 27.5588 59.8714C29.788 59.6242 31.3759 57.5844 31.1316 55.3284C30.8873 53.0414 28.9024 51.4034 26.7037 51.6507C24.4745 51.867 22.8866 53.9067 23.1309 56.1937Z" fill="white"/>
<path d="M23.6513 55.8223C23.865 57.8003 25.5751 59.2219 27.4989 59.0056C29.4228 58.7892 30.797 57.0276 30.6137 55.0497C30.4 53.0718 28.6899 51.6501 26.7661 51.8665C24.8422 52.0828 23.4375 53.8444 23.6513 55.8223Z" fill="white"/>
<path d="M99.1371 63.487C103.286 63.487 106.649 60.0278 106.649 55.7607C106.649 51.4936 103.286 48.0344 99.1371 48.0344C94.9883 48.0344 91.625 51.4936 91.625 55.7607C91.625 60.0278 94.9883 63.487 99.1371 63.487Z" fill="#373737"/>
<path d="M99.1377 62.9616C103.034 62.9616 106.192 59.7239 106.192 55.7298C106.192 51.7358 103.034 48.498 99.1377 48.498C95.2418 48.498 92.0836 51.7358 92.0836 55.7298C92.0836 59.7239 95.2418 62.9616 99.1377 62.9616Z" fill="#373737"/>
<path d="M98.4952 49.7033C101.763 49.3324 104.694 51.7739 105.03 55.1117C105.366 58.4494 103.015 61.4781 99.7472 61.8181C96.4797 62.158 93.5787 59.7474 93.2428 56.4097C92.8763 53.041 95.2582 50.0432 98.4952 49.7033Z" fill="#373737"/>
<path d="M98.5571 50.631C101.58 50.291 104.298 52.5162 104.603 55.6067C104.939 58.6972 102.741 61.4478 99.7175 61.7877C96.6943 62.1277 93.9765 59.9025 93.6711 56.812C93.3352 53.7215 95.5339 50.94 98.5571 50.631Z" fill="#373737"/>
<path d="M94.7709 56.9664C95.0152 59.4389 97.1834 61.2314 99.5958 60.9532C102.008 60.6751 103.749 58.4808 103.474 56.0084C103.23 53.536 101.062 51.7435 98.6491 52.0216C96.2672 52.2689 94.5266 54.494 94.7709 56.9664Z" fill="#373737"/>
<path d="M95.3192 60.6747C94.0367 59.6239 93.2121 58.1095 93.0595 56.4407C92.693 53.0102 95.136 49.9197 98.4951 49.5488C100.114 49.3634 101.671 49.8579 102.954 50.8777C104.236 51.9285 105.061 53.4429 105.213 55.1118C105.58 58.5422 103.137 61.6327 99.7776 62.0036C99.5639 62.0345 99.3501 62.0345 99.1058 62.0345C97.7622 62.0345 96.4186 61.54 95.3192 60.6747ZM98.5256 49.8579C95.3498 50.1978 93.0595 53.1338 93.3954 56.3789C93.5481 57.955 94.3115 59.3767 95.533 60.3965C96.7239 61.3855 98.2202 61.8182 99.7471 61.6636C102.923 61.2928 105.213 58.3877 104.877 55.1118C104.725 53.5356 103.961 52.114 102.74 51.0941C101.701 50.2596 100.449 49.7961 99.1669 49.7961C98.9531 49.827 98.7394 49.827 98.5256 49.8579Z" fill="#373737"/>
<path d="M95.1362 56.1937C95.3805 58.4807 97.3655 60.1187 99.5641 59.8714C101.793 59.6242 103.381 57.5844 103.137 55.3284C102.893 53.0414 100.908 51.4034 98.7091 51.6507C96.4799 51.867 94.8919 53.9067 95.1362 56.1937Z" fill="white"/>
<path d="M95.6566 55.8223C95.8704 57.8003 97.5805 59.2219 99.5043 59.0056C101.428 58.7892 102.802 57.0276 102.619 55.0497C102.405 53.0718 100.695 51.6501 98.7714 51.8665C96.8476 52.0828 95.4429 53.8444 95.6566 55.8223Z" fill="white"/>
<path d="M35.5556 57.8416L90.6141 57.8416V57.4089L35.5556 57.4089V57.8416Z" fill="#373737"/>
<path opacity="0.4" d="M90.5577 28.6567L96.543 38.2991H94.4053L90.1301 28.6567H90.5577Z" fill="#373737"/>
<g filter="url(#filter1_d_14422_78855)">
<circle cx="92.9375" cy="30.25" r="13.5" fill="white"/>
</g>
<path d="M96.3619 23.2947C95.6993 23.2931 95.0454 23.4413 94.451 23.7277C93.8567 24.0141 93.338 24.4309 92.9355 24.9457C92.5329 24.4308 92.0142 24.014 91.4197 23.7276C90.8253 23.4412 90.1712 23.293 89.5085 23.2947C87.1215 23.2947 85.1721 25.2006 85.163 27.5431C85.154 30.0641 86.4005 31.5504 87.4023 32.7452L87.6171 33.002C88.8033 34.4324 92.4807 37.0015 92.6364 37.1102C92.7238 37.1711 92.8285 37.2038 92.9358 37.2038C93.0431 37.2038 93.1477 37.1711 93.2352 37.1102C93.3909 37.0015 97.0683 34.4324 98.2544 33.002L98.469 32.7452C99.4707 31.5504 100.717 30.0641 100.708 27.543C100.699 25.2005 98.7495 23.2947 96.3619 23.2947Z" fill="url(#paint0_linear_14422_78855)"/>
<defs>
<filter id="filter0_f_14422_78855" x="0.6875" y="59.3323" width="125.812" height="9.23608" filterUnits="userSpaceOnUse" color-interpolation-filters="sRGB">
<feFlood flood-opacity="0" result="BackgroundImageFix"/>
<feBlend mode="normal" in="SourceGraphic" in2="BackgroundImageFix" result="shape"/>
<feGaussianBlur stdDeviation="2" result="effect1_foregroundBlur_14422_78855"/>
</filter>
<filter id="filter1_d_14422_78855" x="59.4375" y="0.75" width="67" height="67" filterUnits="userSpaceOnUse" color-interpolation-filters="sRGB">
<feFlood flood-opacity="0" result="BackgroundImageFix"/>
<feColorMatrix in="SourceAlpha" type="matrix" values="0 0 0 0 0 0 0 0 0 0 0 0 0 0 0 0 0 0 127 0" result="hardAlpha"/>
<feOffset dy="4"/>
<feGaussianBlur stdDeviation="10"/>
<feColorMatrix type="matrix" values="0 0 0 0 0 0 0 0 0 0 0 0 0 0 0 0 0 0 0.13 0"/>
<feBlend mode="normal" in2="BackgroundImageFix" result="effect1_dropShadow_14422_78855"/>
<feBlend mode="normal" in="SourceGraphic" in2="effect1_dropShadow_14422_78855" result="shape"/>
</filter>
<linearGradient id="paint0_linear_14422_78855" x1="92.9357" y1="23.2947" x2="97.5704" y2="38.2592" gradientUnits="userSpaceOnUse">
<stop offset="0.151042" stop-color="#FF5A5F"/>
<stop offset="1" stop-color="#D70007"/>
</linearGradient>
</defs>
</svg>
